<svg width="1500" height="500" viewBox="0 0 1500 500" fill="none" xmlns="http://www.w3.org/2000/svg">
<g clip-path="url(#clip0_6_682)">
<rect width="1500" height="500" fill="#EEEEEE"/>
<circle cx="-6.27516" cy="28.5778" r="8" transform="rotate(-45 -6.27516 28.5778)" fill="#D3E3FC"/>
<circle cx="22.009" cy="0.293491" r="8" transform="rotate(-45 22.009 0.293491)" fill="#D3E3FC"/>
<circle cx="-6.27491" cy="85.1463" r="8" transform="rotate(-45 -6.27491 85.1463)" fill="#D3E3FC"/>
<circle cx="22.0093" cy="56.862" r="8" transform="rotate(-45 22.0093 56.862)" fill="#D3E3FC"/>
<circle cx="50.2934" cy="28.5778" r="8" transform="rotate(-45 50.2934 28.5778)" fill="#D3E3FC"/>
<circle cx="-6.27516" cy="141.715" r="8" transform="rotate(-45 -6.27516 141.715)" fill="#D3E3FC"/>
<circle cx="22.0093" cy="113.431" r="8" transform="rotate(-45 22.0093 113.431)" fill="#D3E3FC"/>
<circle cx="50.2934" cy="85.1463" r="8" transform="rotate(-45 50.2934 85.1463)" fill="#D3E3FC"/>
<circle cx="78.5776" cy="56.862" r="8" transform="rotate(-45 78.5776 56.862)" fill="#D3E3FC"/>
<circle cx="-6.27491" cy="198.283" r="8" transform="rotate(-45 -6.27491 198.283)" fill="#D3E3FC"/>
<circle cx="22.0093" cy="169.999" r="8" transform="rotate(-45 22.0093 169.999)" fill="#D3E3FC"/>
<circle cx="50.2937" cy="141.715" r="8" transform="rotate(-45 50.2937 141.715)" fill="#D3E3FC"/>
<circle cx="78.5779" cy="113.431" r="8" transform="rotate(-45 78.5779 113.431)" fill="#D3E3FC"/>
<circle cx="106.862" cy="85.1463" r="8" transform="rotate(-45 106.862 85.1463)" fill="#D3E3FC"/>
<circle cx="-6.27516" cy="254.852" r="8" transform="rotate(-45 -6.27516 254.852)" fill="#D3E3FC"/>
<circle cx="22.0093" cy="226.568" r="8" transform="rotate(-45 22.0093 226.568)" fill="#D3E3FC"/>
<circle cx="50.2934" cy="198.283" r="8" transform="rotate(-45 50.2934 198.283)" fill="#D3E3FC"/>
<circle cx="78.5779" cy="169.999" r="8" transform="rotate(-45 78.5779 169.999)" fill="#D3E3FC"/>
<circle cx="106.862" cy="141.715" r="8" transform="rotate(-45 106.862 141.715)" fill="#D3E3FC"/>
<circle cx="135.146" cy="113.431" r="8" transform="rotate(-45 135.146 113.431)" fill="#D3E3FC"/>
<circle cx="-6.27516" cy="311.42" r="8" transform="rotate(-45 -6.27516 311.42)" fill="#D3E3FC"/>
<circle cx="22.009" cy="283.136" r="8" transform="rotate(-45 22.009 283.136)" fill="#D3E3FC"/>
<circle cx="50.2934" cy="254.852" r="8" transform="rotate(-45 50.2934 254.852)" fill="#D3E3FC"/>
<circle cx="78.5776" cy="226.568" r="8" transform="rotate(-45 78.5776 226.568)" fill="#D3E3FC"/>
<circle cx="106.862" cy="198.283" r="8" transform="rotate(-45 106.862 198.283)" fill="#D3E3FC"/>
<circle cx="135.146" cy="169.999" r="8" transform="rotate(-45 135.146 169.999)" fill="#D3E3FC"/>
<circle cx="163.43" cy="141.715" r="8" transform="rotate(-45 163.43 141.715)" fill="#D3E3FC"/>
<circle cx="78.5779" cy="0.293491" r="8" transform="rotate(-45 78.5779 0.293491)" fill="#D3E3FC"/>
<circle cx="106.862" cy="28.5778" r="8" transform="rotate(-45 106.862 28.5778)" fill="#D3E3FC"/>
<circle cx="135.146" cy="0.293491" r="8" transform="rotate(-45 135.146 0.293491)" fill="#D3E3FC"/>
<circle cx="135.146" cy="56.862" r="8" transform="rotate(-45 135.146 56.862)" fill="#D3E3FC"/>
<circle cx="163.431" cy="28.5778" r="8" transform="rotate(-45 163.431 28.5778)" fill="#D3E3FC"/>
<circle cx="191.715" cy="0.293495" r="8" transform="rotate(-45 191.715 0.293495)" fill="#D3E3FC"/>
<circle cx="163.431" cy="85.1463" r="8" transform="rotate(-45 163.431 85.1463)" fill="#D3E3FC"/>
<circle cx="191.715" cy="56.862" r="8" transform="rotate(-45 191.715 56.862)" fill="#D3E3FC"/>
<circle cx="219.999" cy="28.5778" r="8" transform="rotate(-45 219.999 28.5778)" fill="#D3E3FC"/>
<circle cx="248.283" cy="0.293488" r="8" transform="rotate(-45 248.283 0.293488)" fill="#D3E3FC"/>
<circle cx="191.715" cy="113.431" r="8" transform="rotate(-45 191.715 113.431)" fill="#D3E3FC"/>
<circle cx="219.999" cy="85.1463" r="8" transform="rotate(-45 219.999 85.1463)" fill="#D3E3FC"/>
<circle cx="248.283" cy="56.862" r="8" transform="rotate(-45 248.283 56.862)" fill="#D3E3FC"/>
<circle cx="276.568" cy="28.5778" r="8" transform="rotate(-45 276.568 28.5778)" fill="#D3E3FC"/>
<circle cx="304.852" cy="0.293488" r="8" transform="rotate(-45 304.852 0.293488)" fill="#D3E3FC"/>
<circle cx="1202.74" cy="490.294" r="8" transform="rotate(-45 1202.74 490.294)" fill="#D3E3FC"/>
<circle cx="1231.02" cy="462.009" r="8" transform="rotate(-45 1231.02 462.009)" fill="#D3E3FC"/>
<circle cx="1259.3" cy="433.725" r="8" transform="rotate(-45 1259.3 433.725)" fill="#D3E3FC"/>
<circle cx="1287.59" cy="405.441" r="8" transform="rotate(-45 1287.59 405.441)" fill="#D3E3FC"/>
<circle cx="1315.87" cy="377.156" r="8" transform="rotate(-45 1315.87 377.156)" fill="#D3E3FC"/>
<circle cx="1259.3" cy="490.293" r="8" transform="rotate(-45 1259.3 490.293)" fill="#D3E3FC"/>
<circle cx="1287.59" cy="462.009" r="8" transform="rotate(-45 1287.59 462.009)" fill="#D3E3FC"/>
<circle cx="1315.87" cy="433.725" r="8" transform="rotate(-45 1315.87 433.725)" fill="#D3E3FC"/>
<circle cx="1344.16" cy="405.441" r="8" transform="rotate(-45 1344.16 405.441)" fill="#D3E3FC"/>
<circle cx="1315.87" cy="490.294" r="8" transform="rotate(-45 1315.87 490.294)" fill="#D3E3FC"/>
<circle cx="1344.16" cy="462.009" r="8" transform="rotate(-45 1344.16 462.009)" fill="#D3E3FC"/>
<circle cx="1372.44" cy="433.725" r="8" transform="rotate(-45 1372.44 433.725)" fill="#D3E3FC"/>
<circle cx="1372.44" cy="490.293" r="8" transform="rotate(-45 1372.44 490.293)" fill="#D3E3FC"/>
<circle cx="1400.73" cy="462.009" r="8" transform="rotate(-45 1400.73 462.009)" fill="#D3E3FC"/>
<circle cx="1429.01" cy="490.294" r="8" transform="rotate(-45 1429.01 490.294)" fill="#D3E3FC"/>
<circle cx="1344.16" cy="348.872" r="8" transform="rotate(-45 1344.16 348.872)" fill="#D3E3FC"/>
<circle cx="1372.44" cy="320.588" r="8" transform="rotate(-45 1372.44 320.588)" fill="#D3E3FC"/>
<circle cx="1400.72" cy="292.304" r="8" transform="rotate(-45 1400.72 292.304)" fill="#D3E3FC"/>
<circle cx="1429.01" cy="264.019" r="8" transform="rotate(-45 1429.01 264.019)" fill="#D3E3FC"/>
<circle cx="1457.29" cy="235.735" r="8" transform="rotate(-45 1457.29 235.735)" fill="#D3E3FC"/>
<circle cx="1485.58" cy="207.451" r="8" transform="rotate(-45 1485.58 207.451)" fill="#D3E3FC"/>
<circle cx="1372.44" cy="377.156" r="8" transform="rotate(-45 1372.44 377.156)" fill="#D3E3FC"/>
<circle cx="1400.72" cy="348.872" r="8" transform="rotate(-45 1400.72 348.872)" fill="#D3E3FC"/>
<circle cx="1429.01" cy="320.588" r="8" transform="rotate(-45 1429.01 320.588)" fill="#D3E3FC"/>
<circle cx="1457.29" cy="292.304" r="8" transform="rotate(-45 1457.29 292.304)" fill="#D3E3FC"/>
<circle cx="1485.58" cy="264.019" r="8" transform="rotate(-45 1485.58 264.019)" fill="#D3E3FC"/>
<circle cx="1400.72" cy="405.441" r="8" transform="rotate(-45 1400.72 405.441)" fill="#D3E3FC"/>
<circle cx="1429.01" cy="377.156" r="8" transform="rotate(-45 1429.01 377.156)" fill="#D3E3FC"/>
<circle cx="1457.29" cy="348.872" r="8" transform="rotate(-45 1457.29 348.872)" fill="#D3E3FC"/>
<circle cx="1485.58" cy="320.588" r="8" transform="rotate(-45 1485.58 320.588)" fill="#D3E3FC"/>
<circle cx="1429.01" cy="433.725" r="8" transform="rotate(-45 1429.01 433.725)" fill="#D3E3FC"/>
<circle cx="1457.29" cy="405.441" r="8" transform="rotate(-45 1457.29 405.441)" fill="#D3E3FC"/>
<circle cx="1485.58" cy="377.156" r="8" transform="rotate(-45 1485.58 377.156)" fill="#D3E3FC"/>
<circle cx="1457.29" cy="462.009" r="8" transform="rotate(-45 1457.29 462.009)" fill="#D3E3FC"/>
<circle cx="1485.58" cy="433.725" r="8" transform="rotate(-45 1485.58 433.725)" fill="#D3E3FC"/>
<circle cx="1485.58" cy="490.293" r="8" transform="rotate(-45 1485.58 490.293)" fill="#D3E3FC"/>
<path d="M274.687 236V201H286.937L292.987 231.5H293.887L299.937 201H312.187V236H305.787V205.85H304.887L298.887 236H287.987L281.987 205.85H281.087V236H274.687ZM330.279 236.7C327.812 236.7 325.629 236.183 323.729 235.15C321.862 234.083 320.395 232.6 319.329 230.7C318.295 228.767 317.779 226.5 317.779 223.9V223.3C317.779 220.7 318.295 218.45 319.329 216.55C320.362 214.617 321.812 213.133 323.679 212.1C325.545 211.033 327.712 210.5 330.179 210.5C332.612 210.5 334.729 211.05 336.529 212.15C338.329 213.217 339.729 214.717 340.729 216.65C341.729 218.55 342.229 220.767 342.229 223.3V225.45H324.179C324.245 227.15 324.879 228.533 326.079 229.6C327.279 230.667 328.745 231.2 330.479 231.2C332.245 231.2 333.545 230.817 334.379 230.05C335.212 229.283 335.845 228.433 336.279 227.5L341.429 230.2C340.962 231.067 340.279 232.017 339.379 233.05C338.512 234.05 337.345 234.917 335.879 235.65C334.412 236.35 332.545 236.7 330.279 236.7ZM324.229 220.75H335.829C335.695 219.317 335.112 218.167 334.079 217.3C333.079 216.433 331.762 216 330.129 216C328.429 216 327.079 216.433 326.079 217.3C325.079 218.167 324.462 219.317 324.229 220.75ZM347.836 236V211.2H354.036V214H354.936C355.303 213 355.903 212.267 356.736 211.8C357.603 211.333 358.603 211.1 359.736 211.1H362.736V216.7H359.636C358.036 216.7 356.719 217.133 355.686 218C354.653 218.833 354.136 220.133 354.136 221.9V236H347.836ZM365.581 223.7V222.9C365.581 220.3 366.098 218.083 367.131 216.25C368.165 214.383 369.531 212.967 371.231 212C372.965 211 374.848 210.5 376.881 210.5C379.148 210.5 380.865 210.9 382.031 211.7C383.198 212.5 384.048 213.333 384.581 214.2H385.481V211.2H391.681V240.4C391.681 242.1 391.181 243.45 390.181 244.45C389.181 245.483 387.848 246 386.181 246H369.581V240.5H383.981C384.915 240.5 385.381 240 385.381 239V232.55H384.481C384.148 233.083 383.681 233.633 383.081 234.2C382.481 234.733 381.681 235.183 380.681 235.55C379.681 235.917 378.415 236.1 376.881 236.1C374.848 236.1 372.965 235.617 371.231 234.65C369.531 233.65 368.165 232.233 367.131 230.4C366.098 228.533 365.581 226.3 365.581 223.7ZM378.681 230.6C380.615 230.6 382.231 229.983 383.531 228.75C384.831 227.517 385.481 225.783 385.481 223.55V223.05C385.481 220.783 384.831 219.05 383.531 217.85C382.265 216.617 380.648 216 378.681 216C376.748 216 375.131 216.617 373.831 217.85C372.531 219.05 371.881 220.783 371.881 223.05V223.55C371.881 225.783 372.531 227.517 373.831 228.75C375.131 229.983 376.748 230.6 378.681 230.6ZM398.666 236V211.2H404.966V236H398.666ZM401.816 208.3C400.683 208.3 399.716 207.933 398.916 207.2C398.149 206.467 397.766 205.5 397.766 204.3C397.766 203.1 398.149 202.133 398.916 201.4C399.716 200.667 400.683 200.3 401.816 200.3C402.983 200.3 403.949 200.667 404.716 201.4C405.483 202.133 405.866 203.1 405.866 204.3C405.866 205.5 405.483 206.467 404.716 207.2C403.949 207.933 402.983 208.3 401.816 208.3ZM411.947 236V211.2H418.147V214.45H419.047C419.447 213.583 420.197 212.767 421.297 212C422.397 211.2 424.064 210.8 426.297 210.8C428.231 210.8 429.914 211.25 431.347 212.15C432.814 213.017 433.947 214.233 434.747 215.8C435.547 217.333 435.947 219.133 435.947 221.2V236H429.647V221.7C429.647 219.833 429.181 218.433 428.247 217.5C427.347 216.567 426.047 216.1 424.347 216.1C422.414 216.1 420.914 216.75 419.847 218.05C418.781 219.317 418.247 221.1 418.247 223.4V236H411.947ZM441.558 223.7V222.9C441.558 220.3 442.074 218.083 443.108 216.25C444.141 214.383 445.508 212.967 447.208 212C448.941 211 450.824 210.5 452.858 210.5C455.124 210.5 456.841 210.9 458.008 211.7C459.174 212.5 460.024 213.333 460.558 214.2H461.458V211.2H467.658V240.4C467.658 242.1 467.158 243.45 466.158 244.45C465.158 245.483 463.824 246 462.158 246H445.558V240.5H459.958C460.891 240.5 461.358 240 461.358 239V232.55H460.458C460.124 233.083 459.658 233.633 459.058 234.2C458.458 234.733 457.658 235.183 456.658 235.55C455.658 235.917 454.391 236.1 452.858 236.1C450.824 236.1 448.941 235.617 447.208 234.65C445.508 233.65 444.141 232.233 443.108 230.4C442.074 228.533 441.558 226.3 441.558 223.7ZM454.658 230.6C456.591 230.6 458.208 229.983 459.508 228.75C460.808 227.517 461.458 225.783 461.458 223.55V223.05C461.458 220.783 460.808 219.05 459.508 217.85C458.241 216.617 456.624 216 454.658 216C452.724 216 451.108 216.617 449.808 217.85C448.508 219.05 447.858 220.783 447.858 223.05V223.55C447.858 225.783 448.508 227.517 449.808 228.75C451.108 229.983 452.724 230.6 454.658 230.6ZM644.592 236C642.958 236 641.625 235.5 640.592 234.5C639.592 233.467 639.092 232.1 639.092 230.4V216.4H632.892V211.2H639.092V203.5H645.392V211.2H652.192V216.4H645.392V229.3C645.392 230.3 645.858 230.8 646.792 230.8H651.592V236H644.592ZM668.816 236.7C666.349 236.7 664.132 236.2 662.166 235.2C660.199 234.2 658.649 232.75 657.516 230.85C656.382 228.95 655.816 226.667 655.816 224V223.2C655.816 220.533 656.382 218.25 657.516 216.35C658.649 214.45 660.199 213 662.166 212C664.132 211 666.349 210.5 668.816 210.5C671.282 210.5 673.499 211 675.466 212C677.432 213 678.982 214.45 680.116 216.35C681.249 218.25 681.816 220.533 681.816 223.2V224C681.816 226.667 681.249 228.95 680.116 230.85C678.982 232.75 677.432 234.2 675.466 235.2C673.499 236.2 671.282 236.7 668.816 236.7ZM668.816 231.1C670.749 231.1 672.349 230.483 673.616 229.25C674.882 227.983 675.516 226.183 675.516 223.85V223.35C675.516 221.017 674.882 219.233 673.616 218C672.382 216.733 670.782 216.1 668.816 216.1C666.882 216.1 665.282 216.733 664.016 218C662.749 219.233 662.116 221.017 662.116 223.35V223.85C662.116 226.183 662.749 227.983 664.016 229.25C665.282 230.483 666.882 231.1 668.816 231.1ZM858.263 236.4C856.329 236.4 854.629 235.967 853.163 235.1C851.729 234.2 850.613 232.967 849.813 231.4C849.013 229.833 848.612 228.033 848.612 226V211.2H854.913V225.5C854.913 227.367 855.363 228.767 856.263 229.7C857.196 230.633 858.513 231.1 860.213 231.1C862.146 231.1 863.646 230.467 864.713 229.2C865.779 227.9 866.313 226.1 866.313 223.8V211.2H872.613V236H866.413V232.75H865.513C865.113 233.583 864.363 234.4 863.263 235.2C862.163 236 860.496 236.4 858.263 236.4ZM889.923 236.7C886.69 236.7 884.04 236 881.973 234.6C879.906 233.2 878.656 231.2 878.223 228.6L884.023 227.1C884.256 228.267 884.64 229.183 885.173 229.85C885.74 230.517 886.423 231 887.223 231.3C888.056 231.567 888.956 231.7 889.923 231.7C891.39 231.7 892.473 231.45 893.173 230.95C893.873 230.417 894.223 229.767 894.223 229C894.223 228.233 893.89 227.65 893.223 227.25C892.556 226.817 891.49 226.467 890.023 226.2L888.623 225.95C886.89 225.617 885.306 225.167 883.873 224.6C882.44 224 881.29 223.183 880.423 222.15C879.556 221.117 879.123 219.783 879.123 218.15C879.123 215.683 880.023 213.8 881.823 212.5C883.623 211.167 885.99 210.5 888.923 210.5C891.69 210.5 893.99 211.117 895.823 212.35C897.656 213.583 898.856 215.2 899.423 217.2L893.573 219C893.306 217.733 892.756 216.833 891.923 216.3C891.123 215.767 890.123 215.5 888.923 215.5C887.723 215.5 886.806 215.717 886.173 216.15C885.54 216.55 885.223 217.117 885.223 217.85C885.223 218.65 885.556 219.25 886.223 219.65C886.89 220.017 887.79 220.3 888.923 220.5L890.323 220.75C892.19 221.083 893.873 221.533 895.373 222.1C896.906 222.633 898.106 223.417 898.973 224.45C899.873 225.45 900.323 226.817 900.323 228.55C900.323 231.15 899.373 233.167 897.473 234.6C895.606 236 893.09 236.7 889.923 236.7ZM917.144 236.7C914.677 236.7 912.494 236.183 910.594 235.15C908.727 234.083 907.26 232.6 906.194 230.7C905.16 228.767 904.644 226.5 904.644 223.9V223.3C904.644 220.7 905.16 218.45 906.194 216.55C907.227 214.617 908.677 213.133 910.544 212.1C912.41 211.033 914.577 210.5 917.044 210.5C919.477 210.5 921.594 211.05 923.394 212.15C925.194 213.217 926.594 214.717 927.594 216.65C928.594 218.55 929.094 220.767 929.094 223.3V225.45H911.044C911.11 227.15 911.744 228.533 912.944 229.6C914.144 230.667 915.61 231.2 917.344 231.2C919.11 231.2 920.41 230.817 921.244 230.05C922.077 229.283 922.71 228.433 923.144 227.5L928.294 230.2C927.827 231.067 927.144 232.017 926.244 233.05C925.377 234.05 924.21 234.917 922.744 235.65C921.277 236.35 919.41 236.7 917.144 236.7ZM911.094 220.75H922.694C922.56 219.317 921.977 218.167 920.944 217.3C919.944 216.433 918.627 216 916.994 216C915.294 216 913.944 216.433 912.944 217.3C911.944 218.167 911.327 219.317 911.094 220.75ZM934.701 236V211.2H940.901V214H941.801C942.168 213 942.768 212.267 943.601 211.8C944.468 211.333 945.468 211.1 946.601 211.1H949.601V216.7H946.501C944.901 216.7 943.585 217.133 942.551 218C941.518 218.833 941.001 220.133 941.001 221.9V236H934.701ZM967.221 236V201H973.521V236H967.221ZM992.302 236.7C989.835 236.7 987.619 236.2 985.652 235.2C983.685 234.2 982.135 232.75 981.002 230.85C979.869 228.95 979.302 226.667 979.302 224V223.2C979.302 220.533 979.869 218.25 981.002 216.35C982.135 214.45 983.685 213 985.652 212C987.619 211 989.835 210.5 992.302 210.5C994.769 210.5 996.985 211 998.952 212C1000.92 213 1002.47 214.45 1003.6 216.35C1004.74 218.25 1005.3 220.533 1005.3 223.2V224C1005.3 226.667 1004.74 228.95 1003.6 230.85C1002.47 232.75 1000.92 234.2 998.952 235.2C996.985 236.2 994.769 236.7 992.302 236.7ZM992.302 231.1C994.235 231.1 995.835 230.483 997.102 229.25C998.369 227.983 999.002 226.183 999.002 223.85V223.35C999.002 221.017 998.369 219.233 997.102 218C995.869 216.733 994.269 216.1 992.302 216.1C990.369 216.1 988.769 216.733 987.502 218C986.235 219.233 985.602 221.017 985.602 223.35V223.85C985.602 226.183 986.235 227.983 987.502 229.25C988.769 230.483 990.369 231.1 992.302 231.1ZM1009.92 223.7V222.9C1009.92 220.3 1010.43 218.083 1011.47 216.25C1012.5 214.383 1013.87 212.967 1015.57 212C1017.3 211 1019.18 210.5 1021.22 210.5C1023.48 210.5 1025.2 210.9 1026.37 211.7C1027.53 212.5 1028.38 213.333 1028.92 214.2H1029.82V211.2H1036.02V240.4C1036.02 242.1 1035.52 243.45 1034.52 244.45C1033.52 245.483 1032.18 246 1030.52 246H1013.92V240.5H1028.32C1029.25 240.5 1029.72 240 1029.72 239V232.55H1028.82C1028.48 233.083 1028.02 233.633 1027.42 234.2C1026.82 234.733 1026.02 235.183 1025.02 235.55C1024.02 235.917 1022.75 236.1 1021.22 236.1C1019.18 236.1 1017.3 235.617 1015.57 234.65C1013.87 233.65 1012.5 232.233 1011.47 230.4C1010.43 228.533 1009.92 226.3 1009.92 223.7ZM1023.02 230.6C1024.95 230.6 1026.57 229.983 1027.87 228.75C1029.17 227.517 1029.82 225.783 1029.82 223.55V223.05C1029.82 220.783 1029.17 219.05 1027.87 217.85C1026.6 216.617 1024.98 216 1023.02 216C1021.08 216 1019.47 216.617 1018.17 217.85C1016.87 219.05 1016.22 220.783 1016.22 223.05V223.55C1016.22 225.783 1016.87 227.517 1018.17 228.75C1019.47 229.983 1021.08 230.6 1023.02 230.6ZM1043 236V211.2H1049.3V236H1043ZM1046.15 208.3C1045.02 208.3 1044.05 207.933 1043.25 207.2C1042.49 206.467 1042.1 205.5 1042.1 204.3C1042.1 203.1 1042.49 202.133 1043.25 201.4C1044.05 200.667 1045.02 200.3 1046.15 200.3C1047.32 200.3 1048.29 200.667 1049.05 201.4C1049.82 202.133 1050.2 203.1 1050.2 204.3C1050.2 205.5 1049.82 206.467 1049.05 207.2C1048.29 207.933 1047.32 208.3 1046.15 208.3ZM1056.28 236V211.2H1062.48V214.45H1063.38C1063.78 213.583 1064.53 212.767 1065.63 212C1066.73 211.2 1068.4 210.8 1070.63 210.8C1072.57 210.8 1074.25 211.25 1075.68 212.15C1077.15 213.017 1078.28 214.233 1079.08 215.8C1079.88 217.333 1080.28 219.133 1080.28 221.2V236H1073.98V221.7C1073.98 219.833 1073.52 218.433 1072.58 217.5C1071.68 216.567 1070.38 216.1 1068.68 216.1C1066.75 216.1 1065.25 216.75 1064.18 218.05C1063.12 219.317 1062.58 221.1 1062.58 223.4V236H1056.28ZM1097.39 236.7C1094.16 236.7 1091.51 236 1089.44 234.6C1087.38 233.2 1086.13 231.2 1085.69 228.6L1091.49 227.1C1091.73 228.267 1092.11 229.183 1092.64 229.85C1093.21 230.517 1093.89 231 1094.69 231.3C1095.53 231.567 1096.43 231.7 1097.39 231.7C1098.86 231.7 1099.94 231.45 1100.64 230.95C1101.34 230.417 1101.69 229.767 1101.69 229C1101.69 228.233 1101.36 227.65 1100.69 227.25C1100.03 226.817 1098.96 226.467 1097.49 226.2L1096.09 225.95C1094.36 225.617 1092.78 225.167 1091.34 224.6C1089.91 224 1088.76 223.183 1087.89 222.15C1087.03 221.117 1086.59 219.783 1086.59 218.15C1086.59 215.683 1087.49 213.8 1089.29 212.5C1091.09 211.167 1093.46 210.5 1096.39 210.5C1099.16 210.5 1101.46 211.117 1103.29 212.35C1105.13 213.583 1106.33 215.2 1106.89 217.2L1101.04 219C1100.78 217.733 1100.23 216.833 1099.39 216.3C1098.59 215.767 1097.59 215.5 1096.39 215.5C1095.19 215.5 1094.28 215.717 1093.64 216.15C1093.01 216.55 1092.69 217.117 1092.69 217.85C1092.69 218.65 1093.03 219.25 1093.69 219.65C1094.36 220.017 1095.26 220.3 1096.39 220.5L1097.79 220.75C1099.66 221.083 1101.34 221.533 1102.84 222.1C1104.38 222.633 1105.58 223.417 1106.44 224.45C1107.34 225.45 1107.79 226.817 1107.79 228.55C1107.79 231.15 1106.84 233.167 1104.94 234.6C1103.08 236 1100.56 236.7 1097.39 236.7ZM1128.01 236L1124.51 211.2H1130.76L1132.96 231.75H1133.86L1137.06 211.2H1147.16L1150.36 231.75H1151.26L1153.46 211.2H1159.71L1156.21 236H1145.76L1142.56 215.45H1141.66L1138.46 236H1128.01ZM1165.22 236V211.2H1171.52V236H1165.22ZM1168.37 208.3C1167.24 208.3 1166.27 207.933 1165.47 207.2C1164.7 206.467 1164.32 205.5 1164.32 204.3C1164.32 203.1 1164.7 202.133 1165.47 201.4C1166.27 200.667 1167.24 200.3 1168.37 200.3C1169.54 200.3 1170.5 200.667 1171.27 201.4C1172.04 202.133 1172.42 203.1 1172.42 204.3C1172.42 205.5 1172.04 206.467 1171.27 207.2C1170.5 207.933 1169.54 208.3 1168.37 208.3ZM1188 236C1186.37 236 1185.03 235.5 1184 234.5C1183 233.467 1182.5 232.1 1182.5 230.4V216.4H1176.3V211.2H1182.5V203.5H1188.8V211.2H1195.6V216.4H1188.8V229.3C1188.8 230.3 1189.27 230.8 1190.2 230.8H1195V236H1188ZM1201.3 236V201H1207.6V214.25H1208.5C1208.77 213.717 1209.19 213.183 1209.75 212.65C1210.32 212.117 1211.07 211.683 1212 211.35C1212.97 210.983 1214.19 210.8 1215.65 210.8C1217.59 210.8 1219.27 211.25 1220.7 212.15C1222.17 213.017 1223.3 214.233 1224.1 215.8C1224.9 217.333 1225.3 219.133 1225.3 221.2V236H1219V221.7C1219 219.833 1218.54 218.433 1217.6 217.5C1216.7 216.567 1215.4 216.1 1213.7 216.1C1211.77 216.1 1210.27 216.75 1209.2 218.05C1208.14 219.317 1207.6 221.1 1207.6 223.4V236H1201.3ZM395.697 298.7C393.93 298.7 392.347 298.4 390.947 297.8C389.547 297.167 388.43 296.267 387.597 295.1C386.797 293.9 386.397 292.45 386.397 290.75C386.397 289.05 386.797 287.633 387.597 286.5C388.43 285.333 389.564 284.467 390.997 283.9C392.464 283.3 394.13 283 395.997 283H402.797V281.6C402.797 280.433 402.43 279.483 401.697 278.75C400.964 277.983 399.797 277.6 398.197 277.6C396.63 277.6 395.464 277.967 394.697 278.7C393.93 279.4 393.43 280.317 393.197 281.45L387.397 279.5C387.797 278.233 388.43 277.083 389.297 276.05C390.197 274.983 391.38 274.133 392.847 273.5C394.347 272.833 396.164 272.5 398.297 272.5C401.564 272.5 404.147 273.317 406.047 274.95C407.947 276.583 408.897 278.95 408.897 282.05V291.3C408.897 292.3 409.364 292.8 410.297 292.8H412.297V298H408.097C406.864 298 405.847 297.7 405.047 297.1C404.247 296.5 403.847 295.7 403.847 294.7V294.65H402.897C402.764 295.05 402.464 295.583 401.997 296.25C401.53 296.883 400.797 297.45 399.797 297.95C398.797 298.45 397.43 298.7 395.697 298.7ZM396.797 293.6C398.564 293.6 399.997 293.117 401.097 292.15C402.23 291.15 402.797 289.833 402.797 288.2V287.7H396.447C395.28 287.7 394.364 287.95 393.697 288.45C393.03 288.95 392.697 289.65 392.697 290.55C392.697 291.45 393.047 292.183 393.747 292.75C394.447 293.317 395.464 293.6 396.797 293.6ZM433.699 298V278.4H427.399V273.2H433.699V268.6C433.699 266.9 434.199 265.55 435.199 264.55C436.232 263.517 437.565 263 439.199 263H445.699V268.2H441.399C440.465 268.2 439.999 268.7 439.999 269.7V273.2H446.499V278.4H439.999V298H433.699ZM458.685 298.7C456.919 298.7 455.335 298.4 453.935 297.8C452.535 297.167 451.419 296.267 450.585 295.1C449.785 293.9 449.385 292.45 449.385 290.75C449.385 289.05 449.785 287.633 450.585 286.5C451.419 285.333 452.552 284.467 453.985 283.9C455.452 283.3 457.119 283 458.985 283H465.785V281.6C465.785 280.433 465.419 279.483 464.685 278.75C463.952 277.983 462.785 277.6 461.185 277.6C459.619 277.6 458.452 277.967 457.685 278.7C456.919 279.4 456.419 280.317 456.185 281.45L450.385 279.5C450.785 278.233 451.419 277.083 452.285 276.05C453.185 274.983 454.369 274.133 455.835 273.5C457.335 272.833 459.152 272.5 461.285 272.5C464.552 272.5 467.135 273.317 469.035 274.95C470.935 276.583 471.885 278.95 471.885 282.05V291.3C471.885 292.3 472.352 292.8 473.285 292.8H475.285V298H471.085C469.852 298 468.835 297.7 468.035 297.1C467.235 296.5 466.835 295.7 466.835 294.7V294.65H465.885C465.752 295.05 465.452 295.583 464.985 296.25C464.519 296.883 463.785 297.45 462.785 297.95C461.785 298.45 460.419 298.7 458.685 298.7ZM459.785 293.6C461.552 293.6 462.985 293.117 464.085 292.15C465.219 291.15 465.785 289.833 465.785 288.2V287.7H459.435C458.269 287.7 457.352 287.95 456.685 288.45C456.019 288.95 455.685 289.65 455.685 290.55C455.685 291.45 456.035 292.183 456.735 292.75C457.435 293.317 458.452 293.6 459.785 293.6ZM479.892 298V273.2H486.092V275.9H486.992C487.425 275.067 488.142 274.35 489.142 273.75C490.142 273.117 491.458 272.8 493.092 272.8C494.858 272.8 496.275 273.15 497.342 273.85C498.408 274.517 499.225 275.4 499.792 276.5H500.692C501.258 275.433 502.058 274.55 503.092 273.85C504.125 273.15 505.592 272.8 507.492 272.8C509.025 272.8 510.408 273.133 511.642 273.8C512.908 274.433 513.908 275.417 514.642 276.75C515.408 278.05 515.792 279.7 515.792 281.7V298H509.492V282.15C509.492 280.783 509.142 279.767 508.442 279.1C507.742 278.4 506.758 278.05 505.492 278.05C504.058 278.05 502.942 278.517 502.142 279.45C501.375 280.35 500.992 281.65 500.992 283.35V298H494.692V282.15C494.692 280.783 494.342 279.767 493.642 279.1C492.942 278.4 491.958 278.05 490.692 278.05C489.258 278.05 488.142 278.517 487.342 279.45C486.575 280.35 486.192 281.65 486.192 283.35V298H479.892ZM522.567 298V273.2H528.867V298H522.567ZM525.717 270.3C524.584 270.3 523.617 269.933 522.817 269.2C522.051 268.467 521.667 267.5 521.667 266.3C521.667 265.1 522.051 264.133 522.817 263.4C523.617 262.667 524.584 262.3 525.717 262.3C526.884 262.3 527.851 262.667 528.617 263.4C529.384 264.133 529.767 265.1 529.767 266.3C529.767 267.5 529.384 268.467 528.617 269.2C527.851 269.933 526.884 270.3 525.717 270.3ZM535.849 298V263H542.149V298H535.849ZM549.13 298V273.2H555.43V298H549.13ZM552.28 270.3C551.147 270.3 550.18 269.933 549.38 269.2C548.613 268.467 548.23 267.5 548.23 266.3C548.23 265.1 548.613 264.133 549.38 263.4C550.18 262.667 551.147 262.3 552.28 262.3C553.447 262.3 554.413 262.667 555.18 263.4C555.947 264.133 556.33 265.1 556.33 266.3C556.33 267.5 555.947 268.467 555.18 269.2C554.413 269.933 553.447 270.3 552.28 270.3ZM570.111 298.7C568.344 298.7 566.761 298.4 565.361 297.8C563.961 297.167 562.844 296.267 562.011 295.1C561.211 293.9 560.811 292.45 560.811 290.75C560.811 289.05 561.211 287.633 562.011 286.5C562.844 285.333 563.978 284.467 565.411 283.9C566.878 283.3 568.544 283 570.411 283H577.211V281.6C577.211 280.433 576.844 279.483 576.111 278.75C575.378 277.983 574.211 277.6 572.611 277.6C571.044 277.6 569.878 277.967 569.111 278.7C568.344 279.4 567.844 280.317 567.611 281.45L561.811 279.5C562.211 278.233 562.844 277.083 563.711 276.05C564.611 274.983 565.794 274.133 567.261 273.5C568.761 272.833 570.578 272.5 572.711 272.5C575.978 272.5 578.561 273.317 580.461 274.95C582.361 276.583 583.311 278.95 583.311 282.05V291.3C583.311 292.3 583.778 292.8 584.711 292.8H586.711V298H582.511C581.278 298 580.261 297.7 579.461 297.1C578.661 296.5 578.261 295.7 578.261 294.7V294.65H577.311C577.178 295.05 576.878 295.583 576.411 296.25C575.944 296.883 575.211 297.45 574.211 297.95C573.211 298.45 571.844 298.7 570.111 298.7ZM571.211 293.6C572.978 293.6 574.411 293.117 575.511 292.15C576.644 291.15 577.211 289.833 577.211 288.2V287.7H570.861C569.694 287.7 568.778 287.95 568.111 288.45C567.444 288.95 567.111 289.65 567.111 290.55C567.111 291.45 567.461 292.183 568.161 292.75C568.861 293.317 569.878 293.6 571.211 293.6ZM591.317 298V273.2H597.517V276H598.417C598.784 275 599.384 274.267 600.217 273.8C601.084 273.333 602.084 273.1 603.217 273.1H606.217V278.7H603.117C601.517 278.7 600.201 279.133 599.167 280C598.134 280.833 597.617 282.133 597.617 283.9V298H591.317ZM631.537 298.7C629.77 298.7 628.187 298.4 626.787 297.8C625.387 297.167 624.27 296.267 623.437 295.1C622.637 293.9 622.237 292.45 622.237 290.75C622.237 289.05 622.637 287.633 623.437 286.5C624.27 285.333 625.404 284.467 626.837 283.9C628.304 283.3 629.97 283 631.837 283H638.637V281.6C638.637 280.433 638.27 279.483 637.537 278.75C636.804 277.983 635.637 277.6 634.037 277.6C632.47 277.6 631.304 277.967 630.537 278.7C629.77 279.4 629.27 280.317 629.037 281.45L623.237 279.5C623.637 278.233 624.27 277.083 625.137 276.05C626.037 274.983 627.22 274.133 628.687 273.5C630.187 272.833 632.004 272.5 634.137 272.5C637.404 272.5 639.987 273.317 641.887 274.95C643.787 276.583 644.737 278.95 644.737 282.05V291.3C644.737 292.3 645.204 292.8 646.137 292.8H648.137V298H643.937C642.704 298 641.687 297.7 640.887 297.1C640.087 296.5 639.687 295.7 639.687 294.7V294.65H638.737C638.604 295.05 638.304 295.583 637.837 296.25C637.37 296.883 636.637 297.45 635.637 297.95C634.637 298.45 633.27 298.7 631.537 298.7ZM632.637 293.6C634.404 293.6 635.837 293.117 636.937 292.15C638.07 291.15 638.637 289.833 638.637 288.2V287.7H632.287C631.12 287.7 630.204 287.95 629.537 288.45C628.87 288.95 628.537 289.65 628.537 290.55C628.537 291.45 628.887 292.183 629.587 292.75C630.287 293.317 631.304 293.6 632.637 293.6ZM652.743 298V273.2H658.943V276.45H659.843C660.243 275.583 660.993 274.767 662.093 274C663.193 273.2 664.86 272.8 667.093 272.8C669.026 272.8 670.71 273.25 672.143 274.15C673.61 275.017 674.743 276.233 675.543 277.8C676.343 279.333 676.743 281.133 676.743 283.2V298H670.443V283.7C670.443 281.833 669.976 280.433 669.043 279.5C668.143 278.567 666.843 278.1 665.143 278.1C663.21 278.1 661.71 278.75 660.643 280.05C659.576 281.317 659.043 283.1 659.043 285.4V298H652.743ZM693.554 298.7C691.587 298.7 689.737 298.217 688.004 297.25C686.304 296.25 684.937 294.8 683.904 292.9C682.87 291 682.354 288.7 682.354 286V285.2C682.354 282.5 682.87 280.2 683.904 278.3C684.937 276.4 686.304 274.967 688.004 274C689.704 273 691.554 272.5 693.554 272.5C695.054 272.5 696.304 272.683 697.304 273.05C698.337 273.383 699.17 273.817 699.804 274.35C700.437 274.883 700.92 275.45 701.254 276.05H702.154V263H708.454V298H702.254V295H701.354C700.787 295.933 699.904 296.783 698.704 297.55C697.537 298.317 695.82 298.7 693.554 298.7ZM695.454 293.2C697.387 293.2 699.004 292.583 700.304 291.35C701.604 290.083 702.254 288.25 702.254 285.85V285.35C702.254 282.95 701.604 281.133 700.304 279.9C699.037 278.633 697.42 278 695.454 278C693.52 278 691.904 278.633 690.604 279.9C689.304 281.133 688.654 282.95 688.654 285.35V285.85C688.654 288.25 689.304 290.083 690.604 291.35C691.904 292.583 693.52 293.2 695.454 293.2ZM738.434 298.7C735.2 298.7 732.55 298 730.484 296.6C728.417 295.2 727.167 293.2 726.734 290.6L732.534 289.1C732.767 290.267 733.15 291.183 733.684 291.85C734.25 292.517 734.934 293 735.734 293.3C736.567 293.567 737.467 293.7 738.434 293.7C739.9 293.7 740.984 293.45 741.684 292.95C742.384 292.417 742.734 291.767 742.734 291C742.734 290.233 742.4 289.65 741.734 289.25C741.067 288.817 740 288.467 738.534 288.2L737.134 287.95C735.4 287.617 733.817 287.167 732.384 286.6C730.95 286 729.8 285.183 728.934 284.15C728.067 283.117 727.634 281.783 727.634 280.15C727.634 277.683 728.534 275.8 730.334 274.5C732.134 273.167 734.5 272.5 737.434 272.5C740.2 272.5 742.5 273.117 744.334 274.35C746.167 275.583 747.367 277.2 747.934 279.2L742.084 281C741.817 279.733 741.267 278.833 740.434 278.3C739.634 277.767 738.634 277.5 737.434 277.5C736.234 277.5 735.317 277.717 734.684 278.15C734.05 278.55 733.734 279.117 733.734 279.85C733.734 280.65 734.067 281.25 734.734 281.65C735.4 282.017 736.3 282.3 737.434 282.5L738.834 282.75C740.7 283.083 742.384 283.533 743.884 284.1C745.417 284.633 746.617 285.417 747.484 286.45C748.384 287.45 748.834 288.817 748.834 290.55C748.834 293.15 747.884 295.167 745.984 296.6C744.117 298 741.6 298.7 738.434 298.7ZM754.354 298V273.2H760.654V298H754.354ZM757.504 270.3C756.371 270.3 755.404 269.933 754.604 269.2C753.838 268.467 753.454 267.5 753.454 266.3C753.454 265.1 753.838 264.133 754.604 263.4C755.404 262.667 756.371 262.3 757.504 262.3C758.671 262.3 759.638 262.667 760.404 263.4C761.171 264.133 761.554 265.1 761.554 266.3C761.554 267.5 761.171 268.467 760.404 269.2C759.638 269.933 758.671 270.3 757.504 270.3ZM767.636 298V273.2H773.836V275.9H774.736C775.169 275.067 775.886 274.35 776.886 273.75C777.886 273.117 779.202 272.8 780.836 272.8C782.602 272.8 784.019 273.15 785.086 273.85C786.152 274.517 786.969 275.4 787.536 276.5H788.436C789.002 275.433 789.802 274.55 790.836 273.85C791.869 273.15 793.336 272.8 795.236 272.8C796.769 272.8 798.152 273.133 799.386 273.8C800.652 274.433 801.652 275.417 802.386 276.75C803.152 278.05 803.536 279.7 803.536 281.7V298H797.236V282.15C797.236 280.783 796.886 279.767 796.186 279.1C795.486 278.4 794.502 278.05 793.236 278.05C791.802 278.05 790.686 278.517 789.886 279.45C789.119 280.35 788.736 281.65 788.736 283.35V298H782.436V282.15C782.436 280.783 782.086 279.767 781.386 279.1C780.686 278.4 779.702 278.05 778.436 278.05C777.002 278.05 775.886 278.517 775.086 279.45C774.319 280.35 773.936 281.65 773.936 283.35V298H767.636ZM810.312 308V273.2H816.512V276.2H817.412C817.978 275.233 818.862 274.383 820.062 273.65C821.262 272.883 822.978 272.5 825.212 272.5C827.212 272.5 829.062 273 830.762 274C832.462 274.967 833.828 276.4 834.862 278.3C835.895 280.2 836.412 282.5 836.412 285.2V286C836.412 288.7 835.895 291 834.862 292.9C833.828 294.8 832.462 296.25 830.762 297.25C829.062 298.217 827.212 298.7 825.212 298.7C823.712 298.7 822.445 298.517 821.412 298.15C820.412 297.817 819.595 297.383 818.962 296.85C818.362 296.283 817.878 295.717 817.512 295.15H816.612V308H810.312ZM823.312 293.2C825.278 293.2 826.895 292.583 828.162 291.35C829.462 290.083 830.112 288.25 830.112 285.85V285.35C830.112 282.95 829.462 281.133 828.162 279.9C826.862 278.633 825.245 278 823.312 278C821.378 278 819.762 278.633 818.462 279.9C817.162 281.133 816.512 282.95 816.512 285.35V285.85C816.512 288.25 817.162 290.083 818.462 291.35C819.762 292.583 821.378 293.2 823.312 293.2ZM842.196 298V263H848.496V298H842.196ZM866.778 298.7C864.311 298.7 862.128 298.183 860.228 297.15C858.361 296.083 856.894 294.6 855.828 292.7C854.794 290.767 854.278 288.5 854.278 285.9V285.3C854.278 282.7 854.794 280.45 855.828 278.55C856.861 276.617 858.311 275.133 860.178 274.1C862.044 273.033 864.211 272.5 866.678 272.5C869.111 272.5 871.228 273.05 873.028 274.15C874.828 275.217 876.228 276.717 877.228 278.65C878.228 280.55 878.728 282.767 878.728 285.3V287.45H860.678C860.744 289.15 861.378 290.533 862.578 291.6C863.778 292.667 865.244 293.2 866.978 293.2C868.744 293.2 870.044 292.817 870.878 292.05C871.711 291.283 872.344 290.433 872.778 289.5L877.928 292.2C877.461 293.067 876.778 294.017 875.878 295.05C875.011 296.05 873.844 296.917 872.378 297.65C870.911 298.35 869.044 298.7 866.778 298.7ZM860.728 282.75H872.328C872.194 281.317 871.611 280.167 870.578 279.3C869.578 278.433 868.261 278 866.628 278C864.928 278 863.578 278.433 862.578 279.3C861.578 280.167 860.961 281.317 860.728 282.75ZM897.03 298V273.2H903.33V298H897.03ZM900.18 270.3C899.047 270.3 898.08 269.933 897.28 269.2C896.514 268.467 896.13 267.5 896.13 266.3C896.13 265.1 896.514 264.133 897.28 263.4C898.08 262.667 899.047 262.3 900.18 262.3C901.347 262.3 902.314 262.667 903.08 263.4C903.847 264.133 904.23 265.1 904.23 266.3C904.23 267.5 903.847 268.467 903.08 269.2C902.314 269.933 901.347 270.3 900.18 270.3ZM910.312 298V273.2H916.512V276.45H917.412C917.812 275.583 918.562 274.767 919.662 274C920.762 273.2 922.428 272.8 924.662 272.8C926.595 272.8 928.278 273.25 929.712 274.15C931.178 275.017 932.312 276.233 933.112 277.8C933.912 279.333 934.312 281.133 934.312 283.2V298H928.012V283.7C928.012 281.833 927.545 280.433 926.612 279.5C925.712 278.567 924.412 278.1 922.712 278.1C920.778 278.1 919.278 278.75 918.212 280.05C917.145 281.317 916.612 283.1 916.612 285.4V298H910.312ZM949.938 298C948.305 298 946.972 297.5 945.938 296.5C944.938 295.467 944.438 294.1 944.438 292.4V278.4H938.238V273.2H944.438V265.5H950.738V273.2H957.538V278.4H950.738V291.3C950.738 292.3 951.205 292.8 952.138 292.8H956.938V298H949.938ZM973.662 298.7C971.196 298.7 969.012 298.183 967.112 297.15C965.246 296.083 963.779 294.6 962.712 292.7C961.679 290.767 961.162 288.5 961.162 285.9V285.3C961.162 282.7 961.679 280.45 962.712 278.55C963.746 276.617 965.196 275.133 967.062 274.1C968.929 273.033 971.096 272.5 973.562 272.5C975.996 272.5 978.112 273.05 979.912 274.15C981.712 275.217 983.112 276.717 984.112 278.65C985.112 280.55 985.612 282.767 985.612 285.3V287.45H967.562C967.629 289.15 968.262 290.533 969.462 291.6C970.662 292.667 972.129 293.2 973.862 293.2C975.629 293.2 976.929 292.817 977.762 292.05C978.596 291.283 979.229 290.433 979.662 289.5L984.812 292.2C984.346 293.067 983.662 294.017 982.762 295.05C981.896 296.05 980.729 296.917 979.262 297.65C977.796 298.35 975.929 298.7 973.662 298.7ZM967.612 282.75H979.212C979.079 281.317 978.496 280.167 977.462 279.3C976.462 278.433 975.146 278 973.512 278C971.812 278 970.462 278.433 969.462 279.3C968.462 280.167 967.846 281.317 967.612 282.75ZM991.22 298V273.2H997.42V276H998.32C998.686 275 999.286 274.267 1000.12 273.8C1000.99 273.333 1001.99 273.1 1003.12 273.1H1006.12V278.7H1003.02C1001.42 278.7 1000.1 279.133 999.07 280C998.036 280.833 997.52 282.133 997.52 283.9V298H991.22ZM1015.14 298V278.4H1008.84V273.2H1015.14V268.6C1015.14 266.9 1015.64 265.55 1016.64 264.55C1017.68 263.517 1019.01 263 1020.64 263H1027.14V268.2H1022.84C1021.91 268.2 1021.44 268.7 1021.44 269.7V273.2H1027.94V278.4H1021.44V298H1015.14ZM1040.13 298.7C1038.36 298.7 1036.78 298.4 1035.38 297.8C1033.98 297.167 1032.86 296.267 1032.03 295.1C1031.23 293.9 1030.83 292.45 1030.83 290.75C1030.83 289.05 1031.23 287.633 1032.03 286.5C1032.86 285.333 1034 284.467 1035.43 283.9C1036.9 283.3 1038.56 283 1040.43 283H1047.23V281.6C1047.23 280.433 1046.86 279.483 1046.13 278.75C1045.4 277.983 1044.23 277.6 1042.63 277.6C1041.06 277.6 1039.9 277.967 1039.13 278.7C1038.36 279.4 1037.86 280.317 1037.63 281.45L1031.83 279.5C1032.23 278.233 1032.86 277.083 1033.73 276.05C1034.63 274.983 1035.81 274.133 1037.28 273.5C1038.78 272.833 1040.6 272.5 1042.73 272.5C1046 272.5 1048.58 273.317 1050.48 274.95C1052.38 276.583 1053.33 278.95 1053.33 282.05V291.3C1053.33 292.3 1053.8 292.8 1054.73 292.8H1056.73V298H1052.53C1051.3 298 1050.28 297.7 1049.48 297.1C1048.68 296.5 1048.28 295.7 1048.28 294.7V294.65H1047.33C1047.2 295.05 1046.9 295.583 1046.43 296.25C1045.96 296.883 1045.23 297.45 1044.23 297.95C1043.23 298.45 1041.86 298.7 1040.13 298.7ZM1041.23 293.6C1043 293.6 1044.43 293.117 1045.53 292.15C1046.66 291.15 1047.23 289.833 1047.23 288.2V287.7H1040.88C1039.71 287.7 1038.8 287.95 1038.13 288.45C1037.46 288.95 1037.13 289.65 1037.13 290.55C1037.13 291.45 1037.48 292.183 1038.18 292.75C1038.88 293.317 1039.9 293.6 1041.23 293.6ZM1072.5 298.7C1070.1 298.7 1067.92 298.2 1065.95 297.2C1064.02 296.2 1062.48 294.75 1061.35 292.85C1060.22 290.95 1059.65 288.65 1059.65 285.95V285.25C1059.65 282.55 1060.22 280.25 1061.35 278.35C1062.48 276.45 1064.02 275 1065.95 274C1067.92 273 1070.1 272.5 1072.5 272.5C1074.87 272.5 1076.9 272.917 1078.6 273.75C1080.3 274.583 1081.67 275.733 1082.7 277.2C1083.77 278.633 1084.47 280.267 1084.8 282.1L1078.7 283.4C1078.57 282.4 1078.27 281.5 1077.8 280.7C1077.33 279.9 1076.67 279.267 1075.8 278.8C1074.97 278.333 1073.92 278.1 1072.65 278.1C1071.38 278.1 1070.23 278.383 1069.2 278.95C1068.2 279.483 1067.4 280.3 1066.8 281.4C1066.23 282.467 1065.95 283.783 1065.95 285.35V285.85C1065.95 287.417 1066.23 288.75 1066.8 289.85C1067.4 290.917 1068.2 291.733 1069.2 292.3C1070.23 292.833 1071.38 293.1 1072.65 293.1C1074.55 293.1 1075.98 292.617 1076.95 291.65C1077.95 290.65 1078.58 289.35 1078.85 287.75L1084.95 289.2C1084.52 290.967 1083.77 292.583 1082.7 294.05C1081.67 295.483 1080.3 296.617 1078.6 297.45C1076.9 298.283 1074.87 298.7 1072.5 298.7ZM1101.45 298.7C1098.98 298.7 1096.8 298.183 1094.9 297.15C1093.03 296.083 1091.56 294.6 1090.5 292.7C1089.46 290.767 1088.95 288.5 1088.95 285.9V285.3C1088.95 282.7 1089.46 280.45 1090.5 278.55C1091.53 276.617 1092.98 275.133 1094.85 274.1C1096.71 273.033 1098.88 272.5 1101.35 272.5C1103.78 272.5 1105.9 273.05 1107.7 274.15C1109.5 275.217 1110.9 276.717 1111.9 278.65C1112.9 280.55 1113.4 282.767 1113.4 285.3V287.45H1095.35C1095.41 289.15 1096.05 290.533 1097.25 291.6C1098.45 292.667 1099.91 293.2 1101.65 293.2C1103.41 293.2 1104.71 292.817 1105.55 292.05C1106.38 291.283 1107.01 290.433 1107.45 289.5L1112.6 292.2C1112.13 293.067 1111.45 294.017 1110.55 295.05C1109.68 296.05 1108.51 296.917 1107.05 297.65C1105.58 298.35 1103.71 298.7 1101.45 298.7ZM1095.4 282.75H1107C1106.86 281.317 1106.28 280.167 1105.25 279.3C1104.25 278.433 1102.93 278 1101.3 278C1099.6 278 1098.25 278.433 1097.25 279.3C1096.25 280.167 1095.63 281.317 1095.4 282.75Z" fill="black"/>
<path d="M489.938 236L485.338 201H491.888L495.288 231.4H496.188L500.588 201H511.988L516.388 231.4H517.288L520.688 201H527.238L522.638 236H511.238L506.738 204.9H505.838L501.338 236H489.938ZM543.267 236.7C540.8 236.7 538.617 236.183 536.717 235.15C534.85 234.083 533.383 232.6 532.317 230.7C531.283 228.767 530.767 226.5 530.767 223.9V223.3C530.767 220.7 531.283 218.45 532.317 216.55C533.35 214.617 534.8 213.133 536.667 212.1C538.533 211.033 540.7 210.5 543.167 210.5C545.6 210.5 547.717 211.05 549.517 212.15C551.317 213.217 552.717 214.717 553.717 216.65C554.717 218.55 555.217 220.767 555.217 223.3V225.45H537.167C537.233 227.15 537.867 228.533 539.067 229.6C540.267 230.667 541.733 231.2 543.467 231.2C545.233 231.2 546.533 230.817 547.367 230.05C548.2 229.283 548.833 228.433 549.267 227.5L554.417 230.2C553.95 231.067 553.267 232.017 552.367 233.05C551.5 234.05 550.333 234.917 548.867 235.65C547.4 236.35 545.533 236.7 543.267 236.7ZM537.217 220.75H548.817C548.683 219.317 548.1 218.167 547.067 217.3C546.067 216.433 544.75 216 543.117 216C541.417 216 540.067 216.433 539.067 217.3C538.067 218.167 537.45 219.317 537.217 220.75ZM575.724 236.7C573.491 236.7 571.774 236.317 570.574 235.55C569.374 234.783 568.491 233.933 567.924 233H567.024V236H560.824V201H567.124V214.05H568.024C568.391 213.45 568.874 212.883 569.474 212.35C570.108 211.817 570.924 211.383 571.924 211.05C572.958 210.683 574.224 210.5 575.724 210.5C577.724 210.5 579.574 211 581.274 212C582.974 212.967 584.341 214.4 585.374 216.3C586.408 218.2 586.924 220.5 586.924 223.2V224C586.924 226.7 586.408 229 585.374 230.9C584.341 232.8 582.974 234.25 581.274 235.25C579.574 236.217 577.724 236.7 575.724 236.7ZM573.824 231.2C575.758 231.2 577.374 230.583 578.674 229.35C579.974 228.083 580.624 226.25 580.624 223.85V223.35C580.624 220.95 579.974 219.133 578.674 217.9C577.408 216.633 575.791 216 573.824 216C571.891 216 570.274 216.633 568.974 217.9C567.674 219.133 567.024 220.95 567.024 223.35V223.85C567.024 226.25 567.674 228.083 568.974 229.35C570.274 230.583 571.891 231.2 573.824 231.2ZM591.309 236V231.8C591.309 229.367 591.709 227.35 592.509 225.75C593.309 224.117 594.459 222.783 595.959 221.75C597.492 220.683 599.359 219.817 601.559 219.15L604.909 218.1C606.142 217.7 607.176 217.217 608.009 216.65C608.842 216.05 609.476 215.333 609.909 214.5C610.376 213.667 610.609 212.717 610.609 211.65V211.45C610.609 209.783 610.042 208.467 608.909 207.5C607.776 206.5 606.226 206 604.259 206C602.326 206 600.759 206.533 599.559 207.6C598.392 208.633 597.809 210.133 597.809 212.1V213H591.409V212.2C591.409 209.667 591.976 207.517 593.109 205.75C594.242 203.983 595.776 202.633 597.709 201.7C599.676 200.767 601.859 200.3 604.259 200.3C606.659 200.3 608.826 200.767 610.759 201.7C612.692 202.6 614.209 203.883 615.309 205.55C616.442 207.183 617.009 209.117 617.009 211.35V211.85C617.009 214.083 616.542 215.983 615.609 217.55C614.709 219.083 613.476 220.35 611.909 221.35C610.342 222.317 608.559 223.117 606.559 223.75L603.359 224.75C601.926 225.183 600.809 225.667 600.009 226.2C599.209 226.7 598.642 227.267 598.309 227.9C598.009 228.5 597.859 229.233 597.859 230.1V230.3H616.709V236H591.309ZM702.926 236L698.326 201H704.876L708.276 231.4H709.176L713.576 201H724.976L729.376 231.4H730.276L733.676 201H740.226L735.626 236H724.226L719.726 204.9H718.826L714.326 236H702.926ZM756.255 236.7C753.788 236.7 751.605 236.183 749.705 235.15C747.838 234.083 746.372 232.6 745.305 230.7C744.272 228.767 743.755 226.5 743.755 223.9V223.3C743.755 220.7 744.272 218.45 745.305 216.55C746.338 214.617 747.788 213.133 749.655 212.1C751.522 211.033 753.688 210.5 756.155 210.5C758.588 210.5 760.705 211.05 762.505 212.15C764.305 213.217 765.705 214.717 766.705 216.65C767.705 218.55 768.205 220.767 768.205 223.3V225.45H750.155C750.222 227.15 750.855 228.533 752.055 229.6C753.255 230.667 754.722 231.2 756.455 231.2C758.222 231.2 759.522 230.817 760.355 230.05C761.188 229.283 761.822 228.433 762.255 227.5L767.405 230.2C766.938 231.067 766.255 232.017 765.355 233.05C764.488 234.05 763.322 234.917 761.855 235.65C760.388 236.35 758.522 236.7 756.255 236.7ZM750.205 220.75H761.805C761.672 219.317 761.088 218.167 760.055 217.3C759.055 216.433 757.738 216 756.105 216C754.405 216 753.055 216.433 752.055 217.3C751.055 218.167 750.438 219.317 750.205 220.75ZM788.713 236.7C786.479 236.7 784.763 236.317 783.563 235.55C782.363 234.783 781.479 233.933 780.913 233H780.013V236H773.813V201H780.113V214.05H781.013C781.379 213.45 781.863 212.883 782.463 212.35C783.096 211.817 783.913 211.383 784.913 211.05C785.946 210.683 787.213 210.5 788.713 210.5C790.713 210.5 792.563 211 794.263 212C795.963 212.967 797.329 214.4 798.363 216.3C799.396 218.2 799.913 220.5 799.913 223.2V224C799.913 226.7 799.396 229 798.363 230.9C797.329 232.8 795.963 234.25 794.263 235.25C792.563 236.217 790.713 236.7 788.713 236.7ZM786.813 231.2C788.746 231.2 790.363 230.583 791.663 229.35C792.963 228.083 793.613 226.25 793.613 223.85V223.35C793.613 220.95 792.963 219.133 791.663 217.9C790.396 216.633 788.779 216 786.813 216C784.879 216 783.263 216.633 781.963 217.9C780.663 219.133 780.013 220.95 780.013 223.35V223.85C780.013 226.25 780.663 228.083 781.963 229.35C783.263 230.583 784.879 231.2 786.813 231.2ZM817.397 236.7C814.764 236.7 812.431 236.233 810.397 235.3C808.364 234.367 806.764 233.033 805.597 231.3C804.464 229.533 803.897 227.45 803.897 225.05V224.15H810.297V224.85C810.297 226.717 810.947 228.217 812.247 229.35C813.547 230.45 815.264 231 817.397 231C819.564 231 821.231 230.483 822.397 229.45C823.597 228.417 824.197 227.117 824.197 225.55V225.05C824.197 223.983 823.931 223.117 823.397 222.45C822.864 221.783 822.147 221.3 821.247 221C820.347 220.667 819.331 220.5 818.197 220.5H811.197V213.5L822.497 207.5V206.7H804.797V201H829.597V209.5L819.047 215.1V215.9H820.897C822.464 215.9 823.981 216.217 825.447 216.85C826.947 217.483 828.181 218.467 829.147 219.8C830.114 221.1 830.597 222.8 830.597 224.9V225.5C830.597 227.767 830.047 229.75 828.947 231.45C827.847 233.117 826.297 234.417 824.297 235.35C822.331 236.25 820.031 236.7 817.397 236.7Z" fill="#2375EF"/>
</g>
<defs>
<clipPath id="clip0_6_682">
<rect width="1500" height="500" fill="white"/>
</clipPath>
</defs>
</svg>
