<svg width="800" height="418" viewBox="0 0 800 418" fill="none" xmlns="http://www.w3.org/2000/svg">
<g clip-path="url(#clip0_6_229)">
<rect width="800" height="418" fill="#EEEEEE"/>
<rect x="313" y="83" width="72.0355" height="40.535" rx="20.2675" fill="#2375EF"/>
<rect x="346.258" y="84.3371" width="37.4407" height="37.8607" rx="18.7203" fill="#F7F7FA"/>
<path d="M414.504 111.288C412.824 111.288 411.352 110.92 410.088 110.184C408.84 109.448 407.856 108.432 407.136 107.136C406.432 105.824 406.08 104.312 406.08 102.6C406.08 100.888 406.432 99.384 407.136 98.088C407.856 96.776 408.84 95.752 410.088 95.016C411.352 94.28 412.824 93.912 414.504 93.912C416.168 93.912 417.632 94.28 418.896 95.016C420.16 95.752 421.144 96.776 421.848 98.088C422.552 99.384 422.904 100.888 422.904 102.6C422.904 104.312 422.552 105.824 421.848 107.136C421.144 108.432 420.16 109.448 418.896 110.184C417.632 110.92 416.168 111.288 414.504 111.288ZM414.504 108.528C416.104 108.528 417.376 108 418.32 106.944C419.28 105.888 419.76 104.44 419.76 102.6C419.76 100.76 419.28 99.312 418.32 98.256C417.376 97.2 416.104 96.672 414.504 96.672C412.904 96.672 411.624 97.2 410.664 98.256C409.704 99.312 409.224 100.76 409.224 102.6C409.224 104.44 409.704 105.888 410.664 106.944C411.624 108 412.904 108.528 414.504 108.528ZM430.848 111C429.6 111 428.6 110.696 427.848 110.088C427.096 109.48 426.72 108.4 426.72 106.848V101.664H424.68V99.096H426.72L427.08 95.904H429.792V99.096H433.008V101.664H429.792V106.872C429.792 107.448 429.912 107.848 430.152 108.072C430.408 108.28 430.84 108.384 431.448 108.384H432.936V111H430.848ZM435.646 111V93.72H438.718V100.92C439.118 100.264 439.654 99.752 440.326 99.384C441.014 99 441.798 98.808 442.678 98.808C444.15 98.808 445.286 99.272 446.086 100.2C446.902 101.128 447.31 102.488 447.31 104.28V111H444.262V104.568C444.262 103.544 444.054 102.76 443.638 102.216C443.238 101.672 442.598 101.4 441.718 101.4C440.854 101.4 440.134 101.704 439.558 102.312C438.998 102.92 438.718 103.768 438.718 104.856V111H435.646ZM456.032 111.288C454.832 111.288 453.768 111.032 452.84 110.52C451.912 110.008 451.184 109.288 450.656 108.36C450.128 107.432 449.864 106.36 449.864 105.144C449.864 103.912 450.12 102.816 450.632 101.856C451.16 100.896 451.88 100.152 452.792 99.624C453.72 99.08 454.808 98.808 456.056 98.808C457.224 98.808 458.256 99.064 459.152 99.576C460.048 100.088 460.744 100.792 461.24 101.688C461.752 102.568 462.008 103.552 462.008 104.64C462.008 104.816 462 105 461.984 105.192C461.984 105.384 461.976 105.584 461.96 105.792H452.912C452.976 106.72 453.296 107.448 453.872 107.976C454.464 108.504 455.176 108.768 456.008 108.768C456.632 108.768 457.152 108.632 457.568 108.36C458 108.072 458.32 107.704 458.528 107.256H461.648C461.424 108.008 461.048 108.696 460.52 109.32C460.008 109.928 459.368 110.408 458.6 110.76C457.848 111.112 456.992 111.288 456.032 111.288ZM456.056 101.304C455.304 101.304 454.64 101.52 454.064 101.952C453.488 102.368 453.12 103.008 452.96 103.872H458.888C458.84 103.088 458.552 102.464 458.024 102C457.496 101.536 456.84 101.304 456.056 101.304ZM464.591 111V99.096H467.303L467.543 101.112C467.911 100.408 468.439 99.848 469.127 99.432C469.831 99.016 470.655 98.808 471.599 98.808C473.071 98.808 474.215 99.272 475.031 100.2C475.847 101.128 476.255 102.488 476.255 104.28V111H473.183V104.568C473.183 103.544 472.975 102.76 472.559 102.216C472.143 101.672 471.495 101.4 470.615 101.4C469.751 101.4 469.039 101.704 468.479 102.312C467.935 102.92 467.663 103.768 467.663 104.856V111H464.591ZM484.497 111C483.249 111 482.249 110.696 481.497 110.088C480.745 109.48 480.369 108.4 480.369 106.848V101.664H478.329V99.096H480.369L480.729 95.904H483.441V99.096H486.657V101.664H483.441V106.872C483.441 107.448 483.561 107.848 483.801 108.072C484.057 108.28 484.489 108.384 485.097 108.384H486.585V111H484.497Z" fill="#2375EF"/>
<circle cx="577.304" cy="419.725" r="8" transform="rotate(-45 577.304 419.725)" fill="#D3E3FC"/>
<circle cx="605.588" cy="391.441" r="8" transform="rotate(-45 605.588 391.441)" fill="#D3E3FC"/>
<circle cx="633.872" cy="363.156" r="8" transform="rotate(-45 633.872 363.156)" fill="#D3E3FC"/>
<circle cx="633.872" cy="419.725" r="8" transform="rotate(-45 633.872 419.725)" fill="#D3E3FC"/>
<circle cx="662.156" cy="391.441" r="8" transform="rotate(-45 662.156 391.441)" fill="#D3E3FC"/>
<circle cx="690.441" cy="419.725" r="8" transform="rotate(-45 690.441 419.725)" fill="#D3E3FC"/>
<circle cx="662.156" cy="334.872" r="8" transform="rotate(-45 662.156 334.872)" fill="#D3E3FC"/>
<circle cx="690.441" cy="306.588" r="8" transform="rotate(-45 690.441 306.588)" fill="#D3E3FC"/>
<circle cx="718.725" cy="278.304" r="8" transform="rotate(-45 718.725 278.304)" fill="#D3E3FC"/>
<circle cx="747.009" cy="250.019" r="8" transform="rotate(-45 747.009 250.019)" fill="#D3E3FC"/>
<circle cx="775.293" cy="221.735" r="8" transform="rotate(-45 775.293 221.735)" fill="#D3E3FC"/>
<circle cx="803.578" cy="193.451" r="8" transform="rotate(-45 803.578 193.451)" fill="#D3E3FC"/>
<circle cx="690.441" cy="363.156" r="8" transform="rotate(-45 690.441 363.156)" fill="#D3E3FC"/>
<circle cx="718.725" cy="334.872" r="8" transform="rotate(-45 718.725 334.872)" fill="#D3E3FC"/>
<circle cx="747.009" cy="306.588" r="8" transform="rotate(-45 747.009 306.588)" fill="#D3E3FC"/>
<circle cx="775.293" cy="278.304" r="8" transform="rotate(-45 775.293 278.304)" fill="#D3E3FC"/>
<circle cx="803.578" cy="250.019" r="8" transform="rotate(-45 803.578 250.019)" fill="#D3E3FC"/>
<circle cx="718.725" cy="391.441" r="8" transform="rotate(-45 718.725 391.441)" fill="#D3E3FC"/>
<circle cx="747.009" cy="363.156" r="8" transform="rotate(-45 747.009 363.156)" fill="#D3E3FC"/>
<circle cx="775.294" cy="334.872" r="8" transform="rotate(-45 775.294 334.872)" fill="#D3E3FC"/>
<circle cx="803.578" cy="306.588" r="8" transform="rotate(-45 803.578 306.588)" fill="#D3E3FC"/>
<circle cx="747.009" cy="419.725" r="8" transform="rotate(-45 747.009 419.725)" fill="#D3E3FC"/>
<circle cx="775.293" cy="391.441" r="8" transform="rotate(-45 775.293 391.441)" fill="#D3E3FC"/>
<circle cx="803.578" cy="363.156" r="8" transform="rotate(-45 803.578 363.156)" fill="#D3E3FC"/>
<circle cx="803.578" cy="419.725" r="8" transform="rotate(-45 803.578 419.725)" fill="#D3E3FC"/>
<circle cx="16.862" cy="92.1463" r="8" transform="rotate(-45 16.862 92.1463)" fill="#D3E3FC"/>
<circle cx="16.862" cy="148.715" r="8" transform="rotate(-45 16.862 148.715)" fill="#D3E3FC"/>
<circle cx="45.1462" cy="120.431" r="8" transform="rotate(-45 45.1462 120.431)" fill="#D3E3FC"/>
<circle cx="16.862" cy="205.283" r="8" transform="rotate(-45 16.862 205.283)" fill="#D3E3FC"/>
<circle cx="45.1462" cy="176.999" r="8" transform="rotate(-45 45.1462 176.999)" fill="#D3E3FC"/>
<circle cx="73.4306" cy="148.715" r="8" transform="rotate(-45 73.4306 148.715)" fill="#D3E3FC"/>
<circle cx="16.862" cy="35.5778" r="8" transform="rotate(-45 16.862 35.5778)" fill="#D3E3FC"/>
<circle cx="45.1462" cy="7.2935" r="8" transform="rotate(-45 45.1462 7.2935)" fill="#D3E3FC"/>
<circle cx="45.1462" cy="63.862" r="8" transform="rotate(-45 45.1462 63.862)" fill="#D3E3FC"/>
<circle cx="73.4304" cy="35.5778" r="8" transform="rotate(-45 73.4304 35.5778)" fill="#D3E3FC"/>
<circle cx="101.715" cy="7.2935" r="8" transform="rotate(-45 101.715 7.2935)" fill="#D3E3FC"/>
<circle cx="73.4304" cy="92.1463" r="8" transform="rotate(-45 73.4304 92.1463)" fill="#D3E3FC"/>
<circle cx="101.715" cy="63.862" r="8" transform="rotate(-45 101.715 63.862)" fill="#D3E3FC"/>
<circle cx="129.999" cy="35.5778" r="8" transform="rotate(-45 129.999 35.5778)" fill="#D3E3FC"/>
<circle cx="158.283" cy="7.29349" r="8" transform="rotate(-45 158.283 7.29349)" fill="#D3E3FC"/>
<circle cx="101.715" cy="120.431" r="8" transform="rotate(-45 101.715 120.431)" fill="#D3E3FC"/>
<circle cx="129.999" cy="92.1463" r="8" transform="rotate(-45 129.999 92.1463)" fill="#D3E3FC"/>
<circle cx="158.283" cy="63.862" r="8" transform="rotate(-45 158.283 63.862)" fill="#D3E3FC"/>
<circle cx="186.568" cy="35.5778" r="8" transform="rotate(-45 186.568 35.5778)" fill="#D3E3FC"/>
<circle cx="214.852" cy="7.29349" r="8" transform="rotate(-45 214.852 7.29349)" fill="#D3E3FC"/>
<path d="M211.625 208V184.2H219.955L224.069 204.94H224.681L228.795 184.2H237.125V208H232.773V187.498H232.161L228.081 208H220.669L216.589 187.498H215.977V208H211.625ZM249.427 208.476C247.75 208.476 246.265 208.125 244.973 207.422C243.704 206.697 242.707 205.688 241.981 204.396C241.279 203.081 240.927 201.54 240.927 199.772V199.364C240.927 197.596 241.279 196.066 241.981 194.774C242.684 193.459 243.67 192.451 244.939 191.748C246.209 191.023 247.682 190.66 249.359 190.66C251.014 190.66 252.453 191.034 253.677 191.782C254.901 192.507 255.853 193.527 256.533 194.842C257.213 196.134 257.553 197.641 257.553 199.364V200.826H245.279C245.325 201.982 245.755 202.923 246.571 203.648C247.387 204.373 248.385 204.736 249.563 204.736C250.765 204.736 251.649 204.475 252.215 203.954C252.782 203.433 253.213 202.855 253.507 202.22L257.009 204.056C256.692 204.645 256.227 205.291 255.615 205.994C255.026 206.674 254.233 207.263 253.235 207.762C252.238 208.238 250.969 208.476 249.427 208.476ZM245.313 197.63H253.201C253.111 196.655 252.714 195.873 252.011 195.284C251.331 194.695 250.436 194.4 249.325 194.4C248.169 194.4 247.251 194.695 246.571 195.284C245.891 195.873 245.472 196.655 245.313 197.63ZM261.366 208V191.136H265.582V193.04H266.194C266.444 192.36 266.852 191.861 267.418 191.544C268.008 191.227 268.688 191.068 269.458 191.068H271.498V194.876H269.39C268.302 194.876 267.407 195.171 266.704 195.76C266.002 196.327 265.65 197.211 265.65 198.412V208H261.366ZM273.433 199.636V199.092C273.433 197.324 273.784 195.817 274.487 194.57C275.19 193.301 276.119 192.337 277.275 191.68C278.454 191 279.734 190.66 281.117 190.66C282.658 190.66 283.826 190.932 284.619 191.476C285.412 192.02 285.99 192.587 286.353 193.176H286.965V191.136H291.181V210.992C291.181 212.148 290.841 213.066 290.161 213.746C289.481 214.449 288.574 214.8 287.441 214.8H276.153V211.06H285.945C286.58 211.06 286.897 210.72 286.897 210.04V205.654H286.285C286.058 206.017 285.741 206.391 285.333 206.776C284.925 207.139 284.381 207.445 283.701 207.694C283.021 207.943 282.16 208.068 281.117 208.068C279.734 208.068 278.454 207.739 277.275 207.082C276.119 206.402 275.19 205.439 274.487 204.192C273.784 202.923 273.433 201.404 273.433 199.636ZM282.341 204.328C283.656 204.328 284.755 203.909 285.639 203.07C286.523 202.231 286.965 201.053 286.965 199.534V199.194C286.965 197.653 286.523 196.474 285.639 195.658C284.778 194.819 283.678 194.4 282.341 194.4C281.026 194.4 279.927 194.819 279.043 195.658C278.159 196.474 277.717 197.653 277.717 199.194V199.534C277.717 201.053 278.159 202.231 279.043 203.07C279.927 203.909 281.026 204.328 282.341 204.328ZM295.931 208V191.136H300.215V208H295.931ZM298.073 189.164C297.302 189.164 296.645 188.915 296.101 188.416C295.579 187.917 295.319 187.26 295.319 186.444C295.319 185.628 295.579 184.971 296.101 184.472C296.645 183.973 297.302 183.724 298.073 183.724C298.866 183.724 299.523 183.973 300.045 184.472C300.566 184.971 300.827 185.628 300.827 186.444C300.827 187.26 300.566 187.917 300.045 188.416C299.523 188.915 298.866 189.164 298.073 189.164ZM304.962 208V191.136H309.178V193.346H309.79C310.062 192.757 310.572 192.201 311.32 191.68C312.068 191.136 313.201 190.864 314.72 190.864C316.035 190.864 317.179 191.17 318.154 191.782C319.151 192.371 319.922 193.199 320.466 194.264C321.01 195.307 321.282 196.531 321.282 197.936V208H316.998V198.276C316.998 197.007 316.681 196.055 316.046 195.42C315.434 194.785 314.55 194.468 313.394 194.468C312.079 194.468 311.059 194.91 310.334 195.794C309.609 196.655 309.246 197.868 309.246 199.432V208H304.962ZM325.097 199.636V199.092C325.097 197.324 325.449 195.817 326.151 194.57C326.854 193.301 327.783 192.337 328.939 191.68C330.118 191 331.399 190.66 332.781 190.66C334.323 190.66 335.49 190.932 336.283 191.476C337.077 192.02 337.655 192.587 338.017 193.176H338.629V191.136H342.845V210.992C342.845 212.148 342.505 213.066 341.825 213.746C341.145 214.449 340.239 214.8 339.105 214.8H327.817V211.06H337.609C338.244 211.06 338.561 210.72 338.561 210.04V205.654H337.949C337.723 206.017 337.405 206.391 336.997 206.776C336.589 207.139 336.045 207.445 335.365 207.694C334.685 207.943 333.824 208.068 332.781 208.068C331.399 208.068 330.118 207.739 328.939 207.082C327.783 206.402 326.854 205.439 326.151 204.192C325.449 202.923 325.097 201.404 325.097 199.636ZM334.005 204.328C335.32 204.328 336.419 203.909 337.303 203.07C338.187 202.231 338.629 201.053 338.629 199.534V199.194C338.629 197.653 338.187 196.474 337.303 195.658C336.442 194.819 335.343 194.4 334.005 194.4C332.691 194.4 331.591 194.819 330.707 195.658C329.823 196.474 329.381 197.653 329.381 199.194V199.534C329.381 201.053 329.823 202.231 330.707 203.07C331.591 203.909 332.691 204.328 334.005 204.328ZM357.796 208L354.668 184.2H359.122L361.434 204.872H362.046L365.038 184.2H372.79L375.782 204.872H376.394L378.706 184.2H383.16L380.032 208H372.28L369.22 186.852H368.608L365.548 208H357.796ZM394.06 208.476C392.383 208.476 390.898 208.125 389.606 207.422C388.337 206.697 387.339 205.688 386.614 204.396C385.911 203.081 385.56 201.54 385.56 199.772V199.364C385.56 197.596 385.911 196.066 386.614 194.774C387.317 193.459 388.303 192.451 389.572 191.748C390.841 191.023 392.315 190.66 393.992 190.66C395.647 190.66 397.086 191.034 398.31 191.782C399.534 192.507 400.486 193.527 401.166 194.842C401.846 196.134 402.186 197.641 402.186 199.364V200.826H389.912C389.957 201.982 390.388 202.923 391.204 203.648C392.02 204.373 393.017 204.736 394.196 204.736C395.397 204.736 396.281 204.475 396.848 203.954C397.415 203.433 397.845 202.855 398.14 202.22L401.642 204.056C401.325 204.645 400.86 205.291 400.248 205.994C399.659 206.674 398.865 207.263 397.868 207.762C396.871 208.238 395.601 208.476 394.06 208.476ZM389.946 197.63H397.834C397.743 196.655 397.347 195.873 396.644 195.284C395.964 194.695 395.069 194.4 393.958 194.4C392.802 194.4 391.884 194.695 391.204 195.284C390.524 195.873 390.105 196.655 389.946 197.63ZM416.131 208.476C414.612 208.476 413.445 208.215 412.629 207.694C411.813 207.173 411.212 206.595 410.827 205.96H410.215V208H405.999V184.2H410.283V193.074H410.895C411.144 192.666 411.473 192.281 411.881 191.918C412.312 191.555 412.867 191.261 413.547 191.034C414.25 190.785 415.111 190.66 416.131 190.66C417.491 190.66 418.749 191 419.905 191.68C421.061 192.337 421.99 193.312 422.693 194.604C423.396 195.896 423.747 197.46 423.747 199.296V199.84C423.747 201.676 423.396 203.24 422.693 204.532C421.99 205.824 421.061 206.81 419.905 207.49C418.749 208.147 417.491 208.476 416.131 208.476ZM414.839 204.736C416.154 204.736 417.253 204.317 418.137 203.478C419.021 202.617 419.463 201.37 419.463 199.738V199.398C419.463 197.766 419.021 196.531 418.137 195.692C417.276 194.831 416.176 194.4 414.839 194.4C413.524 194.4 412.425 194.831 411.541 195.692C410.657 196.531 410.215 197.766 410.215 199.398V199.738C410.215 201.37 410.657 202.617 411.541 203.478C412.425 204.317 413.524 204.736 414.839 204.736ZM426.729 208V205.144C426.729 203.489 427.001 202.118 427.545 201.03C428.089 199.919 428.871 199.013 429.891 198.31C430.933 197.585 432.203 196.995 433.699 196.542L435.977 195.828C436.815 195.556 437.518 195.227 438.085 194.842C438.651 194.434 439.082 193.947 439.377 193.38C439.694 192.813 439.853 192.167 439.853 191.442V191.306C439.853 190.173 439.467 189.277 438.697 188.62C437.926 187.94 436.872 187.6 435.535 187.6C434.22 187.6 433.155 187.963 432.339 188.688C431.545 189.391 431.149 190.411 431.149 191.748V192.36H426.797V191.816C426.797 190.093 427.182 188.631 427.953 187.43C428.723 186.229 429.766 185.311 431.081 184.676C432.418 184.041 433.903 183.724 435.535 183.724C437.167 183.724 438.64 184.041 439.955 184.676C441.269 185.288 442.301 186.161 443.049 187.294C443.819 188.405 444.205 189.719 444.205 191.238V191.578C444.205 193.097 443.887 194.389 443.253 195.454C442.641 196.497 441.802 197.358 440.737 198.038C439.671 198.695 438.459 199.239 437.099 199.67L434.923 200.35C433.948 200.645 433.189 200.973 432.645 201.336C432.101 201.676 431.715 202.061 431.489 202.492C431.285 202.9 431.183 203.399 431.183 203.988V204.124H444.001V208H426.729ZM462.961 208C461.85 208 460.944 207.66 460.241 206.98C459.561 206.277 459.221 205.348 459.221 204.192V194.672H455.005V191.136H459.221V185.9H463.505V191.136H468.129V194.672H463.505V203.444C463.505 204.124 463.822 204.464 464.457 204.464H467.721V208H462.961ZM479.433 208.476C477.756 208.476 476.249 208.136 474.911 207.456C473.574 206.776 472.52 205.79 471.749 204.498C470.979 203.206 470.593 201.653 470.593 199.84V199.296C470.593 197.483 470.979 195.93 471.749 194.638C472.52 193.346 473.574 192.36 474.911 191.68C476.249 191 477.756 190.66 479.433 190.66C481.111 190.66 482.618 191 483.955 191.68C485.293 192.36 486.347 193.346 487.117 194.638C487.888 195.93 488.273 197.483 488.273 199.296V199.84C488.273 201.653 487.888 203.206 487.117 204.498C486.347 205.79 485.293 206.776 483.955 207.456C482.618 208.136 481.111 208.476 479.433 208.476ZM479.433 204.668C480.748 204.668 481.836 204.249 482.697 203.41C483.559 202.549 483.989 201.325 483.989 199.738V199.398C483.989 197.811 483.559 196.599 482.697 195.76C481.859 194.899 480.771 194.468 479.433 194.468C478.119 194.468 477.031 194.899 476.169 195.76C475.308 196.599 474.877 197.811 474.877 199.398V199.738C474.877 201.325 475.308 202.549 476.169 203.41C477.031 204.249 478.119 204.668 479.433 204.668ZM502.429 208L499.301 184.2H503.755L506.067 204.872H506.679L509.671 184.2H517.423L520.415 204.872H521.027L523.339 184.2H527.793L524.665 208H516.913L513.853 186.852H513.241L510.181 208H502.429ZM538.693 208.476C537.016 208.476 535.531 208.125 534.239 207.422C532.97 206.697 531.972 205.688 531.247 204.396C530.544 203.081 530.193 201.54 530.193 199.772V199.364C530.193 197.596 530.544 196.066 531.247 194.774C531.95 193.459 532.936 192.451 534.205 191.748C535.474 191.023 536.948 190.66 538.625 190.66C540.28 190.66 541.719 191.034 542.943 191.782C544.167 192.507 545.119 193.527 545.799 194.842C546.479 196.134 546.819 197.641 546.819 199.364V200.826H534.545C534.59 201.982 535.021 202.923 535.837 203.648C536.653 204.373 537.65 204.736 538.829 204.736C540.03 204.736 540.914 204.475 541.481 203.954C542.048 203.433 542.478 202.855 542.773 202.22L546.275 204.056C545.958 204.645 545.493 205.291 544.881 205.994C544.292 206.674 543.498 207.263 542.501 207.762C541.504 208.238 540.234 208.476 538.693 208.476ZM534.579 197.63H542.467C542.376 196.655 541.98 195.873 541.277 195.284C540.597 194.695 539.702 194.4 538.591 194.4C537.435 194.4 536.517 194.695 535.837 195.284C535.157 195.873 534.738 196.655 534.579 197.63ZM560.764 208.476C559.245 208.476 558.078 208.215 557.262 207.694C556.446 207.173 555.845 206.595 555.46 205.96H554.848V208H550.632V184.2H554.916V193.074H555.528C555.777 192.666 556.106 192.281 556.514 191.918C556.945 191.555 557.5 191.261 558.18 191.034C558.883 190.785 559.744 190.66 560.764 190.66C562.124 190.66 563.382 191 564.538 191.68C565.694 192.337 566.623 193.312 567.326 194.604C568.029 195.896 568.38 197.46 568.38 199.296V199.84C568.38 201.676 568.029 203.24 567.326 204.532C566.623 205.824 565.694 206.81 564.538 207.49C563.382 208.147 562.124 208.476 560.764 208.476ZM559.472 204.736C560.787 204.736 561.886 204.317 562.77 203.478C563.654 202.617 564.096 201.37 564.096 199.738V199.398C564.096 197.766 563.654 196.531 562.77 195.692C561.909 194.831 560.809 194.4 559.472 194.4C558.157 194.4 557.058 194.831 556.174 195.692C555.29 196.531 554.848 197.766 554.848 199.398V199.738C554.848 201.37 555.29 202.617 556.174 203.478C557.058 204.317 558.157 204.736 559.472 204.736ZM580.27 208.476C578.479 208.476 576.892 208.159 575.51 207.524C574.127 206.889 573.039 205.983 572.246 204.804C571.475 203.603 571.09 202.186 571.09 200.554V199.942H575.442V200.418C575.442 201.687 575.884 202.707 576.768 203.478C577.652 204.226 578.819 204.6 580.27 204.6C581.743 204.6 582.876 204.249 583.67 203.546C584.486 202.843 584.894 201.959 584.894 200.894V200.554C584.894 199.829 584.712 199.239 584.35 198.786C583.987 198.333 583.5 198.004 582.888 197.8C582.276 197.573 581.584 197.46 580.814 197.46H576.054V192.7L583.738 188.62V188.076H571.702V184.2H588.566V189.98L581.392 193.788V194.332H582.65C583.715 194.332 584.746 194.547 585.744 194.978C586.764 195.409 587.602 196.077 588.26 196.984C588.917 197.868 589.246 199.024 589.246 200.452V200.86C589.246 202.401 588.872 203.75 588.124 204.906C587.376 206.039 586.322 206.923 584.962 207.558C583.624 208.17 582.06 208.476 580.27 208.476ZM198.298 257.272C196.984 257.272 195.828 256.977 194.83 256.388C193.856 255.776 193.096 254.937 192.552 253.872C192.008 252.807 191.736 251.583 191.736 250.2V240.136H196.02V249.86C196.02 251.129 196.326 252.081 196.938 252.716C197.573 253.351 198.468 253.668 199.624 253.668C200.939 253.668 201.959 253.237 202.684 252.376C203.41 251.492 203.772 250.268 203.772 248.704V240.136H208.056V257H203.84V254.79H203.228C202.956 255.357 202.446 255.912 201.698 256.456C200.95 257 199.817 257.272 198.298 257.272ZM219.827 257.476C217.629 257.476 215.827 257 214.421 256.048C213.016 255.096 212.166 253.736 211.871 251.968L215.815 250.948C215.974 251.741 216.235 252.365 216.597 252.818C216.983 253.271 217.447 253.6 217.991 253.804C218.558 253.985 219.17 254.076 219.827 254.076C220.825 254.076 221.561 253.906 222.037 253.566C222.513 253.203 222.751 252.761 222.751 252.24C222.751 251.719 222.525 251.322 222.071 251.05C221.618 250.755 220.893 250.517 219.895 250.336L218.943 250.166C217.765 249.939 216.688 249.633 215.713 249.248C214.739 248.84 213.957 248.285 213.367 247.582C212.778 246.879 212.483 245.973 212.483 244.862C212.483 243.185 213.095 241.904 214.319 241.02C215.543 240.113 217.153 239.66 219.147 239.66C221.029 239.66 222.593 240.079 223.839 240.918C225.086 241.757 225.902 242.856 226.287 244.216L222.309 245.44C222.128 244.579 221.754 243.967 221.187 243.604C220.643 243.241 219.963 243.06 219.147 243.06C218.331 243.06 217.708 243.207 217.277 243.502C216.847 243.774 216.631 244.159 216.631 244.658C216.631 245.202 216.858 245.61 217.311 245.882C217.765 246.131 218.377 246.324 219.147 246.46L220.099 246.63C221.369 246.857 222.513 247.163 223.533 247.548C224.576 247.911 225.392 248.443 225.981 249.146C226.593 249.826 226.899 250.755 226.899 251.934C226.899 253.702 226.253 255.073 224.961 256.048C223.692 257 221.981 257.476 219.827 257.476ZM238.337 257.476C236.66 257.476 235.175 257.125 233.883 256.422C232.614 255.697 231.617 254.688 230.891 253.396C230.189 252.081 229.837 250.54 229.837 248.772V248.364C229.837 246.596 230.189 245.066 230.891 243.774C231.594 242.459 232.58 241.451 233.849 240.748C235.119 240.023 236.592 239.66 238.269 239.66C239.924 239.66 241.363 240.034 242.587 240.782C243.811 241.507 244.763 242.527 245.443 243.842C246.123 245.134 246.463 246.641 246.463 248.364V249.826H234.189C234.235 250.982 234.665 251.923 235.481 252.648C236.297 253.373 237.295 253.736 238.473 253.736C239.675 253.736 240.559 253.475 241.125 252.954C241.692 252.433 242.123 251.855 242.417 251.22L245.919 253.056C245.602 253.645 245.137 254.291 244.525 254.994C243.936 255.674 243.143 256.263 242.145 256.762C241.148 257.238 239.879 257.476 238.337 257.476ZM234.223 246.63H242.111C242.021 245.655 241.624 244.873 240.921 244.284C240.241 243.695 239.346 243.4 238.235 243.4C237.079 243.4 236.161 243.695 235.481 244.284C234.801 244.873 234.382 245.655 234.223 246.63ZM250.276 257V240.136H254.492V242.04H255.104C255.354 241.36 255.762 240.861 256.328 240.544C256.918 240.227 257.598 240.068 258.368 240.068H260.408V243.876H258.3C257.212 243.876 256.317 244.171 255.614 244.76C254.912 245.327 254.56 246.211 254.56 247.412V257H250.276ZM272.39 257V233.2H276.674V257H272.39ZM289.445 257.476C287.768 257.476 286.26 257.136 284.923 256.456C283.586 255.776 282.532 254.79 281.761 253.498C280.99 252.206 280.605 250.653 280.605 248.84V248.296C280.605 246.483 280.99 244.93 281.761 243.638C282.532 242.346 283.586 241.36 284.923 240.68C286.26 240 287.768 239.66 289.445 239.66C291.122 239.66 292.63 240 293.967 240.68C295.304 241.36 296.358 242.346 297.129 243.638C297.9 244.93 298.285 246.483 298.285 248.296V248.84C298.285 250.653 297.9 252.206 297.129 253.498C296.358 254.79 295.304 255.776 293.967 256.456C292.63 257.136 291.122 257.476 289.445 257.476ZM289.445 253.668C290.76 253.668 291.848 253.249 292.709 252.41C293.57 251.549 294.001 250.325 294.001 248.738V248.398C294.001 246.811 293.57 245.599 292.709 244.76C291.87 243.899 290.782 243.468 289.445 243.468C288.13 243.468 287.042 243.899 286.181 244.76C285.32 245.599 284.889 246.811 284.889 248.398V248.738C284.889 250.325 285.32 251.549 286.181 252.41C287.042 253.249 288.13 253.668 289.445 253.668ZM301.423 248.636V248.092C301.423 246.324 301.775 244.817 302.477 243.57C303.18 242.301 304.109 241.337 305.265 240.68C306.444 240 307.725 239.66 309.107 239.66C310.649 239.66 311.816 239.932 312.609 240.476C313.403 241.02 313.981 241.587 314.343 242.176H314.955V240.136H319.171V259.992C319.171 261.148 318.831 262.066 318.151 262.746C317.471 263.449 316.565 263.8 315.431 263.8H304.143V260.06H313.935C314.57 260.06 314.887 259.72 314.887 259.04V254.654H314.275C314.049 255.017 313.731 255.391 313.323 255.776C312.915 256.139 312.371 256.445 311.691 256.694C311.011 256.943 310.15 257.068 309.107 257.068C307.725 257.068 306.444 256.739 305.265 256.082C304.109 255.402 303.18 254.439 302.477 253.192C301.775 251.923 301.423 250.404 301.423 248.636ZM310.331 253.328C311.646 253.328 312.745 252.909 313.629 252.07C314.513 251.231 314.955 250.053 314.955 248.534V248.194C314.955 246.653 314.513 245.474 313.629 244.658C312.768 243.819 311.669 243.4 310.331 243.4C309.017 243.4 307.917 243.819 307.033 244.658C306.149 245.474 305.707 246.653 305.707 248.194V248.534C305.707 250.053 306.149 251.231 307.033 252.07C307.917 252.909 309.017 253.328 310.331 253.328ZM323.921 257V240.136H328.205V257H323.921ZM326.063 238.164C325.292 238.164 324.635 237.915 324.091 237.416C323.57 236.917 323.309 236.26 323.309 235.444C323.309 234.628 323.57 233.971 324.091 233.472C324.635 232.973 325.292 232.724 326.063 232.724C326.856 232.724 327.514 232.973 328.035 233.472C328.556 233.971 328.817 234.628 328.817 235.444C328.817 236.26 328.556 236.917 328.035 237.416C327.514 237.915 326.856 238.164 326.063 238.164ZM332.952 257V240.136H337.168V242.346H337.78C338.052 241.757 338.562 241.201 339.31 240.68C340.058 240.136 341.192 239.864 342.71 239.864C344.025 239.864 345.17 240.17 346.144 240.782C347.142 241.371 347.912 242.199 348.456 243.264C349 244.307 349.272 245.531 349.272 246.936V257H344.988V247.276C344.988 246.007 344.671 245.055 344.036 244.42C343.424 243.785 342.54 243.468 341.384 243.468C340.07 243.468 339.05 243.91 338.324 244.794C337.599 245.655 337.236 246.868 337.236 248.432V257H332.952ZM360.907 257.476C358.709 257.476 356.907 257 355.501 256.048C354.096 255.096 353.246 253.736 352.951 251.968L356.895 250.948C357.054 251.741 357.315 252.365 357.677 252.818C358.063 253.271 358.527 253.6 359.071 253.804C359.638 253.985 360.25 254.076 360.907 254.076C361.905 254.076 362.641 253.906 363.117 253.566C363.593 253.203 363.831 252.761 363.831 252.24C363.831 251.719 363.605 251.322 363.151 251.05C362.698 250.755 361.973 250.517 360.975 250.336L360.023 250.166C358.845 249.939 357.768 249.633 356.793 249.248C355.819 248.84 355.037 248.285 354.447 247.582C353.858 246.879 353.563 245.973 353.563 244.862C353.563 243.185 354.175 241.904 355.399 241.02C356.623 240.113 358.233 239.66 360.227 239.66C362.109 239.66 363.673 240.079 364.919 240.918C366.166 241.757 366.982 242.856 367.367 244.216L363.389 245.44C363.208 244.579 362.834 243.967 362.267 243.604C361.723 243.241 361.043 243.06 360.227 243.06C359.411 243.06 358.788 243.207 358.357 243.502C357.927 243.774 357.711 244.159 357.711 244.658C357.711 245.202 357.938 245.61 358.391 245.882C358.845 246.131 359.457 246.324 360.227 246.46L361.179 246.63C362.449 246.857 363.593 247.163 364.613 247.548C365.656 247.911 366.472 248.443 367.061 249.146C367.673 249.826 367.979 250.755 367.979 251.934C367.979 253.702 367.333 255.073 366.041 256.048C364.772 257 363.061 257.476 360.907 257.476ZM381.726 257L379.346 240.136H383.596L385.092 254.11H385.704L387.88 240.136H394.748L396.924 254.11H397.536L399.032 240.136H403.282L400.902 257H393.796L391.62 243.026H391.008L388.832 257H381.726ZM407.028 257V240.136H411.312V257H407.028ZM409.17 238.164C408.4 238.164 407.742 237.915 407.198 237.416C406.677 236.917 406.416 236.26 406.416 235.444C406.416 234.628 406.677 233.971 407.198 233.472C407.742 232.973 408.4 232.724 409.17 232.724C409.964 232.724 410.621 232.973 411.142 233.472C411.664 233.971 411.924 234.628 411.924 235.444C411.924 236.26 411.664 236.917 411.142 237.416C410.621 237.915 409.964 238.164 409.17 238.164ZM422.52 257C421.409 257 420.502 256.66 419.8 255.98C419.12 255.277 418.78 254.348 418.78 253.192V243.672H414.564V240.136H418.78V234.9H423.064V240.136H427.688V243.672H423.064V252.444C423.064 253.124 423.381 253.464 424.016 253.464H427.28V257H422.52ZM431.566 257V233.2H435.85V242.21H436.462C436.643 241.847 436.926 241.485 437.312 241.122C437.697 240.759 438.207 240.465 438.842 240.238C439.499 239.989 440.326 239.864 441.324 239.864C442.638 239.864 443.783 240.17 444.758 240.782C445.755 241.371 446.526 242.199 447.07 243.264C447.614 244.307 447.886 245.531 447.886 246.936V257H443.602V247.276C443.602 246.007 443.284 245.055 442.65 244.42C442.038 243.785 441.154 243.468 439.998 243.468C438.683 243.468 437.663 243.91 436.938 244.794C436.212 245.655 435.85 246.868 435.85 248.432V257H431.566ZM466.386 257.476C465.184 257.476 464.108 257.272 463.156 256.864C462.204 256.433 461.444 255.821 460.878 255.028C460.334 254.212 460.062 253.226 460.062 252.07C460.062 250.914 460.334 249.951 460.878 249.18C461.444 248.387 462.215 247.797 463.19 247.412C464.187 247.004 465.32 246.8 466.59 246.8H471.214V245.848C471.214 245.055 470.964 244.409 470.466 243.91C469.967 243.389 469.174 243.128 468.086 243.128C467.02 243.128 466.227 243.377 465.706 243.876C465.184 244.352 464.844 244.975 464.686 245.746L460.742 244.42C461.014 243.559 461.444 242.777 462.034 242.074C462.646 241.349 463.45 240.771 464.448 240.34C465.468 239.887 466.703 239.66 468.154 239.66C470.375 239.66 472.132 240.215 473.424 241.326C474.716 242.437 475.362 244.046 475.362 246.154V252.444C475.362 253.124 475.679 253.464 476.314 253.464H477.674V257H474.818C473.979 257 473.288 256.796 472.744 256.388C472.2 255.98 471.928 255.436 471.928 254.756V254.722H471.282C471.191 254.994 470.987 255.357 470.67 255.81C470.352 256.241 469.854 256.626 469.174 256.966C468.494 257.306 467.564 257.476 466.386 257.476ZM467.134 254.008C468.335 254.008 469.31 253.679 470.058 253.022C470.828 252.342 471.214 251.447 471.214 250.336V249.996H466.896C466.102 249.996 465.479 250.166 465.026 250.506C464.572 250.846 464.346 251.322 464.346 251.934C464.346 252.546 464.584 253.045 465.06 253.43C465.536 253.815 466.227 254.008 467.134 254.008ZM492.227 257V243.672H487.943V240.136H492.227V237.008C492.227 235.852 492.567 234.934 493.247 234.254C493.949 233.551 494.856 233.2 495.967 233.2H500.387V236.736H497.463C496.828 236.736 496.511 237.076 496.511 237.756V240.136H500.931V243.672H496.511V257H492.227ZM509.218 257.476C508.016 257.476 506.94 257.272 505.988 256.864C505.036 256.433 504.276 255.821 503.71 255.028C503.166 254.212 502.894 253.226 502.894 252.07C502.894 250.914 503.166 249.951 503.71 249.18C504.276 248.387 505.047 247.797 506.022 247.412C507.019 247.004 508.152 246.8 509.422 246.8H514.046V245.848C514.046 245.055 513.796 244.409 513.298 243.91C512.799 243.389 512.006 243.128 510.918 243.128C509.852 243.128 509.059 243.377 508.538 243.876C508.016 244.352 507.676 244.975 507.518 245.746L503.574 244.42C503.846 243.559 504.276 242.777 504.866 242.074C505.478 241.349 506.282 240.771 507.28 240.34C508.3 239.887 509.535 239.66 510.986 239.66C513.207 239.66 514.964 240.215 516.256 241.326C517.548 242.437 518.194 244.046 518.194 246.154V252.444C518.194 253.124 518.511 253.464 519.146 253.464H520.506V257H517.65C516.811 257 516.12 256.796 515.576 256.388C515.032 255.98 514.76 255.436 514.76 254.756V254.722H514.114C514.023 254.994 513.819 255.357 513.502 255.81C513.184 256.241 512.686 256.626 512.006 256.966C511.326 257.306 510.396 257.476 509.218 257.476ZM509.966 254.008C511.167 254.008 512.142 253.679 512.89 253.022C513.66 252.342 514.046 251.447 514.046 250.336V249.996H509.728C508.934 249.996 508.311 250.166 507.858 250.506C507.404 250.846 507.178 251.322 507.178 251.934C507.178 252.546 507.416 253.045 507.892 253.43C508.368 253.815 509.059 254.008 509.966 254.008ZM523.638 257V240.136H527.854V241.972H528.466C528.76 241.405 529.248 240.918 529.928 240.51C530.608 240.079 531.503 239.864 532.614 239.864C533.815 239.864 534.778 240.102 535.504 240.578C536.229 241.031 536.784 241.632 537.17 242.38H537.782C538.167 241.655 538.711 241.054 539.414 240.578C540.116 240.102 541.114 239.864 542.406 239.864C543.448 239.864 544.389 240.091 545.228 240.544C546.089 240.975 546.769 241.643 547.268 242.55C547.789 243.434 548.05 244.556 548.05 245.916V257H543.766V246.222C543.766 245.293 543.528 244.601 543.052 244.148C542.576 243.672 541.907 243.434 541.046 243.434C540.071 243.434 539.312 243.751 538.768 244.386C538.246 244.998 537.986 245.882 537.986 247.038V257H533.702V246.222C533.702 245.293 533.464 244.601 532.988 244.148C532.512 243.672 531.843 243.434 530.982 243.434C530.007 243.434 529.248 243.751 528.704 244.386C528.182 244.998 527.922 245.882 527.922 247.038V257H523.638ZM552.657 257V240.136H556.941V257H552.657ZM554.799 238.164C554.029 238.164 553.371 237.915 552.827 237.416C552.306 236.917 552.045 236.26 552.045 235.444C552.045 234.628 552.306 233.971 552.827 233.472C553.371 232.973 554.029 232.724 554.799 232.724C555.593 232.724 556.25 232.973 556.771 233.472C557.293 233.971 557.553 234.628 557.553 235.444C557.553 236.26 557.293 236.917 556.771 237.416C556.25 237.915 555.593 238.164 554.799 238.164ZM561.689 257V233.2H565.973V257H561.689ZM570.72 257V240.136H575.004V257H570.72ZM572.862 238.164C572.091 238.164 571.434 237.915 570.89 237.416C570.369 236.917 570.108 236.26 570.108 235.444C570.108 234.628 570.369 233.971 570.89 233.472C571.434 232.973 572.091 232.724 572.862 232.724C573.655 232.724 574.313 232.973 574.834 233.472C575.355 233.971 575.616 234.628 575.616 235.444C575.616 236.26 575.355 236.917 574.834 237.416C574.313 237.915 573.655 238.164 572.862 238.164ZM584.987 257.476C583.786 257.476 582.709 257.272 581.757 256.864C580.805 256.433 580.046 255.821 579.479 255.028C578.935 254.212 578.663 253.226 578.663 252.07C578.663 250.914 578.935 249.951 579.479 249.18C580.046 248.387 580.816 247.797 581.791 247.412C582.788 247.004 583.922 246.8 585.191 246.8H589.815V245.848C589.815 245.055 589.566 244.409 589.067 243.91C588.568 243.389 587.775 243.128 586.687 243.128C585.622 243.128 584.828 243.377 584.307 243.876C583.786 244.352 583.446 244.975 583.287 245.746L579.343 244.42C579.615 243.559 580.046 242.777 580.635 242.074C581.247 241.349 582.052 240.771 583.049 240.34C584.069 239.887 585.304 239.66 586.755 239.66C588.976 239.66 590.733 240.215 592.025 241.326C593.317 242.437 593.963 244.046 593.963 246.154V252.444C593.963 253.124 594.28 253.464 594.915 253.464H596.275V257H593.419C592.58 257 591.889 256.796 591.345 256.388C590.801 255.98 590.529 255.436 590.529 254.756V254.722H589.883C589.792 254.994 589.588 255.357 589.271 255.81C588.954 256.241 588.455 256.626 587.775 256.966C587.095 257.306 586.166 257.476 584.987 257.476ZM585.735 254.008C586.936 254.008 587.911 253.679 588.659 253.022C589.43 252.342 589.815 251.447 589.815 250.336V249.996H585.497C584.704 249.996 584.08 250.166 583.627 250.506C583.174 250.846 582.947 251.322 582.947 251.934C582.947 252.546 583.185 253.045 583.661 253.43C584.137 253.815 584.828 254.008 585.735 254.008ZM599.407 257V240.136H603.623V242.04H604.235C604.485 241.36 604.893 240.861 605.459 240.544C606.049 240.227 606.729 240.068 607.499 240.068H609.539V243.876H607.431C606.343 243.876 605.448 244.171 604.745 244.76C604.043 245.327 603.691 246.211 603.691 247.412V257H599.407ZM239.26 305.476C238.058 305.476 236.982 305.272 236.03 304.864C235.078 304.433 234.318 303.821 233.752 303.028C233.208 302.212 232.936 301.226 232.936 300.07C232.936 298.914 233.208 297.951 233.752 297.18C234.318 296.387 235.089 295.797 236.064 295.412C237.061 295.004 238.194 294.8 239.464 294.8H244.088V293.848C244.088 293.055 243.838 292.409 243.34 291.91C242.841 291.389 242.048 291.128 240.96 291.128C239.894 291.128 239.101 291.377 238.58 291.876C238.058 292.352 237.718 292.975 237.56 293.746L233.616 292.42C233.888 291.559 234.318 290.777 234.908 290.074C235.52 289.349 236.324 288.771 237.322 288.34C238.342 287.887 239.577 287.66 241.028 287.66C243.249 287.66 245.006 288.215 246.298 289.326C247.59 290.437 248.236 292.046 248.236 294.154V300.444C248.236 301.124 248.553 301.464 249.188 301.464H250.548V305H247.692C246.853 305 246.162 304.796 245.618 304.388C245.074 303.98 244.802 303.436 244.802 302.756V302.722H244.156C244.065 302.994 243.861 303.357 243.544 303.81C243.226 304.241 242.728 304.626 242.048 304.966C241.368 305.306 240.438 305.476 239.26 305.476ZM240.008 302.008C241.209 302.008 242.184 301.679 242.932 301.022C243.702 300.342 244.088 299.447 244.088 298.336V297.996H239.77C238.976 297.996 238.353 298.166 237.9 298.506C237.446 298.846 237.22 299.322 237.22 299.934C237.22 300.546 237.458 301.045 237.934 301.43C238.41 301.815 239.101 302.008 240.008 302.008ZM253.68 305V288.136H257.896V290.346H258.508C258.78 289.757 259.29 289.201 260.038 288.68C260.786 288.136 261.919 287.864 263.438 287.864C264.752 287.864 265.897 288.17 266.872 288.782C267.869 289.371 268.64 290.199 269.184 291.264C269.728 292.307 270 293.531 270 294.936V305H265.716V295.276C265.716 294.007 265.398 293.055 264.764 292.42C264.152 291.785 263.268 291.468 262.112 291.468C260.797 291.468 259.777 291.91 259.052 292.794C258.326 293.655 257.964 294.868 257.964 296.432V305H253.68ZM281.431 305.476C280.094 305.476 278.836 305.147 277.657 304.49C276.501 303.81 275.572 302.824 274.869 301.532C274.166 300.24 273.815 298.676 273.815 296.84V296.296C273.815 294.46 274.166 292.896 274.869 291.604C275.572 290.312 276.501 289.337 277.657 288.68C278.813 288 280.071 287.66 281.431 287.66C282.451 287.66 283.301 287.785 283.981 288.034C284.684 288.261 285.25 288.555 285.681 288.918C286.112 289.281 286.44 289.666 286.667 290.074H287.279V281.2H291.563V305H287.347V302.96H286.735C286.35 303.595 285.749 304.173 284.933 304.694C284.14 305.215 282.972 305.476 281.431 305.476ZM282.723 301.736C284.038 301.736 285.137 301.317 286.021 300.478C286.905 299.617 287.347 298.37 287.347 296.738V296.398C287.347 294.766 286.905 293.531 286.021 292.692C285.16 291.831 284.06 291.4 282.723 291.4C281.408 291.4 280.309 291.831 279.425 292.692C278.541 293.531 278.099 294.766 278.099 296.398V296.738C278.099 298.37 278.541 299.617 279.425 300.478C280.309 301.317 281.408 301.736 282.723 301.736ZM311.949 305.476C309.751 305.476 307.949 305 306.543 304.048C305.138 303.096 304.288 301.736 303.993 299.968L307.937 298.948C308.096 299.741 308.357 300.365 308.719 300.818C309.105 301.271 309.569 301.6 310.113 301.804C310.68 301.985 311.292 302.076 311.949 302.076C312.947 302.076 313.683 301.906 314.159 301.566C314.635 301.203 314.873 300.761 314.873 300.24C314.873 299.719 314.647 299.322 314.193 299.05C313.74 298.755 313.015 298.517 312.017 298.336L311.065 298.166C309.887 297.939 308.81 297.633 307.835 297.248C306.861 296.84 306.079 296.285 305.489 295.582C304.9 294.879 304.605 293.973 304.605 292.862C304.605 291.185 305.217 289.904 306.441 289.02C307.665 288.113 309.275 287.66 311.269 287.66C313.151 287.66 314.715 288.079 315.961 288.918C317.208 289.757 318.024 290.856 318.409 292.216L314.431 293.44C314.25 292.579 313.876 291.967 313.309 291.604C312.765 291.241 312.085 291.06 311.269 291.06C310.453 291.06 309.83 291.207 309.399 291.502C308.969 291.774 308.753 292.159 308.753 292.658C308.753 293.202 308.98 293.61 309.433 293.882C309.887 294.131 310.499 294.324 311.269 294.46L312.221 294.63C313.491 294.857 314.635 295.163 315.655 295.548C316.698 295.911 317.514 296.443 318.103 297.146C318.715 297.826 319.021 298.755 319.021 299.934C319.021 301.702 318.375 303.073 317.083 304.048C315.814 305 314.103 305.476 311.949 305.476ZM322.776 305V288.136H327.06V305H322.776ZM324.918 286.164C324.147 286.164 323.49 285.915 322.946 285.416C322.424 284.917 322.164 284.26 322.164 283.444C322.164 282.628 322.424 281.971 322.946 281.472C323.49 280.973 324.147 280.724 324.918 280.724C325.711 280.724 326.368 280.973 326.89 281.472C327.411 281.971 327.672 282.628 327.672 283.444C327.672 284.26 327.411 284.917 326.89 285.416C326.368 285.915 325.711 286.164 324.918 286.164ZM331.807 305V288.136H336.023V289.972H336.635C336.929 289.405 337.417 288.918 338.097 288.51C338.777 288.079 339.672 287.864 340.783 287.864C341.984 287.864 342.947 288.102 343.673 288.578C344.398 289.031 344.953 289.632 345.339 290.38H345.951C346.336 289.655 346.88 289.054 347.583 288.578C348.285 288.102 349.283 287.864 350.575 287.864C351.617 287.864 352.558 288.091 353.397 288.544C354.258 288.975 354.938 289.643 355.437 290.55C355.958 291.434 356.219 292.556 356.219 293.916V305H351.935V294.222C351.935 293.293 351.697 292.601 351.221 292.148C350.745 291.672 350.076 291.434 349.215 291.434C348.24 291.434 347.481 291.751 346.937 292.386C346.415 292.998 346.155 293.882 346.155 295.038V305H341.871V294.222C341.871 293.293 341.633 292.601 341.157 292.148C340.681 291.672 340.012 291.434 339.151 291.434C338.176 291.434 337.417 291.751 336.873 292.386C336.351 292.998 336.091 293.882 336.091 295.038V305H331.807ZM360.826 311.8V288.136H365.042V290.176H365.654C366.04 289.519 366.64 288.941 367.456 288.442C368.272 287.921 369.44 287.66 370.958 287.66C372.318 287.66 373.576 288 374.732 288.68C375.888 289.337 376.818 290.312 377.52 291.604C378.223 292.896 378.574 294.46 378.574 296.296V296.84C378.574 298.676 378.223 300.24 377.52 301.532C376.818 302.824 375.888 303.81 374.732 304.49C373.576 305.147 372.318 305.476 370.958 305.476C369.938 305.476 369.077 305.351 368.374 305.102C367.694 304.875 367.139 304.581 366.708 304.218C366.3 303.833 365.972 303.447 365.722 303.062H365.11V311.8H360.826ZM369.666 301.736C371.004 301.736 372.103 301.317 372.964 300.478C373.848 299.617 374.29 298.37 374.29 296.738V296.398C374.29 294.766 373.848 293.531 372.964 292.692C372.08 291.831 370.981 291.4 369.666 291.4C368.352 291.4 367.252 291.831 366.368 292.692C365.484 293.531 365.042 294.766 365.042 296.398V296.738C365.042 298.37 365.484 299.617 366.368 300.478C367.252 301.317 368.352 301.736 369.666 301.736ZM382.508 305V281.2H386.792V305H382.508ZM399.223 305.476C397.546 305.476 396.061 305.125 394.769 304.422C393.5 303.697 392.503 302.688 391.777 301.396C391.075 300.081 390.723 298.54 390.723 296.772V296.364C390.723 294.596 391.075 293.066 391.777 291.774C392.48 290.459 393.466 289.451 394.735 288.748C396.005 288.023 397.478 287.66 399.155 287.66C400.81 287.66 402.249 288.034 403.473 288.782C404.697 289.507 405.649 290.527 406.329 291.842C407.009 293.134 407.349 294.641 407.349 296.364V297.826H395.075C395.121 298.982 395.551 299.923 396.367 300.648C397.183 301.373 398.181 301.736 399.359 301.736C400.561 301.736 401.445 301.475 402.011 300.954C402.578 300.433 403.009 299.855 403.303 299.22L406.805 301.056C406.488 301.645 406.023 302.291 405.411 302.994C404.822 303.674 404.029 304.263 403.031 304.762C402.034 305.238 400.765 305.476 399.223 305.476ZM395.109 294.63H402.997C402.907 293.655 402.51 292.873 401.807 292.284C401.127 291.695 400.232 291.4 399.121 291.4C397.965 291.4 397.047 291.695 396.367 292.284C395.687 292.873 395.268 293.655 395.109 294.63ZM419.795 305V288.136H424.079V305H419.795ZM421.937 286.164C421.166 286.164 420.509 285.915 419.965 285.416C419.444 284.917 419.183 284.26 419.183 283.444C419.183 282.628 419.444 281.971 419.965 281.472C420.509 280.973 421.166 280.724 421.937 280.724C422.73 280.724 423.388 280.973 423.909 281.472C424.43 281.971 424.691 282.628 424.691 283.444C424.691 284.26 424.43 284.917 423.909 285.416C423.388 285.915 422.73 286.164 421.937 286.164ZM428.826 305V288.136H433.042V290.346H433.654C433.926 289.757 434.436 289.201 435.184 288.68C435.932 288.136 437.066 287.864 438.584 287.864C439.899 287.864 441.044 288.17 442.018 288.782C443.016 289.371 443.786 290.199 444.33 291.264C444.874 292.307 445.146 293.531 445.146 294.936V305H440.862V295.276C440.862 294.007 440.545 293.055 439.91 292.42C439.298 291.785 438.414 291.468 437.258 291.468C435.944 291.468 434.924 291.91 434.198 292.794C433.473 293.655 433.11 294.868 433.11 296.432V305H428.826ZM455.773 305C454.662 305 453.755 304.66 453.053 303.98C452.373 303.277 452.033 302.348 452.033 301.192V291.672H447.817V288.136H452.033V282.9H456.317V288.136H460.941V291.672H456.317V300.444C456.317 301.124 456.634 301.464 457.269 301.464H460.533V305H455.773ZM471.905 305.476C470.227 305.476 468.743 305.125 467.451 304.422C466.181 303.697 465.184 302.688 464.459 301.396C463.756 300.081 463.405 298.54 463.405 296.772V296.364C463.405 294.596 463.756 293.066 464.459 291.774C465.161 290.459 466.147 289.451 467.417 288.748C468.686 288.023 470.159 287.66 471.837 287.66C473.491 287.66 474.931 288.034 476.155 288.782C477.379 289.507 478.331 290.527 479.011 291.842C479.691 293.134 480.031 294.641 480.031 296.364V297.826H467.757C467.802 298.982 468.233 299.923 469.049 300.648C469.865 301.373 470.862 301.736 472.041 301.736C473.242 301.736 474.126 301.475 474.693 300.954C475.259 300.433 475.69 299.855 475.985 299.22L479.487 301.056C479.169 301.645 478.705 302.291 478.093 302.994C477.503 303.674 476.71 304.263 475.713 304.762C474.715 305.238 473.446 305.476 471.905 305.476ZM467.791 294.63H475.679C475.588 293.655 475.191 292.873 474.489 292.284C473.809 291.695 472.913 291.4 471.803 291.4C470.647 291.4 469.729 291.695 469.049 292.284C468.369 292.873 467.949 293.655 467.791 294.63ZM483.844 305V288.136H488.06V290.04H488.672C488.921 289.36 489.329 288.861 489.896 288.544C490.485 288.227 491.165 288.068 491.936 288.068H493.976V291.876H491.868C490.78 291.876 489.885 292.171 489.182 292.76C488.479 293.327 488.128 294.211 488.128 295.412V305H483.844ZM500.112 305V291.672H495.828V288.136H500.112V285.008C500.112 283.852 500.452 282.934 501.132 282.254C501.835 281.551 502.742 281.2 503.852 281.2H508.272V284.736H505.348C504.714 284.736 504.396 285.076 504.396 285.756V288.136H508.816V291.672H504.396V305H500.112ZM517.103 305.476C515.902 305.476 514.825 305.272 513.873 304.864C512.921 304.433 512.162 303.821 511.595 303.028C511.051 302.212 510.779 301.226 510.779 300.07C510.779 298.914 511.051 297.951 511.595 297.18C512.162 296.387 512.933 295.797 513.907 295.412C514.905 295.004 516.038 294.8 517.307 294.8H521.931V293.848C521.931 293.055 521.682 292.409 521.183 291.91C520.685 291.389 519.891 291.128 518.803 291.128C517.738 291.128 516.945 291.377 516.423 291.876C515.902 292.352 515.562 292.975 515.403 293.746L511.459 292.42C511.731 291.559 512.162 290.777 512.751 290.074C513.363 289.349 514.168 288.771 515.165 288.34C516.185 287.887 517.421 287.66 518.871 287.66C521.093 287.66 522.849 288.215 524.141 289.326C525.433 290.437 526.079 292.046 526.079 294.154V300.444C526.079 301.124 526.397 301.464 527.031 301.464H528.391V305H525.535C524.697 305 524.005 304.796 523.461 304.388C522.917 303.98 522.645 303.436 522.645 302.756V302.722H521.999C521.909 302.994 521.705 303.357 521.387 303.81C521.07 304.241 520.571 304.626 519.891 304.966C519.211 305.306 518.282 305.476 517.103 305.476ZM517.851 302.008C519.053 302.008 520.027 301.679 520.775 301.022C521.546 300.342 521.931 299.447 521.931 298.336V297.996H517.613C516.82 297.996 516.197 298.166 515.743 298.506C515.29 298.846 515.063 299.322 515.063 299.934C515.063 300.546 515.301 301.045 515.777 301.43C516.253 301.815 516.945 302.008 517.851 302.008ZM539.114 305.476C537.482 305.476 535.997 305.136 534.66 304.456C533.345 303.776 532.302 302.79 531.532 301.498C530.761 300.206 530.376 298.642 530.376 296.806V296.33C530.376 294.494 530.761 292.93 531.532 291.638C532.302 290.346 533.345 289.36 534.66 288.68C535.997 288 537.482 287.66 539.114 287.66C540.723 287.66 542.106 287.943 543.262 288.51C544.418 289.077 545.347 289.859 546.05 290.856C546.775 291.831 547.251 292.941 547.478 294.188L543.33 295.072C543.239 294.392 543.035 293.78 542.718 293.236C542.4 292.692 541.947 292.261 541.358 291.944C540.791 291.627 540.077 291.468 539.216 291.468C538.354 291.468 537.572 291.661 536.87 292.046C536.19 292.409 535.646 292.964 535.238 293.712C534.852 294.437 534.66 295.333 534.66 296.398V296.738C534.66 297.803 534.852 298.71 535.238 299.458C535.646 300.183 536.19 300.739 536.87 301.124C537.572 301.487 538.354 301.668 539.216 301.668C540.508 301.668 541.482 301.339 542.14 300.682C542.82 300.002 543.25 299.118 543.432 298.03L547.58 299.016C547.285 300.217 546.775 301.317 546.05 302.314C545.347 303.289 544.418 304.059 543.262 304.626C542.106 305.193 540.723 305.476 539.114 305.476ZM558.797 305.476C557.12 305.476 555.635 305.125 554.343 304.422C553.074 303.697 552.077 302.688 551.351 301.396C550.649 300.081 550.297 298.54 550.297 296.772V296.364C550.297 294.596 550.649 293.066 551.351 291.774C552.054 290.459 553.04 289.451 554.309 288.748C555.579 288.023 557.052 287.66 558.729 287.66C560.384 287.66 561.823 288.034 563.047 288.782C564.271 289.507 565.223 290.527 565.903 291.842C566.583 293.134 566.923 294.641 566.923 296.364V297.826H554.649C554.695 298.982 555.125 299.923 555.941 300.648C556.757 301.373 557.755 301.736 558.933 301.736C560.135 301.736 561.019 301.475 561.585 300.954C562.152 300.433 562.583 299.855 562.877 299.22L566.379 301.056C566.062 301.645 565.597 302.291 564.985 302.994C564.396 303.674 563.603 304.263 562.605 304.762C561.608 305.238 560.339 305.476 558.797 305.476ZM554.683 294.63H562.571C562.481 293.655 562.084 292.873 561.381 292.284C560.701 291.695 559.806 291.4 558.695 291.4C557.539 291.4 556.621 291.695 555.941 292.284C555.261 292.873 554.842 293.655 554.683 294.63Z" fill="black"/>
</g>
<defs>
<clipPath id="clip0_6_229">
<rect width="800" height="418" fill="white"/>
</clipPath>
</defs>
</svg>
