<svg width="664" height="214" viewBox="0 0 664 214" fill="none" xmlns="http://www.w3.org/2000/svg">
<rect x="19" y="55" width="183.09" height="102.818" rx="51.409" fill="#2375EF"/>
<rect x="103.53" y="58.3986" width="95.1617" height="96.0208" rx="47.5808" fill="white"/>
<path d="M280.739 150.695C271.977 150.695 264.3 148.776 257.708 144.938C251.199 141.099 246.067 135.8 242.312 129.041C238.641 122.199 236.805 114.313 236.805 105.385C236.805 96.456 238.641 88.6122 242.312 81.8531C246.067 75.0106 251.199 69.6701 257.708 65.8316C264.3 61.9932 271.977 60.0739 280.739 60.0739C289.417 60.0739 297.052 61.9932 303.644 65.8316C310.237 69.6701 315.369 75.0106 319.04 81.8531C322.712 88.6122 324.548 96.456 324.548 105.385C324.548 114.313 322.712 122.199 319.04 129.041C315.369 135.8 310.237 141.099 303.644 144.938C297.052 148.776 289.417 150.695 280.739 150.695ZM280.739 136.301C289.083 136.301 295.717 133.547 300.64 128.04C305.647 122.533 308.151 114.981 308.151 105.385C308.151 95.7885 305.647 88.2367 300.64 82.7293C295.717 77.2219 289.083 74.4682 280.739 74.4682C272.394 74.4682 265.719 77.2219 260.712 82.7293C255.705 88.2367 253.202 95.7885 253.202 105.385C253.202 114.981 255.705 122.533 260.712 128.04C265.719 133.547 272.394 136.301 280.739 136.301ZM365.98 149.193C359.471 149.193 354.256 147.608 350.334 144.437C346.412 141.266 344.451 135.634 344.451 127.539V100.503H333.812V87.1102H344.451L346.329 70.4628H360.473V87.1102H377.245V100.503H360.473V127.665C360.473 130.669 361.098 132.755 362.35 133.923C363.685 135.008 365.938 135.55 369.109 135.55H376.87V149.193H365.98ZM391.001 149.193V59.0726H407.022V96.6229C409.108 93.2017 411.904 90.5314 415.409 88.6122C418.997 86.6095 423.085 85.6081 427.675 85.6081C435.352 85.6081 441.277 88.0281 445.449 92.8679C449.704 97.7077 451.832 104.801 451.832 114.146V149.193H435.936V115.648C435.936 110.308 434.851 106.219 432.682 103.382C430.596 100.545 427.258 99.1263 422.668 99.1263C418.162 99.1263 414.407 100.712 411.403 103.883C408.483 107.054 407.022 111.476 407.022 117.15V149.193H391.001ZM497.318 150.695C491.06 150.695 485.511 149.36 480.671 146.69C475.831 144.02 472.034 140.265 469.281 135.425C466.527 130.585 465.15 124.994 465.15 118.652C465.15 112.227 466.485 106.511 469.155 101.504C471.909 96.4977 475.664 92.6175 480.42 89.8638C485.26 87.0267 490.935 85.6081 497.443 85.6081C503.535 85.6081 508.917 86.9433 513.59 89.6135C518.263 92.2838 521.893 95.9553 524.479 100.628C527.15 105.218 528.485 110.35 528.485 116.024C528.485 116.942 528.443 117.901 528.36 118.903C528.36 119.904 528.318 120.947 528.235 122.032H481.046C481.38 126.872 483.049 130.669 486.053 133.422C489.14 136.176 492.854 137.553 497.193 137.553C500.447 137.553 503.159 136.843 505.329 135.425C507.582 133.923 509.251 132.004 510.336 129.667H526.607C525.439 133.589 523.478 137.177 520.724 140.432C518.054 143.603 514.716 146.106 510.711 147.942C506.789 149.777 502.325 150.695 497.318 150.695ZM497.443 98.6256C493.521 98.6256 490.058 99.7521 487.054 102.005C484.05 104.175 482.131 107.513 481.297 112.019H512.213C511.963 107.93 510.461 104.675 507.707 102.255C504.953 99.8355 501.532 98.6256 497.443 98.6256ZM541.96 149.193V87.1102H556.104L557.356 97.6242C559.275 93.9527 562.029 91.0321 565.617 88.8625C569.288 86.6929 573.586 85.6081 578.509 85.6081C586.186 85.6081 592.152 88.0281 596.408 92.8679C600.664 97.7077 602.791 104.801 602.791 114.146V149.193H586.77V115.648C586.77 110.308 585.685 106.219 583.516 103.382C581.346 100.545 577.967 99.1263 573.377 99.1263C568.871 99.1263 565.158 100.712 562.237 103.883C559.4 107.054 557.981 111.476 557.981 117.15V149.193H541.96ZM645.774 149.193C639.265 149.193 634.05 147.608 630.128 144.437C626.206 141.266 624.245 135.634 624.245 127.539V100.503H613.606V87.1102H624.245L626.123 70.4628H640.266V87.1102H657.039V100.503H640.266V127.665C640.266 130.669 640.892 132.755 642.144 133.923C643.479 135.008 645.732 135.55 648.903 135.55H656.663V149.193H645.774Z" fill="white"/>
</svg>
