<svg width="400" height="400" viewBox="0 0 400 400" fill="none" xmlns="http://www.w3.org/2000/svg">
<g clip-path="url(#clip0_6_1150)">
<path d="M315.919 158.566L231.239 285.561C230.859 286.135 230.657 286.808 230.657 287.496C230.657 288.185 230.859 288.858 231.239 289.432L270.095 347.837C270.41 348.316 270.839 348.709 271.344 348.981C271.848 349.254 272.413 349.396 272.986 349.396C273.56 349.396 274.124 349.254 274.629 348.981C275.133 348.709 275.563 348.316 275.877 347.837L399.413 162.558C399.764 162.033 399.965 161.422 399.996 160.792C400.027 160.161 399.885 159.534 399.587 158.977C399.289 158.42 398.845 157.955 398.303 157.631C397.761 157.308 397.141 157.137 396.51 157.138H318.895C318.32 157.114 317.747 157.231 317.228 157.48C316.709 157.729 316.26 158.102 315.919 158.566ZM363.485 50.2485H36.065C35.4913 50.2495 34.9267 50.3912 34.4205 50.6612C33.9144 50.9312 33.4821 51.3211 33.1617 51.7969L0.112453 101.347C-0.238353 101.872 -0.43987 102.482 -0.470554 103.113C-0.501238 103.743 -0.359934 104.371 -0.0617507 104.927C0.236433 105.484 0.680284 105.949 1.22235 106.273C1.76441 106.597 2.38431 106.767 3.01575 106.766H203.997L84.792 285.561C84.4122 286.135 84.2098 286.808 84.2098 287.496C84.2098 288.185 84.4122 288.858 84.792 289.432L123.503 347.716C123.82 348.195 124.252 348.588 124.758 348.86C125.265 349.132 125.831 349.274 126.406 349.274C126.981 349.274 127.547 349.132 128.053 348.86C128.56 348.588 128.991 348.195 129.309 347.716L289.934 106.766H396.389C397.02 106.767 397.64 106.597 398.182 106.273C398.724 105.949 399.168 105.484 399.466 104.927C399.764 104.371 399.906 103.743 399.875 103.113C399.844 102.482 399.643 101.872 399.292 101.347L366.364 51.7969C366.05 51.32 365.623 50.9287 365.12 50.6583C364.617 50.388 364.055 50.2471 363.485 50.2485ZM0.112453 162.437L50.3395 237.874C50.6545 238.353 51.0836 238.747 51.5882 239.019C52.0929 239.291 52.6573 239.434 53.2307 239.434C53.8041 239.434 54.3686 239.291 54.8732 239.019C55.3779 238.747 55.807 238.353 56.1219 237.874L106.494 162.437C106.846 161.91 107.048 161.297 107.078 160.664C107.107 160.032 106.964 159.403 106.663 158.845C106.362 158.288 105.914 157.823 105.369 157.501C104.823 157.179 104.2 157.012 103.567 157.017H3.01575C2.38431 157.016 1.76441 157.187 1.22235 157.51C0.680284 157.834 0.236433 158.299 -0.0617507 158.856C-0.359934 159.413 -0.501238 160.04 -0.470554 160.671C-0.43987 161.301 -0.238353 161.912 0.112453 162.437Z" fill="white"/>
</g>
<defs>
<clipPath id="clip0_6_1150">
<rect width="400" height="400" fill="white"/>
</clipPath>
</defs>
</svg>
