<svg width="1500" height="500" viewBox="0 0 1500 500" fill="none" xmlns="http://www.w3.org/2000/svg">
<g clip-path="url(#clip0_7_2166)">
<rect width="1500" height="500" fill="#EEEEEE"/>
<circle cx="-6.27504" cy="28.5778" r="8" transform="rotate(-45 -6.27504 28.5778)" fill="#D3E3FC"/>
<circle cx="22.0093" cy="0.293488" r="8" transform="rotate(-45 22.0093 0.293488)" fill="#D3E3FC"/>
<circle cx="-6.27504" cy="85.1463" r="8" transform="rotate(-45 -6.27504 85.1463)" fill="#D3E3FC"/>
<circle cx="22.0093" cy="56.862" r="8" transform="rotate(-45 22.0093 56.862)" fill="#D3E3FC"/>
<circle cx="50.2934" cy="28.5778" r="8" transform="rotate(-45 50.2934 28.5778)" fill="#D3E3FC"/>
<circle cx="-6.27516" cy="141.715" r="8" transform="rotate(-45 -6.27516 141.715)" fill="#D3E3FC"/>
<circle cx="22.0091" cy="113.431" r="8" transform="rotate(-45 22.0091 113.431)" fill="#D3E3FC"/>
<circle cx="50.2934" cy="85.1463" r="8" transform="rotate(-45 50.2934 85.1463)" fill="#D3E3FC"/>
<circle cx="78.5776" cy="56.862" r="8" transform="rotate(-45 78.5776 56.862)" fill="#D3E3FC"/>
<circle cx="-6.27504" cy="198.283" r="8" transform="rotate(-45 -6.27504 198.283)" fill="#D3E3FC"/>
<circle cx="22.0091" cy="169.999" r="8" transform="rotate(-45 22.0091 169.999)" fill="#D3E3FC"/>
<circle cx="50.2934" cy="141.715" r="8" transform="rotate(-45 50.2934 141.715)" fill="#D3E3FC"/>
<circle cx="78.5776" cy="113.431" r="8" transform="rotate(-45 78.5776 113.431)" fill="#D3E3FC"/>
<circle cx="106.862" cy="85.1463" r="8" transform="rotate(-45 106.862 85.1463)" fill="#D3E3FC"/>
<circle cx="-6.27504" cy="254.852" r="8" transform="rotate(-45 -6.27504 254.852)" fill="#D3E3FC"/>
<circle cx="22.0093" cy="226.568" r="8" transform="rotate(-45 22.0093 226.568)" fill="#D3E3FC"/>
<circle cx="50.2934" cy="198.283" r="8" transform="rotate(-45 50.2934 198.283)" fill="#D3E3FC"/>
<circle cx="78.5779" cy="169.999" r="8" transform="rotate(-45 78.5779 169.999)" fill="#D3E3FC"/>
<circle cx="106.862" cy="141.715" r="8" transform="rotate(-45 106.862 141.715)" fill="#D3E3FC"/>
<circle cx="135.146" cy="113.431" r="8" transform="rotate(-45 135.146 113.431)" fill="#D3E3FC"/>
<circle cx="-6.27504" cy="311.42" r="8" transform="rotate(-45 -6.27504 311.42)" fill="#D3E3FC"/>
<circle cx="22.0093" cy="283.136" r="8" transform="rotate(-45 22.0093 283.136)" fill="#D3E3FC"/>
<circle cx="50.2934" cy="254.852" r="8" transform="rotate(-45 50.2934 254.852)" fill="#D3E3FC"/>
<circle cx="78.5779" cy="226.568" r="8" transform="rotate(-45 78.5779 226.568)" fill="#D3E3FC"/>
<circle cx="106.862" cy="198.283" r="8" transform="rotate(-45 106.862 198.283)" fill="#D3E3FC"/>
<circle cx="135.146" cy="169.999" r="8" transform="rotate(-45 135.146 169.999)" fill="#D3E3FC"/>
<circle cx="163.431" cy="141.715" r="8" transform="rotate(-45 163.431 141.715)" fill="#D3E3FC"/>
<circle cx="78.5776" cy="0.293488" r="8" transform="rotate(-45 78.5776 0.293488)" fill="#D3E3FC"/>
<circle cx="106.862" cy="28.5778" r="8" transform="rotate(-45 106.862 28.5778)" fill="#D3E3FC"/>
<circle cx="135.146" cy="0.293488" r="8" transform="rotate(-45 135.146 0.293488)" fill="#D3E3FC"/>
<circle cx="135.146" cy="56.862" r="8" transform="rotate(-45 135.146 56.862)" fill="#D3E3FC"/>
<circle cx="163.43" cy="28.5778" r="8" transform="rotate(-45 163.43 28.5778)" fill="#D3E3FC"/>
<circle cx="191.715" cy="0.293488" r="8" transform="rotate(-45 191.715 0.293488)" fill="#D3E3FC"/>
<circle cx="163.43" cy="85.1463" r="8" transform="rotate(-45 163.43 85.1463)" fill="#D3E3FC"/>
<circle cx="191.715" cy="56.862" r="8" transform="rotate(-45 191.715 56.862)" fill="#D3E3FC"/>
<circle cx="219.999" cy="28.5778" r="8" transform="rotate(-45 219.999 28.5778)" fill="#D3E3FC"/>
<circle cx="248.283" cy="0.293488" r="8" transform="rotate(-45 248.283 0.293488)" fill="#D3E3FC"/>
<circle cx="191.715" cy="113.431" r="8" transform="rotate(-45 191.715 113.431)" fill="#D3E3FC"/>
<circle cx="219.999" cy="85.1463" r="8" transform="rotate(-45 219.999 85.1463)" fill="#D3E3FC"/>
<circle cx="248.283" cy="56.862" r="8" transform="rotate(-45 248.283 56.862)" fill="#D3E3FC"/>
<circle cx="276.568" cy="28.5778" r="8" transform="rotate(-45 276.568 28.5778)" fill="#D3E3FC"/>
<circle cx="304.852" cy="0.293488" r="8" transform="rotate(-45 304.852 0.293488)" fill="#D3E3FC"/>
<circle cx="1202.74" cy="490.293" r="8" transform="rotate(-45 1202.74 490.293)" fill="#D3E3FC"/>
<circle cx="1231.02" cy="462.009" r="8" transform="rotate(-45 1231.02 462.009)" fill="#D3E3FC"/>
<circle cx="1259.3" cy="433.725" r="8" transform="rotate(-45 1259.3 433.725)" fill="#D3E3FC"/>
<circle cx="1287.59" cy="405.441" r="8" transform="rotate(-45 1287.59 405.441)" fill="#D3E3FC"/>
<circle cx="1315.87" cy="377.156" r="8" transform="rotate(-45 1315.87 377.156)" fill="#D3E3FC"/>
<circle cx="1259.3" cy="490.293" r="8" transform="rotate(-45 1259.3 490.293)" fill="#D3E3FC"/>
<circle cx="1287.59" cy="462.009" r="8" transform="rotate(-45 1287.59 462.009)" fill="#D3E3FC"/>
<circle cx="1315.87" cy="433.725" r="8" transform="rotate(-45 1315.87 433.725)" fill="#D3E3FC"/>
<circle cx="1344.16" cy="405.441" r="8" transform="rotate(-45 1344.16 405.441)" fill="#D3E3FC"/>
<circle cx="1315.87" cy="490.293" r="8" transform="rotate(-45 1315.87 490.293)" fill="#D3E3FC"/>
<circle cx="1344.16" cy="462.009" r="8" transform="rotate(-45 1344.16 462.009)" fill="#D3E3FC"/>
<circle cx="1372.44" cy="433.725" r="8" transform="rotate(-45 1372.44 433.725)" fill="#D3E3FC"/>
<circle cx="1372.44" cy="490.293" r="8" transform="rotate(-45 1372.44 490.293)" fill="#D3E3FC"/>
<circle cx="1400.72" cy="462.009" r="8" transform="rotate(-45 1400.72 462.009)" fill="#D3E3FC"/>
<circle cx="1429.01" cy="490.293" r="8" transform="rotate(-45 1429.01 490.293)" fill="#D3E3FC"/>
<circle cx="1344.16" cy="348.872" r="8" transform="rotate(-45 1344.16 348.872)" fill="#D3E3FC"/>
<circle cx="1372.44" cy="320.588" r="8" transform="rotate(-45 1372.44 320.588)" fill="#D3E3FC"/>
<circle cx="1400.73" cy="292.304" r="8" transform="rotate(-45 1400.73 292.304)" fill="#D3E3FC"/>
<circle cx="1429.01" cy="264.019" r="8" transform="rotate(-45 1429.01 264.019)" fill="#D3E3FC"/>
<circle cx="1457.29" cy="235.735" r="8" transform="rotate(-45 1457.29 235.735)" fill="#D3E3FC"/>
<circle cx="1485.58" cy="207.451" r="8" transform="rotate(-45 1485.58 207.451)" fill="#D3E3FC"/>
<circle cx="1372.44" cy="377.156" r="8" transform="rotate(-45 1372.44 377.156)" fill="#D3E3FC"/>
<circle cx="1400.72" cy="348.872" r="8" transform="rotate(-45 1400.72 348.872)" fill="#D3E3FC"/>
<circle cx="1429.01" cy="320.588" r="8" transform="rotate(-45 1429.01 320.588)" fill="#D3E3FC"/>
<circle cx="1457.29" cy="292.304" r="8" transform="rotate(-45 1457.29 292.304)" fill="#D3E3FC"/>
<circle cx="1485.58" cy="264.019" r="8" transform="rotate(-45 1485.58 264.019)" fill="#D3E3FC"/>
<circle cx="1400.73" cy="405.441" r="8" transform="rotate(-45 1400.73 405.441)" fill="#D3E3FC"/>
<circle cx="1429.01" cy="377.156" r="8" transform="rotate(-45 1429.01 377.156)" fill="#D3E3FC"/>
<circle cx="1457.29" cy="348.872" r="8" transform="rotate(-45 1457.29 348.872)" fill="#D3E3FC"/>
<circle cx="1485.58" cy="320.588" r="8" transform="rotate(-45 1485.58 320.588)" fill="#D3E3FC"/>
<circle cx="1429.01" cy="433.725" r="8" transform="rotate(-45 1429.01 433.725)" fill="#D3E3FC"/>
<circle cx="1457.29" cy="405.441" r="8" transform="rotate(-45 1457.29 405.441)" fill="#D3E3FC"/>
<circle cx="1485.58" cy="377.156" r="8" transform="rotate(-45 1485.58 377.156)" fill="#D3E3FC"/>
<circle cx="1457.29" cy="462.009" r="8" transform="rotate(-45 1457.29 462.009)" fill="#D3E3FC"/>
<circle cx="1485.58" cy="433.725" r="8" transform="rotate(-45 1485.58 433.725)" fill="#D3E3FC"/>
<circle cx="1485.58" cy="490.293" r="8" transform="rotate(-45 1485.58 490.293)" fill="#D3E3FC"/>
<path d="M358.237 114V89.5H367.302C369.262 89.5 370.884 89.8267 372.167 90.48C373.45 91.1333 374.407 92.0317 375.037 93.175C375.667 94.3183 375.982 95.6017 375.982 97.025C375.982 98.3783 375.679 99.6267 375.072 100.77C374.465 101.89 373.52 102.8 372.237 103.5C370.954 104.177 369.309 104.515 367.302 104.515H362.717V114H358.237ZM362.717 100.875H367.022C368.585 100.875 369.705 100.537 370.382 99.86C371.082 99.16 371.432 98.215 371.432 97.025C371.432 95.8117 371.082 94.8667 370.382 94.19C369.705 93.49 368.585 93.14 367.022 93.14H362.717V100.875ZM386.938 114.42C385.188 114.42 383.636 114.047 382.283 113.3C380.93 112.553 379.868 111.503 379.098 110.15C378.328 108.797 377.943 107.233 377.943 105.46C377.943 103.663 378.316 102.065 379.063 100.665C379.833 99.265 380.883 98.18 382.213 97.41C383.566 96.6167 385.153 96.22 386.973 96.22C388.676 96.22 390.181 96.5933 391.488 97.34C392.795 98.0867 393.81 99.1133 394.533 100.42C395.28 101.703 395.653 103.138 395.653 104.725C395.653 104.982 395.641 105.25 395.618 105.53C395.618 105.81 395.606 106.102 395.583 106.405H382.388C382.481 107.758 382.948 108.82 383.788 109.59C384.651 110.36 385.69 110.745 386.903 110.745C387.813 110.745 388.571 110.547 389.178 110.15C389.808 109.73 390.275 109.193 390.578 108.54H395.128C394.801 109.637 394.253 110.64 393.483 111.55C392.736 112.437 391.803 113.137 390.683 113.65C389.586 114.163 388.338 114.42 386.938 114.42ZM386.973 99.86C385.876 99.86 384.908 100.175 384.068 100.805C383.228 101.412 382.691 102.345 382.458 103.605H391.103C391.033 102.462 390.613 101.552 389.843 100.875C389.073 100.198 388.116 99.86 386.973 99.86ZM407.856 114.42C406.106 114.42 404.554 114.047 403.201 113.3C401.848 112.553 400.786 111.503 400.016 110.15C399.246 108.797 398.861 107.233 398.861 105.46C398.861 103.663 399.234 102.065 399.981 100.665C400.751 99.265 401.801 98.18 403.131 97.41C404.484 96.6167 406.071 96.22 407.891 96.22C409.594 96.22 411.099 96.5933 412.406 97.34C413.713 98.0867 414.728 99.1133 415.451 100.42C416.198 101.703 416.571 103.138 416.571 104.725C416.571 104.982 416.559 105.25 416.536 105.53C416.536 105.81 416.524 106.102 416.501 106.405H403.306C403.399 107.758 403.866 108.82 404.706 109.59C405.569 110.36 406.608 110.745 407.821 110.745C408.731 110.745 409.489 110.547 410.096 110.15C410.726 109.73 411.193 109.193 411.496 108.54H416.046C415.719 109.637 415.171 110.64 414.401 111.55C413.654 112.437 412.721 113.137 411.601 113.65C410.504 114.163 409.256 114.42 407.856 114.42ZM407.891 99.86C406.794 99.86 405.826 100.175 404.986 100.805C404.146 101.412 403.609 102.345 403.376 103.605H412.021C411.951 102.462 411.531 101.552 410.761 100.875C409.991 100.198 409.034 99.86 407.891 99.86ZM420.339 114V96.64H424.329L424.749 99.895C425.379 98.775 426.231 97.8883 427.304 97.235C428.401 96.5583 429.684 96.22 431.154 96.22V100.945H429.894C428.914 100.945 428.039 101.097 427.269 101.4C426.499 101.703 425.892 102.228 425.449 102.975C425.029 103.722 424.819 104.76 424.819 106.09V114H420.339ZM450.291 114C448.471 114 447.012 113.557 445.916 112.67C444.819 111.783 444.271 110.208 444.271 107.945V100.385H441.296V96.64H444.271L444.796 91.985H448.751V96.64H453.441V100.385H448.751V107.98C448.751 108.82 448.926 109.403 449.276 109.73C449.649 110.033 450.279 110.185 451.166 110.185H453.336V114H450.291ZM465.173 114.42C463.493 114.42 461.976 114.035 460.623 113.265C459.293 112.495 458.231 111.433 457.438 110.08C456.668 108.703 456.283 107.117 456.283 105.32C456.283 103.523 456.68 101.948 457.473 100.595C458.266 99.2183 459.328 98.145 460.658 97.375C462.011 96.605 463.528 96.22 465.208 96.22C466.865 96.22 468.358 96.605 469.688 97.375C471.041 98.145 472.103 99.2183 472.873 100.595C473.666 101.948 474.063 103.523 474.063 105.32C474.063 107.117 473.666 108.703 472.873 110.08C472.103 111.433 471.041 112.495 469.688 113.265C468.335 114.035 466.83 114.42 465.173 114.42ZM465.173 110.535C466.34 110.535 467.355 110.103 468.218 109.24C469.081 108.353 469.513 107.047 469.513 105.32C469.513 103.593 469.081 102.298 468.218 101.435C467.355 100.548 466.351 100.105 465.208 100.105C464.018 100.105 462.991 100.548 462.128 101.435C461.288 102.298 460.868 103.593 460.868 105.32C460.868 107.047 461.288 108.353 462.128 109.24C462.991 110.103 464.006 110.535 465.173 110.535ZM486.408 121.7V96.64H490.398L490.888 99.125C491.448 98.355 492.183 97.6783 493.093 97.095C494.027 96.5117 495.228 96.22 496.698 96.22C498.332 96.22 499.79 96.6167 501.073 97.41C502.357 98.2033 503.372 99.2883 504.118 100.665C504.865 102.042 505.238 103.605 505.238 105.355C505.238 107.105 504.865 108.668 504.118 110.045C503.372 111.398 502.357 112.472 501.073 113.265C499.79 114.035 498.332 114.42 496.698 114.42C495.392 114.42 494.248 114.175 493.268 113.685C492.288 113.195 491.495 112.507 490.888 111.62V121.7H486.408ZM495.753 110.5C497.177 110.5 498.355 110.022 499.288 109.065C500.222 108.108 500.688 106.872 500.688 105.355C500.688 103.838 500.222 102.59 499.288 101.61C498.355 100.63 497.177 100.14 495.753 100.14C494.307 100.14 493.117 100.63 492.183 101.61C491.273 102.567 490.818 103.803 490.818 105.32C490.818 106.837 491.273 108.085 492.183 109.065C493.117 110.022 494.307 110.5 495.753 110.5ZM517.675 114.42C515.925 114.42 514.374 114.047 513.02 113.3C511.667 112.553 510.605 111.503 509.835 110.15C509.065 108.797 508.68 107.233 508.68 105.46C508.68 103.663 509.054 102.065 509.8 100.665C510.57 99.265 511.62 98.18 512.95 97.41C514.304 96.6167 515.89 96.22 517.71 96.22C519.414 96.22 520.919 96.5933 522.225 97.34C523.532 98.0867 524.547 99.1133 525.27 100.42C526.017 101.703 526.39 103.138 526.39 104.725C526.39 104.982 526.379 105.25 526.355 105.53C526.355 105.81 526.344 106.102 526.32 106.405H513.125C513.219 107.758 513.685 108.82 514.525 109.59C515.389 110.36 516.427 110.745 517.64 110.745C518.55 110.745 519.309 110.547 519.915 110.15C520.545 109.73 521.012 109.193 521.315 108.54H525.865C525.539 109.637 524.99 110.64 524.22 111.55C523.474 112.437 522.54 113.137 521.42 113.65C520.324 114.163 519.075 114.42 517.675 114.42ZM517.71 99.86C516.614 99.86 515.645 100.175 514.805 100.805C513.965 101.412 513.429 102.345 513.195 103.605H521.84C521.77 102.462 521.35 101.552 520.58 100.875C519.81 100.198 518.854 99.86 517.71 99.86ZM538.593 114.42C536.843 114.42 535.292 114.047 533.938 113.3C532.585 112.553 531.523 111.503 530.753 110.15C529.983 108.797 529.598 107.233 529.598 105.46C529.598 103.663 529.972 102.065 530.718 100.665C531.488 99.265 532.538 98.18 533.868 97.41C535.222 96.6167 536.808 96.22 538.628 96.22C540.332 96.22 541.837 96.5933 543.143 97.34C544.45 98.0867 545.465 99.1133 546.188 100.42C546.935 101.703 547.308 103.138 547.308 104.725C547.308 104.982 547.297 105.25 547.273 105.53C547.273 105.81 547.262 106.102 547.238 106.405H534.043C534.137 107.758 534.603 108.82 535.443 109.59C536.307 110.36 537.345 110.745 538.558 110.745C539.468 110.745 540.227 110.547 540.833 110.15C541.463 109.73 541.93 109.193 542.233 108.54H546.783C546.457 109.637 545.908 110.64 545.138 111.55C544.392 112.437 543.458 113.137 542.338 113.65C541.242 114.163 539.993 114.42 538.593 114.42ZM538.628 99.86C537.532 99.86 536.563 100.175 535.723 100.805C534.883 101.412 534.347 102.345 534.113 103.605H542.758C542.688 102.462 542.268 101.552 541.498 100.875C540.728 100.198 539.772 99.86 538.628 99.86ZM551.076 114V96.64H555.066L555.486 99.895C556.116 98.775 556.968 97.8883 558.041 97.235C559.138 96.5583 560.421 96.22 561.891 96.22V100.945H560.631C559.651 100.945 558.776 101.097 558.006 101.4C557.236 101.703 556.63 102.228 556.186 102.975C555.766 103.722 555.556 104.76 555.556 106.09V114H551.076ZM574.098 114V100.385H571.718V96.64H574.098V94.61C574.098 92.51 574.623 91.0167 575.673 90.13C576.746 89.2433 578.193 88.8 580.013 88.8H581.938V92.615H580.713C579.943 92.615 579.395 92.7667 579.068 93.07C578.741 93.3733 578.578 93.8867 578.578 94.61V96.64H589.778V114H585.298V100.385H578.578V114H574.098ZM587.573 94.155C586.756 94.155 586.08 93.91 585.543 93.42C585.03 92.93 584.773 92.3117 584.773 91.565C584.773 90.8183 585.03 90.2117 585.543 89.745C586.08 89.255 586.756 89.01 587.573 89.01C588.39 89.01 589.055 89.255 589.568 89.745C590.105 90.2117 590.373 90.8183 590.373 91.565C590.373 92.3117 590.105 92.93 589.568 93.42C589.055 93.91 588.39 94.155 587.573 94.155ZM594.519 114V88.8H598.999V114H594.519ZM612.011 114.42C610.261 114.42 608.71 114.047 607.356 113.3C606.003 112.553 604.941 111.503 604.171 110.15C603.401 108.797 603.016 107.233 603.016 105.46C603.016 103.663 603.39 102.065 604.136 100.665C604.906 99.265 605.956 98.18 607.286 97.41C608.64 96.6167 610.226 96.22 612.046 96.22C613.75 96.22 615.255 96.5933 616.561 97.34C617.868 98.0867 618.883 99.1133 619.606 100.42C620.353 101.703 620.726 103.138 620.726 104.725C620.726 104.982 620.715 105.25 620.691 105.53C620.691 105.81 620.68 106.102 620.656 106.405H607.461C607.555 107.758 608.021 108.82 608.861 109.59C609.725 110.36 610.763 110.745 611.976 110.745C612.886 110.745 613.645 110.547 614.251 110.15C614.881 109.73 615.348 109.193 615.651 108.54H620.201C619.875 109.637 619.326 110.64 618.556 111.55C617.81 112.437 616.876 113.137 615.756 113.65C614.66 114.163 613.411 114.42 612.011 114.42ZM612.046 99.86C610.95 99.86 609.981 100.175 609.141 100.805C608.301 101.412 607.765 102.345 607.531 103.605H616.176C616.106 102.462 615.686 101.552 614.916 100.875C614.146 100.198 613.19 99.86 612.046 99.86ZM640.569 114C638.749 114 637.291 113.557 636.194 112.67C635.097 111.783 634.549 110.208 634.549 107.945V100.385H631.574V96.64H634.549L635.074 91.985H639.029V96.64H643.719V100.385H639.029V107.98C639.029 108.82 639.204 109.403 639.554 109.73C639.927 110.033 640.557 110.185 641.444 110.185H643.614V114H640.569ZM647.566 114V96.64H651.556L651.976 99.895C652.606 98.775 653.457 97.8883 654.531 97.235C655.627 96.5583 656.911 96.22 658.381 96.22V100.945H657.121C656.141 100.945 655.266 101.097 654.496 101.4C653.726 101.703 653.119 102.228 652.676 102.975C652.256 103.722 652.046 104.76 652.046 106.09V114H647.566ZM667.427 114.42C665.934 114.42 664.709 114.187 663.752 113.72C662.796 113.23 662.084 112.588 661.617 111.795C661.151 111.002 660.917 110.127 660.917 109.17C660.917 107.56 661.547 106.253 662.807 105.25C664.067 104.247 665.957 103.745 668.477 103.745H672.887V103.325C672.887 102.135 672.549 101.26 671.872 100.7C671.196 100.14 670.356 99.86 669.352 99.86C668.442 99.86 667.649 100.082 666.972 100.525C666.296 100.945 665.876 101.575 665.712 102.415H661.337C661.454 101.155 661.874 100.058 662.597 99.125C663.344 98.1917 664.301 97.48 665.467 96.99C666.634 96.4767 667.941 96.22 669.387 96.22C671.861 96.22 673.809 96.8383 675.232 98.075C676.656 99.3117 677.367 101.062 677.367 103.325V114H673.552L673.132 111.2C672.619 112.133 671.896 112.903 670.962 113.51C670.052 114.117 668.874 114.42 667.427 114.42ZM668.442 110.92C669.726 110.92 670.717 110.5 671.417 109.66C672.141 108.82 672.596 107.782 672.782 106.545H668.967C667.777 106.545 666.926 106.767 666.412 107.21C665.899 107.63 665.642 108.155 665.642 108.785C665.642 109.462 665.899 109.987 666.412 110.36C666.926 110.733 667.602 110.92 668.442 110.92ZM681.643 114V96.64H685.598L685.948 99.58C686.484 98.5533 687.254 97.7367 688.258 97.13C689.284 96.5233 690.486 96.22 691.863 96.22C694.009 96.22 695.678 96.8967 696.868 98.25C698.058 99.6033 698.653 101.587 698.653 104.2V114H694.173V104.62C694.173 103.127 693.869 101.983 693.263 101.19C692.656 100.397 691.711 100 690.428 100C689.168 100 688.129 100.443 687.313 101.33C686.519 102.217 686.123 103.453 686.123 105.04V114H681.643ZM710.112 114.42C708.572 114.42 707.218 114.175 706.052 113.685C704.885 113.172 703.952 112.472 703.252 111.585C702.552 110.698 702.132 109.672 701.992 108.505H706.507C706.647 109.182 707.02 109.765 707.627 110.255C708.257 110.722 709.062 110.955 710.042 110.955C711.022 110.955 711.733 110.757 712.177 110.36C712.643 109.963 712.877 109.508 712.877 108.995C712.877 108.248 712.55 107.747 711.897 107.49C711.243 107.21 710.333 106.942 709.167 106.685C708.42 106.522 707.662 106.323 706.892 106.09C706.122 105.857 705.41 105.565 704.757 105.215C704.127 104.842 703.613 104.375 703.217 103.815C702.82 103.232 702.622 102.52 702.622 101.68C702.622 100.14 703.228 98.845 704.442 97.795C705.678 96.745 707.405 96.22 709.622 96.22C711.675 96.22 713.308 96.6983 714.522 97.655C715.758 98.6117 716.493 99.93 716.727 101.61H712.492C712.235 100.327 711.267 99.685 709.587 99.685C708.747 99.685 708.093 99.8483 707.627 100.175C707.183 100.502 706.962 100.91 706.962 101.4C706.962 101.913 707.3 102.322 707.977 102.625C708.653 102.928 709.552 103.208 710.672 103.465C711.885 103.745 712.993 104.06 713.997 104.41C715.023 104.737 715.84 105.238 716.447 105.915C717.053 106.568 717.357 107.513 717.357 108.75C717.38 109.823 717.1 110.792 716.517 111.655C715.933 112.518 715.093 113.195 713.997 113.685C712.9 114.175 711.605 114.42 710.112 114.42ZM722.13 114V100.385H719.75V96.64H722.13V94.61C722.13 92.51 722.655 91.0167 723.705 90.13C724.779 89.2433 726.225 88.8 728.045 88.8H729.97V92.615H728.745C727.975 92.615 727.427 92.7667 727.1 93.07C726.774 93.3733 726.61 93.8867 726.61 94.61V96.64H730.355V100.385H726.61V114H722.13ZM741.655 114.42C739.905 114.42 738.353 114.047 737 113.3C735.646 112.553 734.585 111.503 733.815 110.15C733.045 108.797 732.66 107.233 732.66 105.46C732.66 103.663 733.033 102.065 733.78 100.665C734.55 99.265 735.6 98.18 736.93 97.41C738.283 96.6167 739.87 96.22 741.69 96.22C743.393 96.22 744.898 96.5933 746.205 97.34C747.511 98.0867 748.526 99.1133 749.25 100.42C749.996 101.703 750.37 103.138 750.37 104.725C750.37 104.982 750.358 105.25 750.335 105.53C750.335 105.81 750.323 106.102 750.3 106.405H737.105C737.198 107.758 737.665 108.82 738.505 109.59C739.368 110.36 740.406 110.745 741.62 110.745C742.53 110.745 743.288 110.547 743.895 110.15C744.525 109.73 744.991 109.193 745.295 108.54H749.845C749.518 109.637 748.97 110.64 748.2 111.55C747.453 112.437 746.52 113.137 745.4 113.65C744.303 114.163 743.055 114.42 741.655 114.42ZM741.69 99.86C740.593 99.86 739.625 100.175 738.785 100.805C737.945 101.412 737.408 102.345 737.175 103.605H745.82C745.75 102.462 745.33 101.552 744.56 100.875C743.79 100.198 742.833 99.86 741.69 99.86ZM754.138 114V96.64H758.128L758.548 99.895C759.178 98.775 760.029 97.8883 761.103 97.235C762.199 96.5583 763.483 96.22 764.953 96.22V100.945H763.693C762.713 100.945 761.838 101.097 761.068 101.4C760.298 101.703 759.691 102.228 759.248 102.975C758.828 103.722 758.618 104.76 758.618 106.09V114H754.138ZM768.538 114.245C767.722 114.245 767.045 113.988 766.508 113.475C765.995 112.962 765.738 112.343 765.738 111.62C765.738 110.873 765.995 110.243 766.508 109.73C767.045 109.217 767.722 108.96 768.538 108.96C769.355 108.96 770.02 109.217 770.533 109.73C771.07 110.243 771.338 110.873 771.338 111.62C771.338 112.343 771.07 112.962 770.533 113.475C770.02 113.988 769.355 114.245 768.538 114.245ZM783.466 114V89.5H799.461V93.105H787.946V99.825H798.411V103.325H787.946V110.395H799.461V114H783.466ZM809.581 114.42C808.087 114.42 806.862 114.187 805.906 113.72C804.949 113.23 804.237 112.588 803.771 111.795C803.304 111.002 803.071 110.127 803.071 109.17C803.071 107.56 803.701 106.253 804.961 105.25C806.221 104.247 808.111 103.745 810.631 103.745H815.041V103.325C815.041 102.135 814.702 101.26 814.026 100.7C813.349 100.14 812.509 99.86 811.506 99.86C810.596 99.86 809.802 100.082 809.126 100.525C808.449 100.945 808.029 101.575 807.866 102.415H803.491C803.607 101.155 804.027 100.058 804.751 99.125C805.497 98.1917 806.454 97.48 807.621 96.99C808.787 96.4767 810.094 96.22 811.541 96.22C814.014 96.22 815.962 96.8383 817.386 98.075C818.809 99.3117 819.521 101.062 819.521 103.325V114H815.706L815.286 111.2C814.772 112.133 814.049 112.903 813.116 113.51C812.206 114.117 811.027 114.42 809.581 114.42ZM810.596 110.92C811.879 110.92 812.871 110.5 813.571 109.66C814.294 108.82 814.749 107.782 814.936 106.545H811.121C809.931 106.545 809.079 106.767 808.566 107.21C808.052 107.63 807.796 108.155 807.796 108.785C807.796 109.462 808.052 109.987 808.566 110.36C809.079 110.733 809.756 110.92 810.596 110.92ZM830.971 114.42C829.431 114.42 828.078 114.175 826.911 113.685C825.744 113.172 824.811 112.472 824.111 111.585C823.411 110.698 822.991 109.672 822.851 108.505H827.366C827.506 109.182 827.879 109.765 828.486 110.255C829.116 110.722 829.921 110.955 830.901 110.955C831.881 110.955 832.593 110.757 833.036 110.36C833.503 109.963 833.736 109.508 833.736 108.995C833.736 108.248 833.409 107.747 832.756 107.49C832.103 107.21 831.193 106.942 830.026 106.685C829.279 106.522 828.521 106.323 827.751 106.09C826.981 105.857 826.269 105.565 825.616 105.215C824.986 104.842 824.473 104.375 824.076 103.815C823.679 103.232 823.481 102.52 823.481 101.68C823.481 100.14 824.088 98.845 825.301 97.795C826.538 96.745 828.264 96.22 830.481 96.22C832.534 96.22 834.168 96.6983 835.381 97.655C836.618 98.6117 837.353 99.93 837.586 101.61H833.351C833.094 100.327 832.126 99.685 830.446 99.685C829.606 99.685 828.953 99.8483 828.486 100.175C828.043 100.502 827.821 100.91 827.821 101.4C827.821 101.913 828.159 102.322 828.836 102.625C829.513 102.928 830.411 103.208 831.531 103.465C832.744 103.745 833.853 104.06 834.856 104.41C835.883 104.737 836.699 105.238 837.306 105.915C837.913 106.568 838.216 107.513 838.216 108.75C838.239 109.823 837.959 110.792 837.376 111.655C836.793 112.518 835.953 113.195 834.856 113.685C833.759 114.175 832.464 114.42 830.971 114.42ZM843.432 121.7L847.457 112.845H846.407L839.652 96.64H844.517L849.382 108.855L854.457 96.64H859.217L848.192 121.7H843.432ZM858.036 118.06L860.031 109.345H864.371L860.976 118.06H858.036ZM877.067 114V100.385H874.687V96.64H877.067V94.61C877.067 92.51 877.592 91.0167 878.642 90.13C879.715 89.2433 881.162 88.8 882.982 88.8H884.907V92.615H883.682C882.912 92.615 882.363 92.7667 882.037 93.07C881.71 93.3733 881.547 93.8867 881.547 94.61V96.64H885.292V100.385H881.547V114H877.067ZM894.141 114.42C892.648 114.42 891.423 114.187 890.466 113.72C889.51 113.23 888.798 112.588 888.331 111.795C887.865 111.002 887.631 110.127 887.631 109.17C887.631 107.56 888.261 106.253 889.521 105.25C890.781 104.247 892.671 103.745 895.191 103.745H899.601V103.325C899.601 102.135 899.263 101.26 898.586 100.7C897.91 100.14 897.07 99.86 896.066 99.86C895.156 99.86 894.363 100.082 893.686 100.525C893.01 100.945 892.59 101.575 892.426 102.415H888.051C888.168 101.155 888.588 100.058 889.311 99.125C890.058 98.1917 891.015 97.48 892.181 96.99C893.348 96.4767 894.655 96.22 896.101 96.22C898.575 96.22 900.523 96.8383 901.946 98.075C903.37 99.3117 904.081 101.062 904.081 103.325V114H900.266L899.846 111.2C899.333 112.133 898.61 112.903 897.676 113.51C896.766 114.117 895.588 114.42 894.141 114.42ZM895.156 110.92C896.44 110.92 897.431 110.5 898.131 109.66C898.855 108.82 899.31 107.782 899.496 106.545H895.681C894.491 106.545 893.64 106.767 893.126 107.21C892.613 107.63 892.356 108.155 892.356 108.785C892.356 109.462 892.613 109.987 893.126 110.36C893.64 110.733 894.316 110.92 895.156 110.92ZM915.532 114.42C913.992 114.42 912.638 114.175 911.472 113.685C910.305 113.172 909.372 112.472 908.672 111.585C907.972 110.698 907.552 109.672 907.412 108.505H911.927C912.067 109.182 912.44 109.765 913.047 110.255C913.677 110.722 914.482 110.955 915.462 110.955C916.442 110.955 917.153 110.757 917.597 110.36C918.063 109.963 918.297 109.508 918.297 108.995C918.297 108.248 917.97 107.747 917.317 107.49C916.663 107.21 915.753 106.942 914.587 106.685C913.84 106.522 913.082 106.323 912.312 106.09C911.542 105.857 910.83 105.565 910.177 105.215C909.547 104.842 909.033 104.375 908.637 103.815C908.24 103.232 908.042 102.52 908.042 101.68C908.042 100.14 908.648 98.845 909.862 97.795C911.098 96.745 912.825 96.22 915.042 96.22C917.095 96.22 918.728 96.6983 919.942 97.655C921.178 98.6117 921.913 99.93 922.147 101.61H917.912C917.655 100.327 916.687 99.685 915.007 99.685C914.167 99.685 913.513 99.8483 913.047 100.175C912.603 100.502 912.382 100.91 912.382 101.4C912.382 101.913 912.72 102.322 913.397 102.625C914.073 102.928 914.972 103.208 916.092 103.465C917.305 103.745 918.413 104.06 919.417 104.41C920.443 104.737 921.26 105.238 921.867 105.915C922.473 106.568 922.777 107.513 922.777 108.75C922.8 109.823 922.52 110.792 921.937 111.655C921.353 112.518 920.513 113.195 919.417 113.685C918.32 114.175 917.025 114.42 915.532 114.42ZM933.933 114C932.113 114 930.655 113.557 929.558 112.67C928.462 111.783 927.913 110.208 927.913 107.945V100.385H924.938V96.64H927.913L928.438 91.985H932.393V96.64H937.083V100.385H932.393V107.98C932.393 108.82 932.568 109.403 932.918 109.73C933.292 110.033 933.922 110.185 934.808 110.185H936.978V114H933.933ZM955.255 114.42C953.761 114.42 952.536 114.187 951.58 113.72C950.623 113.23 949.911 112.588 949.445 111.795C948.978 111.002 948.745 110.127 948.745 109.17C948.745 107.56 949.375 106.253 950.635 105.25C951.895 104.247 953.785 103.745 956.305 103.745H960.715V103.325C960.715 102.135 960.376 101.26 959.7 100.7C959.023 100.14 958.183 99.86 957.18 99.86C956.27 99.86 955.476 100.082 954.8 100.525C954.123 100.945 953.703 101.575 953.54 102.415H949.165C949.281 101.155 949.701 100.058 950.425 99.125C951.171 98.1917 952.128 97.48 953.295 96.99C954.461 96.4767 955.768 96.22 957.215 96.22C959.688 96.22 961.636 96.8383 963.06 98.075C964.483 99.3117 965.195 101.062 965.195 103.325V114H961.38L960.96 111.2C960.446 112.133 959.723 112.903 958.79 113.51C957.88 114.117 956.701 114.42 955.255 114.42ZM956.27 110.92C957.553 110.92 958.545 110.5 959.245 109.66C959.968 108.82 960.423 107.782 960.61 106.545H956.795C955.605 106.545 954.753 106.767 954.24 107.21C953.726 107.63 953.47 108.155 953.47 108.785C953.47 109.462 953.726 109.987 954.24 110.36C954.753 110.733 955.43 110.92 956.27 110.92ZM969.47 114V96.64H973.425L973.775 99.58C974.311 98.5533 975.081 97.7367 976.085 97.13C977.111 96.5233 978.313 96.22 979.69 96.22C981.836 96.22 983.505 96.8967 984.695 98.25C985.885 99.6033 986.48 101.587 986.48 104.2V114H982V104.62C982 103.127 981.696 101.983 981.09 101.19C980.483 100.397 979.538 100 978.255 100C976.995 100 975.956 100.443 975.14 101.33C974.346 102.217 973.95 103.453 973.95 105.04V114H969.47ZM998.744 114.42C997.11 114.42 995.652 114.023 994.369 113.23C993.085 112.437 992.07 111.352 991.324 109.975C990.577 108.598 990.204 107.035 990.204 105.285C990.204 103.535 990.577 101.983 991.324 100.63C992.07 99.2533 993.085 98.18 994.369 97.41C995.652 96.6167 997.11 96.22 998.744 96.22C1000.05 96.22 1001.19 96.465 1002.17 96.955C1003.15 97.445 1003.95 98.1333 1004.55 99.02V88.8H1009.03V114H1005.04L1004.55 111.515C1003.99 112.285 1003.25 112.962 1002.31 113.545C1001.4 114.128 1000.21 114.42 998.744 114.42ZM999.689 110.5C1001.14 110.5 1002.31 110.022 1003.22 109.065C1004.16 108.085 1004.62 106.837 1004.62 105.32C1004.62 103.803 1004.16 102.567 1003.22 101.61C1002.31 100.63 1001.14 100.14 999.689 100.14C998.265 100.14 997.087 100.618 996.154 101.575C995.22 102.532 994.754 103.768 994.754 105.285C994.754 106.802 995.22 108.05 996.154 109.03C997.087 110.01 998.265 110.5 999.689 110.5ZM1029.11 114.42C1027.57 114.42 1026.22 114.175 1025.05 113.685C1023.88 113.172 1022.95 112.472 1022.25 111.585C1021.55 110.698 1021.13 109.672 1020.99 108.505H1025.51C1025.65 109.182 1026.02 109.765 1026.63 110.255C1027.26 110.722 1028.06 110.955 1029.04 110.955C1030.02 110.955 1030.73 110.757 1031.18 110.36C1031.64 109.963 1031.88 109.508 1031.88 108.995C1031.88 108.248 1031.55 107.747 1030.9 107.49C1030.24 107.21 1029.33 106.942 1028.17 106.685C1027.42 106.522 1026.66 106.323 1025.89 106.09C1025.12 105.857 1024.41 105.565 1023.76 105.215C1023.13 104.842 1022.61 104.375 1022.22 103.815C1021.82 103.232 1021.62 102.52 1021.62 101.68C1021.62 100.14 1022.23 98.845 1023.44 97.795C1024.68 96.745 1026.4 96.22 1028.62 96.22C1030.67 96.22 1032.31 96.6983 1033.52 97.655C1034.76 98.6117 1035.49 99.93 1035.73 101.61H1031.49C1031.23 100.327 1030.27 99.685 1028.59 99.685C1027.75 99.685 1027.09 99.8483 1026.63 100.175C1026.18 100.502 1025.96 100.91 1025.96 101.4C1025.96 101.913 1026.3 102.322 1026.98 102.625C1027.65 102.928 1028.55 103.208 1029.67 103.465C1030.88 103.745 1031.99 104.06 1033 104.41C1034.02 104.737 1034.84 105.238 1035.45 105.915C1036.05 106.568 1036.36 107.513 1036.36 108.75C1036.38 109.823 1036.1 110.792 1035.52 111.655C1034.93 112.518 1034.09 113.195 1033 113.685C1031.9 114.175 1030.6 114.42 1029.11 114.42ZM1048.76 114.42C1047.01 114.42 1045.46 114.047 1044.1 113.3C1042.75 112.553 1041.69 111.503 1040.92 110.15C1040.15 108.797 1039.76 107.233 1039.76 105.46C1039.76 103.663 1040.14 102.065 1040.88 100.665C1041.65 99.265 1042.7 98.18 1044.03 97.41C1045.39 96.6167 1046.97 96.22 1048.79 96.22C1050.5 96.22 1052 96.5933 1053.31 97.34C1054.62 98.0867 1055.63 99.1133 1056.35 100.42C1057.1 101.703 1057.47 103.138 1057.47 104.725C1057.47 104.982 1057.46 105.25 1057.44 105.53C1057.44 105.81 1057.43 106.102 1057.4 106.405H1044.21C1044.3 107.758 1044.77 108.82 1045.61 109.59C1046.47 110.36 1047.51 110.745 1048.72 110.745C1049.63 110.745 1050.39 110.547 1051 110.15C1051.63 109.73 1052.1 109.193 1052.4 108.54H1056.95C1056.62 109.637 1056.07 110.64 1055.3 111.55C1054.56 112.437 1053.62 113.137 1052.5 113.65C1051.41 114.163 1050.16 114.42 1048.76 114.42ZM1048.79 99.86C1047.7 99.86 1046.73 100.175 1045.89 100.805C1045.05 101.412 1044.51 102.345 1044.28 103.605H1052.92C1052.85 102.462 1052.43 101.552 1051.66 100.875C1050.89 100.198 1049.94 99.86 1048.79 99.86ZM1069.75 114.42C1067.97 114.42 1066.41 114.035 1065.06 113.265C1063.7 112.495 1062.63 111.422 1061.84 110.045C1061.07 108.668 1060.68 107.093 1060.68 105.32C1060.68 103.547 1061.07 101.972 1061.84 100.595C1062.63 99.2183 1063.7 98.145 1065.06 97.375C1066.41 96.605 1067.97 96.22 1069.75 96.22C1071.96 96.22 1073.83 96.8033 1075.35 97.97C1076.86 99.1133 1077.83 100.7 1078.25 102.73H1073.53C1073.29 101.89 1072.83 101.237 1072.13 100.77C1071.45 100.28 1070.65 100.035 1069.71 100.035C1068.48 100.035 1067.43 100.502 1066.56 101.435C1065.7 102.368 1065.27 103.663 1065.27 105.32C1065.27 106.977 1065.7 108.272 1066.56 109.205C1067.43 110.138 1068.48 110.605 1069.71 110.605C1070.65 110.605 1071.45 110.372 1072.13 109.905C1072.83 109.438 1073.29 108.773 1073.53 107.91H1078.25C1077.83 109.87 1076.86 111.445 1075.35 112.635C1073.83 113.825 1071.96 114.42 1069.75 114.42ZM1088.74 114.42C1086.57 114.42 1084.89 113.743 1083.7 112.39C1082.53 111.037 1081.95 109.053 1081.95 106.44V96.64H1086.39V106.02C1086.39 107.513 1086.7 108.657 1087.3 109.45C1087.91 110.243 1088.87 110.64 1090.17 110.64C1091.41 110.64 1092.43 110.197 1093.22 109.31C1094.04 108.423 1094.44 107.187 1094.44 105.6V96.64H1098.92V114H1094.97L1094.62 111.06C1094.08 112.087 1093.3 112.903 1092.27 113.51C1091.27 114.117 1090.09 114.42 1088.74 114.42ZM1103.52 114V96.64H1107.51L1107.93 99.895C1108.56 98.775 1109.41 97.8883 1110.49 97.235C1111.58 96.5583 1112.87 96.22 1114.34 96.22V100.945H1113.08C1112.1 100.945 1111.22 101.097 1110.45 101.4C1109.68 101.703 1109.08 102.228 1108.63 102.975C1108.21 103.722 1108 104.76 1108 106.09V114H1103.52ZM1125.53 114.42C1123.78 114.42 1122.23 114.047 1120.87 113.3C1119.52 112.553 1118.46 111.503 1117.69 110.15C1116.92 108.797 1116.53 107.233 1116.53 105.46C1116.53 103.663 1116.91 102.065 1117.65 100.665C1118.42 99.265 1119.47 98.18 1120.8 97.41C1122.16 96.6167 1123.74 96.22 1125.56 96.22C1127.27 96.22 1128.77 96.5933 1130.08 97.34C1131.38 98.0867 1132.4 99.1133 1133.12 100.42C1133.87 101.703 1134.24 103.138 1134.24 104.725C1134.24 104.982 1134.23 105.25 1134.21 105.53C1134.21 105.81 1134.2 106.102 1134.17 106.405H1120.98C1121.07 107.758 1121.54 108.82 1122.38 109.59C1123.24 110.36 1124.28 110.745 1125.49 110.745C1126.4 110.745 1127.16 110.547 1127.77 110.15C1128.4 109.73 1128.86 109.193 1129.17 108.54H1133.72C1133.39 109.637 1132.84 110.64 1132.07 111.55C1131.33 112.437 1130.39 113.137 1129.27 113.65C1128.18 114.163 1126.93 114.42 1125.53 114.42ZM1125.56 99.86C1124.47 99.86 1123.5 100.175 1122.66 100.805C1121.82 101.412 1121.28 102.345 1121.05 103.605H1129.69C1129.62 102.462 1129.2 101.552 1128.43 100.875C1127.66 100.198 1126.71 99.86 1125.56 99.86ZM1139.93 114.245C1139.12 114.245 1138.44 113.988 1137.9 113.475C1137.39 112.962 1137.13 112.343 1137.13 111.62C1137.13 110.873 1137.39 110.243 1137.9 109.73C1138.44 109.217 1139.12 108.96 1139.93 108.96C1140.75 108.96 1141.42 109.217 1141.93 109.73C1142.47 110.243 1142.73 110.873 1142.73 111.62C1142.73 112.343 1142.47 112.962 1141.93 113.475C1141.42 113.988 1140.75 114.245 1139.93 114.245ZM599.904 159V134.5H609.739C612.283 134.5 614.219 135.095 615.549 136.285C616.903 137.452 617.579 138.957 617.579 140.8C617.579 142.34 617.159 143.577 616.319 144.51C615.503 145.42 614.499 146.038 613.309 146.365C614.709 146.645 615.864 147.345 616.774 148.465C617.684 149.562 618.139 150.845 618.139 152.315C618.139 154.252 617.439 155.85 616.039 157.11C614.639 158.37 612.656 159 610.089 159H599.904ZM604.384 144.79H609.074C610.334 144.79 611.303 144.498 611.979 143.915C612.656 143.332 612.994 142.503 612.994 141.43C612.994 140.403 612.656 139.598 611.979 139.015C611.326 138.408 610.334 138.105 609.004 138.105H604.384V144.79ZM604.384 155.36H609.389C610.719 155.36 611.746 155.057 612.469 154.45C613.216 153.82 613.589 152.945 613.589 151.825C613.589 150.682 613.204 149.783 612.434 149.13C611.664 148.477 610.626 148.15 609.319 148.15H604.384V155.36ZM627.864 159.42C626.371 159.42 625.146 159.187 624.189 158.72C623.233 158.23 622.521 157.588 622.054 156.795C621.588 156.002 621.354 155.127 621.354 154.17C621.354 152.56 621.984 151.253 623.244 150.25C624.504 149.247 626.394 148.745 628.914 148.745H633.324V148.325C633.324 147.135 632.986 146.26 632.309 145.7C631.633 145.14 630.793 144.86 629.789 144.86C628.879 144.86 628.086 145.082 627.409 145.525C626.733 145.945 626.313 146.575 626.149 147.415H621.774C621.891 146.155 622.311 145.058 623.034 144.125C623.781 143.192 624.738 142.48 625.904 141.99C627.071 141.477 628.378 141.22 629.824 141.22C632.298 141.22 634.246 141.838 635.669 143.075C637.093 144.312 637.804 146.062 637.804 148.325V159H633.989L633.569 156.2C633.056 157.133 632.333 157.903 631.399 158.51C630.489 159.117 629.311 159.42 627.864 159.42ZM628.879 155.92C630.163 155.92 631.154 155.5 631.854 154.66C632.578 153.82 633.033 152.782 633.219 151.545H629.404C628.214 151.545 627.363 151.767 626.849 152.21C626.336 152.63 626.079 153.155 626.079 153.785C626.079 154.462 626.336 154.987 626.849 155.36C627.363 155.733 628.039 155.92 628.879 155.92ZM650.585 159.42C648.811 159.42 647.248 159.035 645.895 158.265C644.541 157.495 643.468 156.422 642.675 155.045C641.905 153.668 641.52 152.093 641.52 150.32C641.52 148.547 641.905 146.972 642.675 145.595C643.468 144.218 644.541 143.145 645.895 142.375C647.248 141.605 648.811 141.22 650.585 141.22C652.801 141.22 654.668 141.803 656.185 142.97C657.701 144.113 658.67 145.7 659.09 147.73H654.365C654.131 146.89 653.665 146.237 652.965 145.77C652.288 145.28 651.483 145.035 650.55 145.035C649.313 145.035 648.263 145.502 647.4 146.435C646.536 147.368 646.105 148.663 646.105 150.32C646.105 151.977 646.536 153.272 647.4 154.205C648.263 155.138 649.313 155.605 650.55 155.605C651.483 155.605 652.288 155.372 652.965 154.905C653.665 154.438 654.131 153.773 654.365 152.91H659.09C658.67 154.87 657.701 156.445 656.185 157.635C654.668 158.825 652.801 159.42 650.585 159.42ZM663.066 159V133.8H667.546V148.675L673.706 141.64H679.026L671.921 149.55L680.181 159H674.581L667.546 150.285V159H663.066ZM689.958 159.42C688.208 159.42 686.656 159.047 685.303 158.3C683.95 157.553 682.888 156.503 682.118 155.15C681.348 153.797 680.963 152.233 680.963 150.46C680.963 148.663 681.336 147.065 682.083 145.665C682.853 144.265 683.903 143.18 685.233 142.41C686.586 141.617 688.173 141.22 689.993 141.22C691.696 141.22 693.201 141.593 694.508 142.34C695.815 143.087 696.83 144.113 697.553 145.42C698.3 146.703 698.673 148.138 698.673 149.725C698.673 149.982 698.661 150.25 698.638 150.53C698.638 150.81 698.626 151.102 698.603 151.405H685.408C685.501 152.758 685.968 153.82 686.808 154.59C687.671 155.36 688.71 155.745 689.923 155.745C690.833 155.745 691.591 155.547 692.198 155.15C692.828 154.73 693.295 154.193 693.598 153.54H698.148C697.821 154.637 697.273 155.64 696.503 156.55C695.756 157.437 694.823 158.137 693.703 158.65C692.606 159.163 691.358 159.42 689.958 159.42ZM689.993 144.86C688.896 144.86 687.928 145.175 687.088 145.805C686.248 146.412 685.711 147.345 685.478 148.605H694.123C694.053 147.462 693.633 146.552 692.863 145.875C692.093 145.198 691.136 144.86 689.993 144.86ZM710.421 159.42C708.788 159.42 707.329 159.023 706.046 158.23C704.763 157.437 703.748 156.352 703.001 154.975C702.254 153.598 701.881 152.035 701.881 150.285C701.881 148.535 702.254 146.983 703.001 145.63C703.748 144.253 704.763 143.18 706.046 142.41C707.329 141.617 708.788 141.22 710.421 141.22C711.728 141.22 712.871 141.465 713.851 141.955C714.831 142.445 715.624 143.133 716.231 144.02V133.8H720.711V159H716.721L716.231 156.515C715.671 157.285 714.924 157.962 713.991 158.545C713.081 159.128 711.891 159.42 710.421 159.42ZM711.366 155.5C712.813 155.5 713.991 155.022 714.901 154.065C715.834 153.085 716.301 151.837 716.301 150.32C716.301 148.803 715.834 147.567 714.901 146.61C713.991 145.63 712.813 145.14 711.366 145.14C709.943 145.14 708.764 145.618 707.831 146.575C706.898 147.532 706.431 148.768 706.431 150.285C706.431 151.802 706.898 153.05 707.831 154.03C708.764 155.01 709.943 155.5 711.366 155.5ZM743.903 159.42C742.596 159.42 741.453 159.175 740.473 158.685C739.493 158.195 738.7 157.507 738.093 156.62L737.603 159H733.613V133.8H738.093V144.125C738.653 143.355 739.388 142.678 740.298 142.095C741.231 141.512 742.433 141.22 743.903 141.22C745.536 141.22 746.995 141.617 748.278 142.41C749.561 143.203 750.576 144.288 751.323 145.665C752.07 147.042 752.443 148.605 752.443 150.355C752.443 152.105 752.07 153.668 751.323 155.045C750.576 156.398 749.561 157.472 748.278 158.265C746.995 159.035 745.536 159.42 743.903 159.42ZM742.958 155.5C744.381 155.5 745.56 155.022 746.493 154.065C747.426 153.108 747.893 151.872 747.893 150.355C747.893 148.838 747.426 147.59 746.493 146.61C745.56 145.63 744.381 145.14 742.958 145.14C741.511 145.14 740.321 145.63 739.388 146.61C738.478 147.567 738.023 148.803 738.023 150.32C738.023 151.837 738.478 153.085 739.388 154.065C740.321 155.022 741.511 155.5 742.958 155.5ZM757.043 166.7L761.068 157.845H760.018L753.263 141.64H758.128L762.993 153.855L768.068 141.64H772.828L761.803 166.7H757.043Z" fill="black"/>
<path d="M795.681 159.42C793.231 159.42 791.085 158.883 789.241 157.81C787.421 156.737 785.986 155.255 784.936 153.365C783.91 151.452 783.396 149.247 783.396 146.75C783.396 144.253 783.91 142.06 784.936 140.17C785.986 138.257 787.421 136.763 789.241 135.69C791.085 134.617 793.231 134.08 795.681 134.08C798.108 134.08 800.243 134.617 802.086 135.69C803.93 136.763 805.365 138.257 806.391 140.17C807.418 142.06 807.931 144.253 807.931 146.75C807.931 149.247 807.418 151.452 806.391 153.365C805.365 155.255 803.93 156.737 802.086 157.81C800.243 158.883 798.108 159.42 795.681 159.42ZM795.681 155.395C798.015 155.395 799.87 154.625 801.246 153.085C802.646 151.545 803.346 149.433 803.346 146.75C803.346 144.067 802.646 141.955 801.246 140.415C799.87 138.875 798.015 138.105 795.681 138.105C793.348 138.105 791.481 138.875 790.081 140.415C788.681 141.955 787.981 144.067 787.981 146.75C787.981 149.433 788.681 151.545 790.081 153.085C791.481 154.625 793.348 155.395 795.681 155.395ZM819.517 159C817.697 159 816.239 158.557 815.142 157.67C814.045 156.783 813.497 155.208 813.497 152.945V145.385H810.522V141.64H813.497L814.022 136.985H817.977V141.64H822.667V145.385H817.977V152.98C817.977 153.82 818.152 154.403 818.502 154.73C818.875 155.033 819.505 155.185 820.392 155.185H822.562V159H819.517ZM826.513 159V133.8H830.993V144.3C831.577 143.343 832.358 142.597 833.338 142.06C834.342 141.5 835.485 141.22 836.768 141.22C838.915 141.22 840.572 141.897 841.738 143.25C842.928 144.603 843.523 146.587 843.523 149.2V159H839.078V149.62C839.078 148.127 838.775 146.983 838.168 146.19C837.585 145.397 836.652 145 835.368 145C834.108 145 833.058 145.443 832.218 146.33C831.402 147.217 830.993 148.453 830.993 150.04V159H826.513ZM856.242 159.42C854.492 159.42 852.941 159.047 851.587 158.3C850.234 157.553 849.172 156.503 848.402 155.15C847.632 153.797 847.247 152.233 847.247 150.46C847.247 148.663 847.621 147.065 848.367 145.665C849.137 144.265 850.187 143.18 851.517 142.41C852.871 141.617 854.457 141.22 856.277 141.22C857.981 141.22 859.486 141.593 860.792 142.34C862.099 143.087 863.114 144.113 863.837 145.42C864.584 146.703 864.957 148.138 864.957 149.725C864.957 149.982 864.946 150.25 864.922 150.53C864.922 150.81 864.911 151.102 864.887 151.405H851.692C851.786 152.758 852.252 153.82 853.092 154.59C853.956 155.36 854.994 155.745 856.207 155.745C857.117 155.745 857.876 155.547 858.482 155.15C859.112 154.73 859.579 154.193 859.882 153.54H864.432C864.106 154.637 863.557 155.64 862.787 156.55C862.041 157.437 861.107 158.137 859.987 158.65C858.891 159.163 857.642 159.42 856.242 159.42ZM856.277 144.86C855.181 144.86 854.212 145.175 853.372 145.805C852.532 146.412 851.996 147.345 851.762 148.605H860.407C860.337 147.462 859.917 146.552 859.147 145.875C858.377 145.198 857.421 144.86 856.277 144.86ZM868.725 159V141.64H872.68L873.03 144.58C873.567 143.553 874.337 142.737 875.34 142.13C876.367 141.523 877.569 141.22 878.945 141.22C881.092 141.22 882.76 141.897 883.95 143.25C885.14 144.603 885.735 146.587 885.735 149.2V159H881.255V149.62C881.255 148.127 880.952 146.983 880.345 146.19C879.739 145.397 878.794 145 877.51 145C876.25 145 875.212 145.443 874.395 146.33C873.602 147.217 873.205 148.453 873.205 150.04V159H868.725ZM897.754 159C895.934 159 894.476 158.557 893.379 157.67C892.282 156.783 891.734 155.208 891.734 152.945V145.385H888.759V141.64H891.734L892.259 136.985H896.214V141.64H900.904V145.385H896.214V152.98C896.214 153.82 896.389 154.403 896.739 154.73C897.112 155.033 897.742 155.185 898.629 155.185H900.799V159H897.754Z" fill="#2375EF"/>
<g filter="url(#filter0_b_7_2166)">
<rect x="163" y="256" width="265" height="112" rx="16" fill="white" fill-opacity="0.25"/>
<rect x="187" y="280" width="40" height="40" rx="8" fill="#D3E3FC"/>
<path d="M209 290.27V294.4C209 294.96 209 295.24 209.109 295.454C209.205 295.642 209.358 295.795 209.546 295.891C209.76 296 210.04 296 210.6 296H214.731M204 304L206 306L210.5 301.5M209 290H203.8C202.12 290 201.28 290 200.638 290.327C200.074 290.615 199.615 291.074 199.327 291.638C199 292.28 199 293.12 199 294.8V305.2C199 306.88 199 307.72 199.327 308.362C199.615 308.926 200.074 309.385 200.638 309.673C201.28 310 202.12 310 203.8 310H210.2C211.88 310 212.72 310 213.362 309.673C213.926 309.385 214.385 308.926 214.673 308.362C215 307.72 215 306.88 215 305.2V296L209 290Z" stroke="#2375EF" stroke-width="2" stroke-linecap="round" stroke-linejoin="round"/>
<path d="M252.584 304V287.2H255.752V301.12H263.432V304H252.584ZM268.904 304.336C268.056 304.336 267.296 304.192 266.624 303.904C265.952 303.6 265.416 303.168 265.016 302.608C264.632 302.032 264.44 301.336 264.44 300.52C264.44 299.704 264.632 299.024 265.016 298.48C265.416 297.92 265.96 297.504 266.648 297.232C267.352 296.944 268.152 296.8 269.048 296.8H272.312V296.128C272.312 295.568 272.136 295.112 271.784 294.76C271.432 294.392 270.872 294.208 270.104 294.208C269.352 294.208 268.792 294.384 268.424 294.736C268.056 295.072 267.816 295.512 267.704 296.056L264.92 295.12C265.112 294.512 265.416 293.96 265.832 293.464C266.264 292.952 266.832 292.544 267.536 292.24C268.256 291.92 269.128 291.76 270.152 291.76C271.72 291.76 272.96 292.152 273.872 292.936C274.784 293.72 275.24 294.856 275.24 296.344V300.784C275.24 301.264 275.464 301.504 275.912 301.504H276.872V304H274.856C274.264 304 273.776 303.856 273.392 303.568C273.008 303.28 272.816 302.896 272.816 302.416V302.392H272.36C272.296 302.584 272.152 302.84 271.928 303.16C271.704 303.464 271.352 303.736 270.872 303.976C270.392 304.216 269.736 304.336 268.904 304.336ZM269.432 301.888C270.28 301.888 270.968 301.656 271.496 301.192C272.04 300.712 272.312 300.08 272.312 299.296V299.056H269.264C268.704 299.056 268.264 299.176 267.944 299.416C267.624 299.656 267.464 299.992 267.464 300.424C267.464 300.856 267.632 301.208 267.968 301.48C268.304 301.752 268.792 301.888 269.432 301.888ZM278.603 304V292.096H281.579V293.44H282.011C282.187 292.96 282.475 292.608 282.875 292.384C283.291 292.16 283.771 292.048 284.315 292.048H285.755V294.736H284.267C283.499 294.736 282.867 294.944 282.371 295.36C281.875 295.76 281.627 296.384 281.627 297.232V304H278.603ZM286.641 298.096V297.712C286.641 296.464 286.889 295.4 287.385 294.52C287.881 293.624 288.537 292.944 289.353 292.48C290.185 292 291.089 291.76 292.065 291.76C293.153 291.76 293.977 291.952 294.537 292.336C295.097 292.72 295.505 293.12 295.761 293.536H296.193V292.096H299.169V306.112C299.169 306.928 298.929 307.576 298.449 308.056C297.969 308.552 297.329 308.8 296.529 308.8H288.561V306.16H295.473C295.921 306.16 296.145 305.92 296.145 305.44V302.344H295.713C295.553 302.6 295.329 302.864 295.041 303.136C294.753 303.392 294.369 303.608 293.889 303.784C293.409 303.96 292.801 304.048 292.065 304.048C291.089 304.048 290.185 303.816 289.353 303.352C288.537 302.872 287.881 302.192 287.385 301.312C286.889 300.416 286.641 299.344 286.641 298.096ZM292.929 301.408C293.857 301.408 294.633 301.112 295.257 300.52C295.881 299.928 296.193 299.096 296.193 298.024V297.784C296.193 296.696 295.881 295.864 295.257 295.288C294.649 294.696 293.873 294.4 292.929 294.4C292.001 294.4 291.225 294.696 290.601 295.288C289.977 295.864 289.665 296.696 289.665 297.784V298.024C289.665 299.096 289.977 299.928 290.601 300.52C291.225 301.112 292.001 301.408 292.929 301.408ZM307.465 304.336C306.281 304.336 305.233 304.088 304.321 303.592C303.425 303.08 302.721 302.368 302.209 301.456C301.713 300.528 301.465 299.44 301.465 298.192V297.904C301.465 296.656 301.713 295.576 302.209 294.664C302.705 293.736 303.401 293.024 304.297 292.528C305.193 292.016 306.233 291.76 307.417 291.76C308.585 291.76 309.601 292.024 310.465 292.552C311.329 293.064 312.001 293.784 312.481 294.712C312.961 295.624 313.201 296.688 313.201 297.904V298.936H304.537C304.569 299.752 304.873 300.416 305.449 300.928C306.025 301.44 306.729 301.696 307.561 301.696C308.409 301.696 309.033 301.512 309.433 301.144C309.833 300.776 310.137 300.368 310.345 299.92L312.817 301.216C312.593 301.632 312.265 302.088 311.833 302.584C311.417 303.064 310.857 303.48 310.153 303.832C309.449 304.168 308.553 304.336 307.465 304.336ZM304.561 296.68H310.129C310.065 295.992 309.785 295.44 309.289 295.024C308.809 294.608 308.177 294.4 307.393 294.4C306.577 294.4 305.929 294.608 305.449 295.024C304.969 295.44 304.673 295.992 304.561 296.68ZM322.995 304V294.592H319.971V292.096H322.995V289.888C322.995 289.072 323.235 288.424 323.715 287.944C324.211 287.448 324.851 287.2 325.635 287.2H328.515V289.696H326.691C326.243 289.696 326.019 289.936 326.019 290.416V292.096H330.819V294.592H326.019V304H322.995ZM330.819 304V292.096H333.843V304H330.819ZM332.331 290.8C331.787 290.8 331.323 290.624 330.939 290.272C330.571 289.92 330.387 289.456 330.387 288.88C330.387 288.304 330.571 287.84 330.939 287.488C331.323 287.136 331.787 286.96 332.331 286.96C332.891 286.96 333.355 287.136 333.723 287.488C334.091 287.84 334.275 288.304 334.275 288.88C334.275 289.456 334.091 289.92 333.723 290.272C333.355 290.624 332.891 290.8 332.331 290.8ZM336.718 304V287.2H339.742V304H336.718ZM348.037 304.336C346.853 304.336 345.805 304.088 344.893 303.592C343.997 303.08 343.293 302.368 342.781 301.456C342.285 300.528 342.037 299.44 342.037 298.192V297.904C342.037 296.656 342.285 295.576 342.781 294.664C343.277 293.736 343.973 293.024 344.869 292.528C345.765 292.016 346.805 291.76 347.989 291.76C349.157 291.76 350.173 292.024 351.037 292.552C351.901 293.064 352.573 293.784 353.053 294.712C353.533 295.624 353.773 296.688 353.773 297.904V298.936H345.109C345.141 299.752 345.445 300.416 346.021 300.928C346.597 301.44 347.301 301.696 348.133 301.696C348.981 301.696 349.605 301.512 350.005 301.144C350.405 300.776 350.709 300.368 350.917 299.92L353.389 301.216C353.165 301.632 352.837 302.088 352.405 302.584C351.989 303.064 351.429 303.48 350.725 303.832C350.021 304.168 349.125 304.336 348.037 304.336ZM345.133 296.68H350.701C350.637 295.992 350.357 295.44 349.861 295.024C349.381 294.608 348.749 294.4 347.965 294.4C347.149 294.4 346.501 294.608 346.021 295.024C345.541 295.44 345.245 295.992 345.133 296.68ZM257.624 336.336C256.072 336.336 254.8 336 253.808 335.328C252.816 334.656 252.216 333.696 252.008 332.448L254.792 331.728C254.904 332.288 255.088 332.728 255.344 333.048C255.616 333.368 255.944 333.6 256.328 333.744C256.728 333.872 257.16 333.936 257.624 333.936C258.328 333.936 258.848 333.816 259.184 333.576C259.52 333.32 259.688 333.008 259.688 332.64C259.688 332.272 259.528 331.992 259.208 331.8C258.888 331.592 258.376 331.424 257.672 331.296L257 331.176C256.168 331.016 255.408 330.8 254.72 330.528C254.032 330.24 253.48 329.848 253.064 329.352C252.648 328.856 252.44 328.216 252.44 327.432C252.44 326.248 252.872 325.344 253.736 324.72C254.6 324.08 255.736 323.76 257.144 323.76C258.472 323.76 259.576 324.056 260.456 324.648C261.336 325.24 261.912 326.016 262.184 326.976L259.376 327.84C259.248 327.232 258.984 326.8 258.584 326.544C258.2 326.288 257.72 326.16 257.144 326.16C256.568 326.16 256.128 326.264 255.824 326.472C255.52 326.664 255.368 326.936 255.368 327.288C255.368 327.672 255.528 327.96 255.848 328.152C256.168 328.328 256.6 328.464 257.144 328.56L257.816 328.68C258.712 328.84 259.52 329.056 260.24 329.328C260.976 329.584 261.552 329.96 261.968 330.456C262.4 330.936 262.616 331.592 262.616 332.424C262.616 333.672 262.16 334.64 261.248 335.328C260.352 336 259.144 336.336 257.624 336.336ZM269.322 336.192C268.394 336.192 267.578 335.984 266.874 335.568C266.186 335.136 265.65 334.544 265.266 333.792C264.882 333.04 264.69 332.176 264.69 331.2V324.096H267.714V330.96C267.714 331.856 267.93 332.528 268.362 332.976C268.81 333.424 269.442 333.648 270.258 333.648C271.186 333.648 271.906 333.344 272.418 332.736C272.93 332.112 273.186 331.248 273.186 330.144V324.096H276.21V336H273.234V334.44H272.802C272.61 334.84 272.25 335.232 271.722 335.616C271.194 336 270.394 336.192 269.322 336.192ZM279.095 340.8V324.096H282.071V325.536H282.503C282.775 325.072 283.199 324.664 283.775 324.312C284.351 323.944 285.175 323.76 286.247 323.76C287.207 323.76 288.095 324 288.911 324.48C289.727 324.944 290.383 325.632 290.879 326.544C291.375 327.456 291.623 328.56 291.623 329.856V330.24C291.623 331.536 291.375 332.64 290.879 333.552C290.383 334.464 289.727 335.16 288.911 335.64C288.095 336.104 287.207 336.336 286.247 336.336C285.527 336.336 284.919 336.248 284.423 336.072C283.943 335.912 283.551 335.704 283.247 335.448C282.959 335.176 282.727 334.904 282.551 334.632H282.119V340.8H279.095ZM285.335 333.696C286.279 333.696 287.055 333.4 287.663 332.808C288.287 332.2 288.599 331.32 288.599 330.168V329.928C288.599 328.776 288.287 327.904 287.663 327.312C287.039 326.704 286.263 326.4 285.335 326.4C284.407 326.4 283.631 326.704 283.007 327.312C282.383 327.904 282.071 328.776 282.071 329.928V330.168C282.071 331.32 282.383 332.2 283.007 332.808C283.631 333.4 284.407 333.696 285.335 333.696ZM293.92 340.8V324.096H296.896V325.536H297.328C297.6 325.072 298.024 324.664 298.6 324.312C299.176 323.944 300 323.76 301.072 323.76C302.032 323.76 302.92 324 303.736 324.48C304.552 324.944 305.208 325.632 305.704 326.544C306.2 327.456 306.448 328.56 306.448 329.856V330.24C306.448 331.536 306.2 332.64 305.704 333.552C305.208 334.464 304.552 335.16 303.736 335.64C302.92 336.104 302.032 336.336 301.072 336.336C300.352 336.336 299.744 336.248 299.248 336.072C298.768 335.912 298.376 335.704 298.072 335.448C297.784 335.176 297.552 334.904 297.376 334.632H296.944V340.8H293.92ZM300.16 333.696C301.104 333.696 301.88 333.4 302.488 332.808C303.112 332.2 303.424 331.32 303.424 330.168V329.928C303.424 328.776 303.112 327.904 302.488 327.312C301.864 326.704 301.088 326.4 300.16 326.4C299.232 326.4 298.456 326.704 297.832 327.312C297.208 327.904 296.896 328.776 296.896 329.928V330.168C296.896 331.32 297.208 332.2 297.832 332.808C298.456 333.4 299.232 333.696 300.16 333.696ZM314.408 336.336C313.224 336.336 312.16 336.096 311.216 335.616C310.272 335.136 309.528 334.44 308.984 333.528C308.44 332.616 308.168 331.52 308.168 330.24V329.856C308.168 328.576 308.44 327.48 308.984 326.568C309.528 325.656 310.272 324.96 311.216 324.48C312.16 324 313.224 323.76 314.408 323.76C315.592 323.76 316.656 324 317.6 324.48C318.544 324.96 319.288 325.656 319.832 326.568C320.376 327.48 320.648 328.576 320.648 329.856V330.24C320.648 331.52 320.376 332.616 319.832 333.528C319.288 334.44 318.544 335.136 317.6 335.616C316.656 336.096 315.592 336.336 314.408 336.336ZM314.408 333.648C315.336 333.648 316.104 333.352 316.712 332.76C317.32 332.152 317.624 331.288 317.624 330.168V329.928C317.624 328.808 317.32 327.952 316.712 327.36C316.12 326.752 315.352 326.448 314.408 326.448C313.48 326.448 312.712 326.752 312.104 327.36C311.496 327.952 311.192 328.808 311.192 329.928V330.168C311.192 331.288 311.496 332.152 312.104 332.76C312.712 333.352 313.48 333.648 314.408 333.648ZM322.96 336V324.096H325.936V325.44H326.368C326.544 324.96 326.832 324.608 327.232 324.384C327.648 324.16 328.128 324.048 328.672 324.048H330.112V326.736H328.624C327.856 326.736 327.224 326.944 326.728 327.36C326.232 327.76 325.984 328.384 325.984 329.232V336H322.96ZM336.555 336C335.771 336 335.131 335.76 334.635 335.28C334.155 334.784 333.915 334.128 333.915 333.312V326.592H330.939V324.096H333.915V320.4H336.939V324.096H340.203V326.592H336.939V332.784C336.939 333.264 337.163 333.504 337.611 333.504H339.915V336H336.555Z" fill="#2375EF"/>
<rect x="163.5" y="256.5" width="264" height="111" rx="15.5" stroke="#D3E3FC"/>
</g>
<g filter="url(#filter1_b_7_2166)">
<rect x="452" y="256" width="265" height="112" rx="16" fill="white" fill-opacity="0.25"/>
<rect x="476" y="280" width="40" height="40" rx="8" fill="#D3E3FC"/>
<path d="M493 305.5H487.5M490.5 300H486M493 294.5H488M501 291L494.404 300.235C494.112 300.644 493.966 300.848 493.972 301.019C493.977 301.167 494.049 301.305 494.166 301.396C494.301 301.5 494.552 301.5 495.055 301.5H500L499 309L505.596 299.765C505.888 299.356 506.034 299.152 506.028 298.981C506.023 298.833 505.951 298.695 505.834 298.604C505.699 298.5 505.448 298.5 504.945 298.5H500L501 291Z" stroke="#2375EF" stroke-width="2" stroke-linecap="round" stroke-linejoin="round"/>
<path d="M541.584 304V287.2H552.144V290.08H544.752V294.136H551.568V297.016H544.752V304H541.584ZM557.529 304.336C556.681 304.336 555.921 304.192 555.249 303.904C554.577 303.6 554.041 303.168 553.641 302.608C553.257 302.032 553.065 301.336 553.065 300.52C553.065 299.704 553.257 299.024 553.641 298.48C554.041 297.92 554.585 297.504 555.273 297.232C555.977 296.944 556.777 296.8 557.673 296.8H560.937V296.128C560.937 295.568 560.761 295.112 560.409 294.76C560.057 294.392 559.497 294.208 558.729 294.208C557.977 294.208 557.417 294.384 557.049 294.736C556.681 295.072 556.441 295.512 556.329 296.056L553.545 295.12C553.737 294.512 554.041 293.96 554.457 293.464C554.889 292.952 555.457 292.544 556.161 292.24C556.881 291.92 557.753 291.76 558.777 291.76C560.345 291.76 561.585 292.152 562.497 292.936C563.409 293.72 563.865 294.856 563.865 296.344V300.784C563.865 301.264 564.089 301.504 564.537 301.504H565.497V304H563.481C562.889 304 562.401 303.856 562.017 303.568C561.633 303.28 561.441 302.896 561.441 302.416V302.392H560.985C560.921 302.584 560.777 302.84 560.553 303.16C560.329 303.464 559.977 303.736 559.497 303.976C559.017 304.216 558.361 304.336 557.529 304.336ZM558.057 301.888C558.905 301.888 559.593 301.656 560.121 301.192C560.665 300.712 560.937 300.08 560.937 299.296V299.056H557.889C557.329 299.056 556.889 299.176 556.569 299.416C556.249 299.656 556.089 299.992 556.089 300.424C556.089 300.856 556.257 301.208 556.593 301.48C556.929 301.752 557.417 301.888 558.057 301.888ZM572.078 304.336C570.526 304.336 569.254 304 568.262 303.328C567.27 302.656 566.67 301.696 566.462 300.448L569.246 299.728C569.358 300.288 569.542 300.728 569.798 301.048C570.07 301.368 570.398 301.6 570.782 301.744C571.182 301.872 571.614 301.936 572.078 301.936C572.782 301.936 573.302 301.816 573.638 301.576C573.974 301.32 574.142 301.008 574.142 300.64C574.142 300.272 573.982 299.992 573.662 299.8C573.342 299.592 572.83 299.424 572.126 299.296L571.454 299.176C570.622 299.016 569.862 298.8 569.174 298.528C568.486 298.24 567.934 297.848 567.518 297.352C567.102 296.856 566.894 296.216 566.894 295.432C566.894 294.248 567.326 293.344 568.19 292.72C569.054 292.08 570.19 291.76 571.598 291.76C572.926 291.76 574.03 292.056 574.91 292.648C575.79 293.24 576.366 294.016 576.638 294.976L573.83 295.84C573.702 295.232 573.438 294.8 573.038 294.544C572.654 294.288 572.174 294.16 571.598 294.16C571.022 294.16 570.582 294.264 570.278 294.472C569.974 294.664 569.822 294.936 569.822 295.288C569.822 295.672 569.982 295.96 570.302 296.152C570.622 296.328 571.054 296.464 571.598 296.56L572.27 296.68C573.166 296.84 573.974 297.056 574.694 297.328C575.43 297.584 576.006 297.96 576.422 298.456C576.854 298.936 577.07 299.592 577.07 300.424C577.07 301.672 576.614 302.64 575.702 303.328C574.806 304 573.598 304.336 572.078 304.336ZM583.566 304C582.782 304 582.142 303.76 581.646 303.28C581.166 302.784 580.926 302.128 580.926 301.312V294.592H577.95V292.096H580.926V288.4H583.95V292.096H587.214V294.592H583.95V300.784C583.95 301.264 584.174 301.504 584.622 301.504H586.926V304H583.566ZM599.645 304C598.861 304 598.221 303.76 597.725 303.28C597.245 302.784 597.005 302.128 597.005 301.312V294.592H594.029V292.096H597.005V288.4H600.029V292.096H603.293V294.592H600.029V300.784C600.029 301.264 600.253 301.504 600.701 301.504H603.005V304H599.645ZM605.55 304V292.096H608.526V293.44H608.958C609.134 292.96 609.422 292.608 609.822 292.384C610.238 292.16 610.718 292.048 611.262 292.048H612.702V294.736H611.214C610.446 294.736 609.814 294.944 609.318 295.36C608.822 295.76 608.574 296.384 608.574 297.232V304H605.55ZM618 304.336C617.152 304.336 616.392 304.192 615.72 303.904C615.048 303.6 614.512 303.168 614.112 302.608C613.728 302.032 613.536 301.336 613.536 300.52C613.536 299.704 613.728 299.024 614.112 298.48C614.512 297.92 615.056 297.504 615.744 297.232C616.448 296.944 617.248 296.8 618.144 296.8H621.408V296.128C621.408 295.568 621.232 295.112 620.88 294.76C620.528 294.392 619.968 294.208 619.2 294.208C618.448 294.208 617.888 294.384 617.52 294.736C617.152 295.072 616.912 295.512 616.8 296.056L614.016 295.12C614.208 294.512 614.512 293.96 614.928 293.464C615.36 292.952 615.928 292.544 616.632 292.24C617.352 291.92 618.224 291.76 619.248 291.76C620.816 291.76 622.056 292.152 622.968 292.936C623.88 293.72 624.336 294.856 624.336 296.344V300.784C624.336 301.264 624.56 301.504 625.008 301.504H625.968V304H623.952C623.36 304 622.872 303.856 622.488 303.568C622.104 303.28 621.912 302.896 621.912 302.416V302.392H621.456C621.392 302.584 621.248 302.84 621.024 303.16C620.8 303.464 620.448 303.736 619.968 303.976C619.488 304.216 618.832 304.336 618 304.336ZM618.528 301.888C619.376 301.888 620.064 301.656 620.592 301.192C621.136 300.712 621.408 300.08 621.408 299.296V299.056H618.36C617.8 299.056 617.36 299.176 617.04 299.416C616.72 299.656 616.56 299.992 616.56 300.424C616.56 300.856 616.728 301.208 617.064 301.48C617.4 301.752 617.888 301.888 618.528 301.888ZM627.699 304V292.096H630.675V293.656H631.107C631.299 293.24 631.659 292.848 632.187 292.48C632.715 292.096 633.515 291.904 634.587 291.904C635.515 291.904 636.323 292.12 637.011 292.552C637.715 292.968 638.259 293.552 638.643 294.304C639.027 295.04 639.219 295.904 639.219 296.896V304H636.195V297.136C636.195 296.24 635.971 295.568 635.523 295.12C635.091 294.672 634.467 294.448 633.651 294.448C632.723 294.448 632.003 294.76 631.491 295.384C630.979 295.992 630.723 296.848 630.723 297.952V304H627.699ZM646.952 304.336C645.4 304.336 644.128 304 643.136 303.328C642.144 302.656 641.544 301.696 641.336 300.448L644.12 299.728C644.232 300.288 644.416 300.728 644.672 301.048C644.944 301.368 645.272 301.6 645.656 301.744C646.056 301.872 646.488 301.936 646.952 301.936C647.656 301.936 648.176 301.816 648.512 301.576C648.848 301.32 649.016 301.008 649.016 300.64C649.016 300.272 648.856 299.992 648.536 299.8C648.216 299.592 647.704 299.424 647 299.296L646.328 299.176C645.496 299.016 644.736 298.8 644.048 298.528C643.36 298.24 642.808 297.848 642.392 297.352C641.976 296.856 641.768 296.216 641.768 295.432C641.768 294.248 642.2 293.344 643.064 292.72C643.928 292.08 645.064 291.76 646.472 291.76C647.8 291.76 648.904 292.056 649.784 292.648C650.664 293.24 651.24 294.016 651.512 294.976L648.704 295.84C648.576 295.232 648.312 294.8 647.912 294.544C647.528 294.288 647.048 294.16 646.472 294.16C645.896 294.16 645.456 294.264 645.152 294.472C644.848 294.664 644.696 294.936 644.696 295.288C644.696 295.672 644.856 295.96 645.176 296.152C645.496 296.328 645.928 296.464 646.472 296.56L647.144 296.68C648.04 296.84 648.848 297.056 649.568 297.328C650.304 297.584 650.88 297.96 651.296 298.456C651.728 298.936 651.944 299.592 651.944 300.424C651.944 301.672 651.488 302.64 650.576 303.328C649.68 304 648.472 304.336 646.952 304.336ZM655.848 304V294.592H652.824V292.096H655.848V289.888C655.848 289.072 656.088 288.424 656.568 287.944C657.064 287.448 657.704 287.2 658.488 287.2H661.608V289.696H659.544C659.096 289.696 658.872 289.936 658.872 290.416V292.096H661.992V294.592H658.872V304H655.848ZM668.879 304.336C667.695 304.336 666.647 304.088 665.735 303.592C664.839 303.08 664.135 302.368 663.623 301.456C663.127 300.528 662.879 299.44 662.879 298.192V297.904C662.879 296.656 663.127 295.576 663.623 294.664C664.119 293.736 664.815 293.024 665.711 292.528C666.607 292.016 667.647 291.76 668.831 291.76C669.999 291.76 671.015 292.024 671.879 292.552C672.743 293.064 673.415 293.784 673.895 294.712C674.375 295.624 674.615 296.688 674.615 297.904V298.936H665.951C665.983 299.752 666.287 300.416 666.863 300.928C667.439 301.44 668.143 301.696 668.975 301.696C669.823 301.696 670.447 301.512 670.847 301.144C671.247 300.776 671.551 300.368 671.759 299.92L674.231 301.216C674.007 301.632 673.679 302.088 673.247 302.584C672.831 303.064 672.271 303.48 671.567 303.832C670.863 304.168 669.967 304.336 668.879 304.336ZM665.975 296.68H671.543C671.479 295.992 671.199 295.44 670.703 295.024C670.223 294.608 669.591 294.4 668.807 294.4C667.991 294.4 667.343 294.608 666.863 295.024C666.383 295.44 666.087 295.992 665.975 296.68ZM676.826 304V292.096H679.802V293.44H680.234C680.41 292.96 680.698 292.608 681.098 292.384C681.514 292.16 681.994 292.048 682.538 292.048H683.978V294.736H682.49C681.722 294.736 681.09 294.944 680.594 295.36C680.098 295.76 679.85 296.384 679.85 297.232V304H676.826ZM546.624 336.336C545.072 336.336 543.8 336 542.808 335.328C541.816 334.656 541.216 333.696 541.008 332.448L543.792 331.728C543.904 332.288 544.088 332.728 544.344 333.048C544.616 333.368 544.944 333.6 545.328 333.744C545.728 333.872 546.16 333.936 546.624 333.936C547.328 333.936 547.848 333.816 548.184 333.576C548.52 333.32 548.688 333.008 548.688 332.64C548.688 332.272 548.528 331.992 548.208 331.8C547.888 331.592 547.376 331.424 546.672 331.296L546 331.176C545.168 331.016 544.408 330.8 543.72 330.528C543.032 330.24 542.48 329.848 542.064 329.352C541.648 328.856 541.44 328.216 541.44 327.432C541.44 326.248 541.872 325.344 542.736 324.72C543.6 324.08 544.736 323.76 546.144 323.76C547.472 323.76 548.576 324.056 549.456 324.648C550.336 325.24 550.912 326.016 551.184 326.976L548.376 327.84C548.248 327.232 547.984 326.8 547.584 326.544C547.2 326.288 546.72 326.16 546.144 326.16C545.568 326.16 545.128 326.264 544.824 326.472C544.52 326.664 544.368 326.936 544.368 327.288C544.368 327.672 544.528 327.96 544.848 328.152C545.168 328.328 545.6 328.464 546.144 328.56L546.816 328.68C547.712 328.84 548.52 329.056 549.24 329.328C549.976 329.584 550.552 329.96 550.968 330.456C551.4 330.936 551.616 331.592 551.616 332.424C551.616 333.672 551.16 334.64 550.248 335.328C549.352 336 548.144 336.336 546.624 336.336ZM553.786 340.8V324.096H556.762V325.536H557.194C557.466 325.072 557.89 324.664 558.466 324.312C559.042 323.944 559.866 323.76 560.938 323.76C561.898 323.76 562.786 324 563.602 324.48C564.418 324.944 565.074 325.632 565.57 326.544C566.066 327.456 566.314 328.56 566.314 329.856V330.24C566.314 331.536 566.066 332.64 565.57 333.552C565.074 334.464 564.418 335.16 563.602 335.64C562.786 336.104 561.898 336.336 560.938 336.336C560.218 336.336 559.61 336.248 559.114 336.072C558.634 335.912 558.242 335.704 557.938 335.448C557.65 335.176 557.418 334.904 557.242 334.632H556.81V340.8H553.786ZM560.026 333.696C560.97 333.696 561.746 333.4 562.354 332.808C562.978 332.2 563.29 331.32 563.29 330.168V329.928C563.29 328.776 562.978 327.904 562.354 327.312C561.73 326.704 560.954 326.4 560.026 326.4C559.098 326.4 558.322 326.704 557.698 327.312C557.074 327.904 556.762 328.776 556.762 329.928V330.168C556.762 331.32 557.074 332.2 557.698 332.808C558.322 333.4 559.098 333.696 560.026 333.696ZM574.035 336.336C572.851 336.336 571.803 336.088 570.891 335.592C569.995 335.08 569.291 334.368 568.779 333.456C568.283 332.528 568.035 331.44 568.035 330.192V329.904C568.035 328.656 568.283 327.576 568.779 326.664C569.275 325.736 569.971 325.024 570.867 324.528C571.763 324.016 572.803 323.76 573.987 323.76C575.155 323.76 576.171 324.024 577.035 324.552C577.899 325.064 578.571 325.784 579.051 326.712C579.531 327.624 579.771 328.688 579.771 329.904V330.936H571.107C571.139 331.752 571.443 332.416 572.019 332.928C572.595 333.44 573.299 333.696 574.131 333.696C574.979 333.696 575.603 333.512 576.003 333.144C576.403 332.776 576.707 332.368 576.915 331.92L579.387 333.216C579.163 333.632 578.835 334.088 578.403 334.584C577.987 335.064 577.427 335.48 576.723 335.832C576.019 336.168 575.123 336.336 574.035 336.336ZM571.131 328.68H576.699C576.635 327.992 576.355 327.44 575.859 327.024C575.379 326.608 574.747 326.4 573.963 326.4C573.147 326.4 572.499 326.608 572.019 327.024C571.539 327.44 571.243 327.992 571.131 328.68ZM587.406 336.336C586.222 336.336 585.174 336.088 584.262 335.592C583.366 335.08 582.662 334.368 582.15 333.456C581.654 332.528 581.406 331.44 581.406 330.192V329.904C581.406 328.656 581.654 327.576 582.15 326.664C582.646 325.736 583.342 325.024 584.238 324.528C585.134 324.016 586.174 323.76 587.358 323.76C588.526 323.76 589.542 324.024 590.406 324.552C591.27 325.064 591.942 325.784 592.422 326.712C592.902 327.624 593.142 328.688 593.142 329.904V330.936H584.478C584.51 331.752 584.814 332.416 585.39 332.928C585.966 333.44 586.67 333.696 587.502 333.696C588.35 333.696 588.974 333.512 589.374 333.144C589.774 332.776 590.078 332.368 590.286 331.92L592.758 333.216C592.534 333.632 592.206 334.088 591.774 334.584C591.358 335.064 590.798 335.48 590.094 335.832C589.39 336.168 588.494 336.336 587.406 336.336ZM584.502 328.68H590.07C590.006 327.992 589.726 327.44 589.23 327.024C588.75 326.608 588.118 326.4 587.334 326.4C586.518 326.4 585.87 326.608 585.39 327.024C584.91 327.44 584.614 327.992 584.502 328.68ZM600.154 336.336C599.21 336.336 598.322 336.104 597.49 335.64C596.674 335.16 596.018 334.464 595.522 333.552C595.026 332.64 594.778 331.536 594.778 330.24V329.856C594.778 328.56 595.026 327.456 595.522 326.544C596.018 325.632 596.674 324.944 597.49 324.48C598.306 324 599.194 323.76 600.154 323.76C600.874 323.76 601.474 323.848 601.954 324.024C602.45 324.184 602.85 324.392 603.154 324.648C603.458 324.904 603.69 325.176 603.85 325.464H604.282V319.2H607.306V336H604.33V334.56H603.898C603.626 335.008 603.202 335.416 602.626 335.784C602.066 336.152 601.242 336.336 600.154 336.336ZM601.066 333.696C601.994 333.696 602.77 333.4 603.394 332.808C604.018 332.2 604.33 331.32 604.33 330.168V329.928C604.33 328.776 604.018 327.904 603.394 327.312C602.786 326.704 602.01 326.4 601.066 326.4C600.138 326.4 599.362 326.704 598.738 327.312C598.114 327.904 597.802 328.776 597.802 329.928V330.168C597.802 331.32 598.114 332.2 598.738 332.808C599.362 333.4 600.138 333.696 601.066 333.696ZM615.122 336.336C613.57 336.336 612.298 336 611.306 335.328C610.314 334.656 609.714 333.696 609.506 332.448L612.29 331.728C612.402 332.288 612.586 332.728 612.842 333.048C613.114 333.368 613.442 333.6 613.826 333.744C614.226 333.872 614.658 333.936 615.122 333.936C615.826 333.936 616.346 333.816 616.682 333.576C617.018 333.32 617.186 333.008 617.186 332.64C617.186 332.272 617.026 331.992 616.706 331.8C616.386 331.592 615.874 331.424 615.17 331.296L614.498 331.176C613.666 331.016 612.906 330.8 612.218 330.528C611.53 330.24 610.978 329.848 610.562 329.352C610.146 328.856 609.938 328.216 609.938 327.432C609.938 326.248 610.37 325.344 611.234 324.72C612.098 324.08 613.234 323.76 614.642 323.76C615.97 323.76 617.074 324.056 617.954 324.648C618.834 325.24 619.41 326.016 619.682 326.976L616.874 327.84C616.746 327.232 616.482 326.8 616.082 326.544C615.698 326.288 615.218 326.16 614.642 326.16C614.066 326.16 613.626 326.264 613.322 326.472C613.018 326.664 612.866 326.936 612.866 327.288C612.866 327.672 613.026 327.96 613.346 328.152C613.666 328.328 614.098 328.464 614.642 328.56L615.314 328.68C616.21 328.84 617.018 329.056 617.738 329.328C618.474 329.584 619.05 329.96 619.466 330.456C619.898 330.936 620.114 331.592 620.114 332.424C620.114 333.672 619.658 334.64 618.746 335.328C617.85 336 616.642 336.336 615.122 336.336Z" fill="#2375EF"/>
<rect x="452.5" y="256.5" width="264" height="111" rx="15.5" stroke="#D3E3FC"/>
</g>
<g filter="url(#filter2_b_7_2166)">
<rect x="768" y="256" width="265" height="112" rx="16" fill="white" fill-opacity="0.25"/>
<rect x="792" y="280" width="40" height="40" rx="8" fill="#D3E3FC"/>
<path d="M812.5 290H815.2C816.88 290 817.72 290 818.362 290.327C818.926 290.615 819.385 291.074 819.673 291.638C820 292.28 820 293.12 820 294.8V305.2C820 306.88 820 307.72 819.673 308.362C819.385 308.926 818.926 309.385 818.362 309.673C817.72 310 816.88 310 815.2 310H808.8C807.12 310 806.28 310 805.638 309.673C805.074 309.385 804.615 308.926 804.327 308.362C804 307.72 804 306.88 804 305.2V304.5M816 301H811.5M816 297H812.5M816 305H808M806 298V292.5C806 291.672 806.672 291 807.5 291C808.328 291 809 291.672 809 292.5V298C809 299.657 807.657 301 806 301C804.343 301 803 299.657 803 298V294" stroke="#2375EF" stroke-width="2" stroke-linecap="round" stroke-linejoin="round"/>
<path d="M857.584 304V287.2H863.464L866.368 301.84H866.8L869.704 287.2H875.584V304H872.512V289.528H872.08L869.2 304H863.968L861.088 289.528H860.656V304H857.584ZM882.9 304.192C881.972 304.192 881.156 303.984 880.452 303.568C879.764 303.136 879.228 302.544 878.844 301.792C878.46 301.04 878.268 300.176 878.268 299.2V292.096H881.292V298.96C881.292 299.856 881.508 300.528 881.94 300.976C882.388 301.424 883.02 301.648 883.836 301.648C884.764 301.648 885.484 301.344 885.996 300.736C886.508 300.112 886.764 299.248 886.764 298.144V292.096H889.788V304H886.812V302.44H886.38C886.188 302.84 885.828 303.232 885.3 303.616C884.772 304 883.972 304.192 882.9 304.192ZM892.673 304V287.2H895.697V304H892.673ZM903.128 304C902.344 304 901.704 303.76 901.208 303.28C900.728 302.784 900.488 302.128 900.488 301.312V294.592H897.512V292.096H900.488V288.4H903.512V292.096H906.776V294.592H903.512V300.784C903.512 301.264 903.736 301.504 904.184 301.504H906.488V304H903.128ZM909.033 304V292.096H912.057V304H909.033ZM910.545 290.704C910.001 290.704 909.537 290.528 909.153 290.176C908.785 289.824 908.601 289.36 908.601 288.784C908.601 288.208 908.785 287.744 909.153 287.392C909.537 287.04 910.001 286.864 910.545 286.864C911.105 286.864 911.569 287.04 911.937 287.392C912.305 287.744 912.489 288.208 912.489 288.784C912.489 289.36 912.305 289.824 911.937 290.176C911.569 290.528 911.105 290.704 910.545 290.704ZM914.928 308.8V292.096H917.904V293.536H918.336C918.608 293.072 919.032 292.664 919.608 292.312C920.184 291.944 921.008 291.76 922.08 291.76C923.04 291.76 923.928 292 924.744 292.48C925.56 292.944 926.216 293.632 926.712 294.544C927.208 295.456 927.456 296.56 927.456 297.856V298.24C927.456 299.536 927.208 300.64 926.712 301.552C926.216 302.464 925.56 303.16 924.744 303.64C923.928 304.104 923.04 304.336 922.08 304.336C921.36 304.336 920.752 304.248 920.256 304.072C919.776 303.912 919.384 303.704 919.08 303.448C918.792 303.176 918.56 302.904 918.384 302.632H917.952V308.8H914.928ZM921.168 301.696C922.112 301.696 922.888 301.4 923.496 300.808C924.12 300.2 924.432 299.32 924.432 298.168V297.928C924.432 296.776 924.12 295.904 923.496 295.312C922.872 294.704 922.096 294.4 921.168 294.4C920.24 294.4 919.464 294.704 918.84 295.312C918.216 295.904 917.904 296.776 917.904 297.928V298.168C917.904 299.32 918.216 300.2 918.84 300.808C919.464 301.4 920.24 301.696 921.168 301.696ZM929.753 304V287.2H932.777V304H929.753ZM941.072 304.336C939.888 304.336 938.84 304.088 937.928 303.592C937.032 303.08 936.328 302.368 935.816 301.456C935.32 300.528 935.072 299.44 935.072 298.192V297.904C935.072 296.656 935.32 295.576 935.816 294.664C936.312 293.736 937.008 293.024 937.904 292.528C938.8 292.016 939.84 291.76 941.024 291.76C942.192 291.76 943.208 292.024 944.072 292.552C944.936 293.064 945.608 293.784 946.088 294.712C946.568 295.624 946.808 296.688 946.808 297.904V298.936H938.144C938.176 299.752 938.48 300.416 939.056 300.928C939.632 301.44 940.336 301.696 941.168 301.696C942.016 301.696 942.64 301.512 943.04 301.144C943.44 300.776 943.744 300.368 943.952 299.92L946.424 301.216C946.2 301.632 945.872 302.088 945.44 302.584C945.024 303.064 944.464 303.48 943.76 303.832C943.056 304.168 942.16 304.336 941.072 304.336ZM938.168 296.68H943.736C943.672 295.992 943.392 295.44 942.896 295.024C942.416 294.608 941.784 294.4 941 294.4C940.184 294.4 939.536 294.608 939.056 295.024C938.576 295.44 938.28 295.992 938.168 296.68ZM956.601 304V294.592H953.577V292.096H956.601V289.888C956.601 289.072 956.841 288.424 957.321 287.944C957.817 287.448 958.457 287.2 959.241 287.2H962.121V289.696H960.297C959.849 289.696 959.625 289.936 959.625 290.416V292.096H964.425V294.592H959.625V304H956.601ZM964.425 304V292.096H967.449V304H964.425ZM965.937 290.8C965.393 290.8 964.929 290.624 964.545 290.272C964.177 289.92 963.993 289.456 963.993 288.88C963.993 288.304 964.177 287.84 964.545 287.488C964.929 287.136 965.393 286.96 965.937 286.96C966.497 286.96 966.961 287.136 967.329 287.488C967.697 287.84 967.881 288.304 967.881 288.88C967.881 289.456 967.697 289.92 967.329 290.272C966.961 290.624 966.497 290.8 965.937 290.8ZM970.325 304V287.2H973.349V304H970.325ZM981.644 304.336C980.46 304.336 979.412 304.088 978.5 303.592C977.604 303.08 976.9 302.368 976.388 301.456C975.892 300.528 975.644 299.44 975.644 298.192V297.904C975.644 296.656 975.892 295.576 976.388 294.664C976.884 293.736 977.58 293.024 978.476 292.528C979.372 292.016 980.412 291.76 981.596 291.76C982.764 291.76 983.78 292.024 984.644 292.552C985.508 293.064 986.18 293.784 986.66 294.712C987.14 295.624 987.38 296.688 987.38 297.904V298.936H978.716C978.748 299.752 979.052 300.416 979.628 300.928C980.204 301.44 980.908 301.696 981.74 301.696C982.588 301.696 983.212 301.512 983.612 301.144C984.012 300.776 984.316 300.368 984.524 299.92L986.996 301.216C986.772 301.632 986.444 302.088 986.012 302.584C985.596 303.064 985.036 303.48 984.332 303.832C983.628 304.168 982.732 304.336 981.644 304.336ZM978.74 296.68H984.308C984.244 295.992 983.964 295.44 983.468 295.024C982.988 294.608 982.356 294.4 981.572 294.4C980.756 294.4 980.108 294.608 979.628 295.024C979.148 295.44 978.852 295.992 978.74 296.68ZM859.648 336V326.592H856.624V324.096H859.648V321.888C859.648 321.072 859.888 320.424 860.368 319.944C860.864 319.448 861.504 319.2 862.288 319.2H865.408V321.696H863.344C862.896 321.696 862.672 321.936 862.672 322.416V324.096H865.792V326.592H862.672V336H859.648ZM872.919 336.336C871.735 336.336 870.671 336.096 869.727 335.616C868.783 335.136 868.039 334.44 867.495 333.528C866.951 332.616 866.679 331.52 866.679 330.24V329.856C866.679 328.576 866.951 327.48 867.495 326.568C868.039 325.656 868.783 324.96 869.727 324.48C870.671 324 871.735 323.76 872.919 323.76C874.103 323.76 875.167 324 876.111 324.48C877.055 324.96 877.799 325.656 878.343 326.568C878.887 327.48 879.159 328.576 879.159 329.856V330.24C879.159 331.52 878.887 332.616 878.343 333.528C877.799 334.44 877.055 335.136 876.111 335.616C875.167 336.096 874.103 336.336 872.919 336.336ZM872.919 333.648C873.847 333.648 874.615 333.352 875.223 332.76C875.831 332.152 876.135 331.288 876.135 330.168V329.928C876.135 328.808 875.831 327.952 875.223 327.36C874.631 326.752 873.863 326.448 872.919 326.448C871.991 326.448 871.223 326.752 870.615 327.36C870.007 327.952 869.703 328.808 869.703 329.928V330.168C869.703 331.288 870.007 332.152 870.615 332.76C871.223 333.352 871.991 333.648 872.919 333.648ZM881.47 336V324.096H884.446V325.44H884.878C885.054 324.96 885.342 324.608 885.742 324.384C886.158 324.16 886.638 324.048 887.182 324.048H888.622V326.736H887.134C886.366 326.736 885.734 326.944 885.238 327.36C884.742 327.76 884.494 328.384 884.494 329.232V336H881.47ZM890.506 336V324.096H893.482V325.392H893.914C894.122 324.992 894.466 324.648 894.946 324.36C895.426 324.056 896.058 323.904 896.842 323.904C897.69 323.904 898.37 324.072 898.882 324.408C899.394 324.728 899.786 325.152 900.058 325.68H900.49C900.762 325.168 901.146 324.744 901.642 324.408C902.138 324.072 902.842 323.904 903.754 323.904C904.49 323.904 905.154 324.064 905.746 324.384C906.354 324.688 906.834 325.16 907.186 325.8C907.554 326.424 907.738 327.216 907.738 328.176V336H904.714V328.392C904.714 327.736 904.546 327.248 904.21 326.928C903.874 326.592 903.402 326.424 902.794 326.424C902.106 326.424 901.57 326.648 901.186 327.096C900.818 327.528 900.634 328.152 900.634 328.968V336H897.61V328.392C897.61 327.736 897.442 327.248 897.106 326.928C896.77 326.592 896.298 326.424 895.69 326.424C895.002 326.424 894.466 326.648 894.082 327.096C893.714 327.528 893.53 328.152 893.53 328.968V336H890.506ZM914.206 336.336C913.358 336.336 912.598 336.192 911.926 335.904C911.254 335.6 910.718 335.168 910.318 334.608C909.934 334.032 909.742 333.336 909.742 332.52C909.742 331.704 909.934 331.024 910.318 330.48C910.718 329.92 911.262 329.504 911.95 329.232C912.654 328.944 913.454 328.8 914.35 328.8H917.614V328.128C917.614 327.568 917.438 327.112 917.086 326.76C916.734 326.392 916.174 326.208 915.406 326.208C914.654 326.208 914.094 326.384 913.726 326.736C913.358 327.072 913.118 327.512 913.006 328.056L910.222 327.12C910.414 326.512 910.718 325.96 911.134 325.464C911.566 324.952 912.134 324.544 912.838 324.24C913.558 323.92 914.43 323.76 915.454 323.76C917.022 323.76 918.262 324.152 919.174 324.936C920.086 325.72 920.542 326.856 920.542 328.344V332.784C920.542 333.264 920.766 333.504 921.214 333.504H922.174V336H920.158C919.566 336 919.078 335.856 918.694 335.568C918.31 335.28 918.118 334.896 918.118 334.416V334.392H917.662C917.598 334.584 917.454 334.84 917.23 335.16C917.006 335.464 916.654 335.736 916.174 335.976C915.694 336.216 915.038 336.336 914.206 336.336ZM914.734 333.888C915.582 333.888 916.27 333.656 916.798 333.192C917.342 332.712 917.614 332.08 917.614 331.296V331.056H914.566C914.006 331.056 913.566 331.176 913.246 331.416C912.926 331.656 912.766 331.992 912.766 332.424C912.766 332.856 912.934 333.208 913.27 333.48C913.606 333.752 914.094 333.888 914.734 333.888ZM927.598 336C926.814 336 926.174 335.76 925.678 335.28C925.198 334.784 924.958 334.128 924.958 333.312V326.592H921.982V324.096H924.958V320.4H927.982V324.096H931.246V326.592H927.982V332.784C927.982 333.264 928.206 333.504 928.654 333.504H930.958V336H927.598ZM938.447 336.336C936.895 336.336 935.623 336 934.631 335.328C933.639 334.656 933.039 333.696 932.831 332.448L935.615 331.728C935.727 332.288 935.911 332.728 936.167 333.048C936.439 333.368 936.767 333.6 937.151 333.744C937.551 333.872 937.983 333.936 938.447 333.936C939.151 333.936 939.671 333.816 940.007 333.576C940.343 333.32 940.511 333.008 940.511 332.64C940.511 332.272 940.351 331.992 940.031 331.8C939.711 331.592 939.199 331.424 938.495 331.296L937.823 331.176C936.991 331.016 936.231 330.8 935.543 330.528C934.855 330.24 934.303 329.848 933.887 329.352C933.471 328.856 933.263 328.216 933.263 327.432C933.263 326.248 933.695 325.344 934.559 324.72C935.423 324.08 936.559 323.76 937.967 323.76C939.295 323.76 940.399 324.056 941.279 324.648C942.159 325.24 942.735 326.016 943.007 326.976L940.199 327.84C940.071 327.232 939.807 326.8 939.407 326.544C939.023 326.288 938.543 326.16 937.967 326.16C937.391 326.16 936.951 326.264 936.647 326.472C936.343 326.664 936.191 326.936 936.191 327.288C936.191 327.672 936.351 327.96 936.671 328.152C936.991 328.328 937.423 328.464 937.967 328.56L938.639 328.68C939.535 328.84 940.343 329.056 941.063 329.328C941.799 329.584 942.375 329.96 942.791 330.456C943.223 330.936 943.439 331.592 943.439 332.424C943.439 333.672 942.983 334.64 942.071 335.328C941.175 336 939.967 336.336 938.447 336.336Z" fill="#2375EF"/>
<rect x="768.5" y="256.5" width="264" height="111" rx="15.5" stroke="#D3E3FC"/>
</g>
<g filter="url(#filter3_b_7_2166)">
<rect x="1072" y="257" width="265" height="111" rx="16" fill="white" fill-opacity="0.25"/>
<rect x="1096" y="281" width="40" height="40" rx="8" fill="#D3E3FC"/>
<path d="M1112.59 302.51L1119.42 306.49M1119.41 295.51L1112.59 299.49M1125 294C1125 295.657 1123.66 297 1122 297C1120.34 297 1119 295.657 1119 294C1119 292.343 1120.34 291 1122 291C1123.66 291 1125 292.343 1125 294ZM1113 301C1113 302.657 1111.66 304 1110 304C1108.34 304 1107 302.657 1107 301C1107 299.343 1108.34 298 1110 298C1111.66 298 1113 299.343 1113 301ZM1125 308C1125 309.657 1123.66 311 1122 311C1120.34 311 1119 309.657 1119 308C1119 306.343 1120.34 305 1122 305C1123.66 305 1125 306.343 1125 308Z" stroke="#2375EF" stroke-width="2" stroke-linecap="round" stroke-linejoin="round"/>
<path d="M1161.58 305V288.2H1172.38V291.08H1164.75V295.088H1171.71V297.968H1164.75V302.12H1172.53V305H1161.58ZM1178.19 305.336C1177.34 305.336 1176.58 305.192 1175.91 304.904C1175.23 304.6 1174.7 304.168 1174.3 303.608C1173.91 303.032 1173.72 302.336 1173.72 301.52C1173.72 300.704 1173.91 300.024 1174.3 299.48C1174.7 298.92 1175.24 298.504 1175.93 298.232C1176.63 297.944 1177.43 297.8 1178.33 297.8H1181.59V297.128C1181.59 296.568 1181.42 296.112 1181.07 295.76C1180.71 295.392 1180.15 295.208 1179.39 295.208C1178.63 295.208 1178.07 295.384 1177.71 295.736C1177.34 296.072 1177.1 296.512 1176.99 297.056L1174.2 296.12C1174.39 295.512 1174.7 294.96 1175.11 294.464C1175.55 293.952 1176.11 293.544 1176.82 293.24C1177.54 292.92 1178.41 292.76 1179.43 292.76C1181 292.76 1182.24 293.152 1183.15 293.936C1184.07 294.72 1184.52 295.856 1184.52 297.344V301.784C1184.52 302.264 1184.75 302.504 1185.19 302.504H1186.15V305H1184.14C1183.55 305 1183.06 304.856 1182.67 304.568C1182.29 304.28 1182.1 303.896 1182.1 303.416V303.392H1181.64C1181.58 303.584 1181.43 303.84 1181.21 304.16C1180.99 304.464 1180.63 304.736 1180.15 304.976C1179.67 305.216 1179.02 305.336 1178.19 305.336ZM1178.71 302.888C1179.56 302.888 1180.25 302.656 1180.78 302.192C1181.32 301.712 1181.59 301.08 1181.59 300.296V300.056H1178.55C1177.99 300.056 1177.55 300.176 1177.23 300.416C1176.91 300.656 1176.75 300.992 1176.75 301.424C1176.75 301.856 1176.91 302.208 1177.25 302.48C1177.59 302.752 1178.07 302.888 1178.71 302.888ZM1192.73 305.336C1191.18 305.336 1189.91 305 1188.92 304.328C1187.93 303.656 1187.33 302.696 1187.12 301.448L1189.9 300.728C1190.01 301.288 1190.2 301.728 1190.45 302.048C1190.73 302.368 1191.05 302.6 1191.44 302.744C1191.84 302.872 1192.27 302.936 1192.73 302.936C1193.44 302.936 1193.96 302.816 1194.29 302.576C1194.63 302.32 1194.8 302.008 1194.8 301.64C1194.8 301.272 1194.64 300.992 1194.32 300.8C1194 300.592 1193.49 300.424 1192.78 300.296L1192.11 300.176C1191.28 300.016 1190.52 299.8 1189.83 299.528C1189.14 299.24 1188.59 298.848 1188.17 298.352C1187.76 297.856 1187.55 297.216 1187.55 296.432C1187.55 295.248 1187.98 294.344 1188.85 293.72C1189.71 293.08 1190.85 292.76 1192.25 292.76C1193.58 292.76 1194.69 293.056 1195.57 293.648C1196.45 294.24 1197.02 295.016 1197.29 295.976L1194.49 296.84C1194.36 296.232 1194.09 295.8 1193.69 295.544C1193.31 295.288 1192.83 295.16 1192.25 295.16C1191.68 295.16 1191.24 295.264 1190.93 295.472C1190.63 295.664 1190.48 295.936 1190.48 296.288C1190.48 296.672 1190.64 296.96 1190.96 297.152C1191.28 297.328 1191.71 297.464 1192.25 297.56L1192.93 297.68C1193.82 297.84 1194.63 298.056 1195.35 298.328C1196.09 298.584 1196.66 298.96 1197.08 299.456C1197.51 299.936 1197.73 300.592 1197.73 301.424C1197.73 302.672 1197.27 303.64 1196.36 304.328C1195.46 305 1194.25 305.336 1192.73 305.336ZM1201.19 309.8V307.16H1207.67C1208.12 307.16 1208.34 306.92 1208.34 306.44V303.44H1207.91C1207.78 303.712 1207.58 303.984 1207.31 304.256C1207.04 304.528 1206.67 304.752 1206.21 304.928C1205.74 305.104 1205.15 305.192 1204.43 305.192C1203.5 305.192 1202.69 304.984 1201.98 304.568C1201.3 304.136 1200.76 303.544 1200.38 302.792C1199.99 302.04 1199.8 301.176 1199.8 300.2V293.096H1202.82V299.96C1202.82 300.856 1203.04 301.528 1203.47 301.976C1203.92 302.424 1204.55 302.648 1205.37 302.648C1206.3 302.648 1207.02 302.344 1207.53 301.736C1208.04 301.112 1208.3 300.248 1208.3 299.144V293.096H1211.32V307.112C1211.32 307.928 1211.08 308.576 1210.6 309.056C1210.12 309.552 1209.48 309.8 1208.68 309.8H1201.19ZM1224.76 305.336C1223.21 305.336 1221.94 305 1220.95 304.328C1219.96 303.656 1219.36 302.696 1219.15 301.448L1221.93 300.728C1222.04 301.288 1222.23 301.728 1222.48 302.048C1222.76 302.368 1223.08 302.6 1223.47 302.744C1223.87 302.872 1224.3 302.936 1224.76 302.936C1225.47 302.936 1225.99 302.816 1226.32 302.576C1226.66 302.32 1226.83 302.008 1226.83 301.64C1226.83 301.272 1226.67 300.992 1226.35 300.8C1226.03 300.592 1225.52 300.424 1224.81 300.296L1224.14 300.176C1223.31 300.016 1222.55 299.8 1221.86 299.528C1221.17 299.24 1220.62 298.848 1220.2 298.352C1219.79 297.856 1219.58 297.216 1219.58 296.432C1219.58 295.248 1220.01 294.344 1220.88 293.72C1221.74 293.08 1222.88 292.76 1224.28 292.76C1225.61 292.76 1226.72 293.056 1227.6 293.648C1228.48 294.24 1229.05 295.016 1229.32 295.976L1226.52 296.84C1226.39 296.232 1226.12 295.8 1225.72 295.544C1225.34 295.288 1224.86 295.16 1224.28 295.16C1223.71 295.16 1223.27 295.264 1222.96 295.472C1222.66 295.664 1222.51 295.936 1222.51 296.288C1222.51 296.672 1222.67 296.96 1222.99 297.152C1223.31 297.328 1223.74 297.464 1224.28 297.56L1224.96 297.68C1225.85 297.84 1226.66 298.056 1227.38 298.328C1228.12 298.584 1228.69 298.96 1229.11 299.456C1229.54 299.936 1229.76 300.592 1229.76 301.424C1229.76 302.672 1229.3 303.64 1228.39 304.328C1227.49 305 1226.28 305.336 1224.76 305.336ZM1231.93 305V288.2H1234.95V294.56H1235.38C1235.51 294.304 1235.71 294.048 1235.98 293.792C1236.25 293.536 1236.61 293.328 1237.06 293.168C1237.53 292.992 1238.11 292.904 1238.81 292.904C1239.74 292.904 1240.55 293.12 1241.24 293.552C1241.94 293.968 1242.49 294.552 1242.87 295.304C1243.25 296.04 1243.45 296.904 1243.45 297.896V305H1240.42V298.136C1240.42 297.24 1240.2 296.568 1239.75 296.12C1239.32 295.672 1238.69 295.448 1237.88 295.448C1236.95 295.448 1236.23 295.76 1235.72 296.384C1235.21 296.992 1234.95 297.848 1234.95 298.952V305H1231.93ZM1249.93 305.336C1249.08 305.336 1248.32 305.192 1247.65 304.904C1246.98 304.6 1246.44 304.168 1246.04 303.608C1245.66 303.032 1245.47 302.336 1245.47 301.52C1245.47 300.704 1245.66 300.024 1246.04 299.48C1246.44 298.92 1246.99 298.504 1247.67 298.232C1248.38 297.944 1249.18 297.8 1250.07 297.8H1253.34V297.128C1253.34 296.568 1253.16 296.112 1252.81 295.76C1252.46 295.392 1251.9 295.208 1251.13 295.208C1250.38 295.208 1249.82 295.384 1249.45 295.736C1249.08 296.072 1248.84 296.512 1248.73 297.056L1245.95 296.12C1246.14 295.512 1246.44 294.96 1246.86 294.464C1247.29 293.952 1247.86 293.544 1248.56 293.24C1249.28 292.92 1250.15 292.76 1251.18 292.76C1252.75 292.76 1253.99 293.152 1254.9 293.936C1255.81 294.72 1256.27 295.856 1256.27 297.344V301.784C1256.27 302.264 1256.49 302.504 1256.94 302.504H1257.9V305H1255.88C1255.29 305 1254.8 304.856 1254.42 304.568C1254.03 304.28 1253.84 303.896 1253.84 303.416V303.392H1253.39C1253.32 303.584 1253.18 303.84 1252.95 304.16C1252.73 304.464 1252.38 304.736 1251.9 304.976C1251.42 305.216 1250.76 305.336 1249.93 305.336ZM1250.46 302.888C1251.31 302.888 1251.99 302.656 1252.52 302.192C1253.07 301.712 1253.34 301.08 1253.34 300.296V300.056H1250.29C1249.73 300.056 1249.29 300.176 1248.97 300.416C1248.65 300.656 1248.49 300.992 1248.49 301.424C1248.49 301.856 1248.66 302.208 1248.99 302.48C1249.33 302.752 1249.82 302.888 1250.46 302.888ZM1259.63 305V293.096H1262.61V294.44H1263.04C1263.21 293.96 1263.5 293.608 1263.9 293.384C1264.32 293.16 1264.8 293.048 1265.34 293.048H1266.78V295.736H1265.29C1264.53 295.736 1263.89 295.944 1263.4 296.36C1262.9 296.76 1262.65 297.384 1262.65 298.232V305H1259.63ZM1268.66 305V293.096H1271.69V305H1268.66ZM1270.18 291.704C1269.63 291.704 1269.17 291.528 1268.78 291.176C1268.42 290.824 1268.23 290.36 1268.23 289.784C1268.23 289.208 1268.42 288.744 1268.78 288.392C1269.17 288.04 1269.63 287.864 1270.18 287.864C1270.74 287.864 1271.2 288.04 1271.57 288.392C1271.94 288.744 1272.12 289.208 1272.12 289.784C1272.12 290.36 1271.94 290.824 1271.57 291.176C1271.2 291.528 1270.74 291.704 1270.18 291.704ZM1274.56 305V293.096H1277.54V294.656H1277.97C1278.16 294.24 1278.52 293.848 1279.05 293.48C1279.58 293.096 1280.38 292.904 1281.45 292.904C1282.38 292.904 1283.18 293.12 1283.87 293.552C1284.58 293.968 1285.12 294.552 1285.5 295.304C1285.89 296.04 1286.08 296.904 1286.08 297.896V305H1283.06V298.136C1283.06 297.24 1282.83 296.568 1282.38 296.12C1281.95 295.672 1281.33 295.448 1280.51 295.448C1279.58 295.448 1278.86 295.76 1278.35 296.384C1277.84 296.992 1277.58 297.848 1277.58 298.952V305H1274.56ZM1288.29 299.096V298.712C1288.29 297.464 1288.54 296.4 1289.04 295.52C1289.53 294.624 1290.19 293.944 1291 293.48C1291.84 293 1292.74 292.76 1293.72 292.76C1294.8 292.76 1295.63 292.952 1296.19 293.336C1296.75 293.72 1297.16 294.12 1297.41 294.536H1297.84V293.096H1300.82V307.112C1300.82 307.928 1300.58 308.576 1300.1 309.056C1299.62 309.552 1298.98 309.8 1298.18 309.8H1290.21V307.16H1297.12C1297.57 307.16 1297.8 306.92 1297.8 306.44V303.344H1297.36C1297.2 303.6 1296.98 303.864 1296.69 304.136C1296.4 304.392 1296.02 304.608 1295.54 304.784C1295.06 304.96 1294.45 305.048 1293.72 305.048C1292.74 305.048 1291.84 304.816 1291 304.352C1290.19 303.872 1289.53 303.192 1289.04 302.312C1288.54 301.416 1288.29 300.344 1288.29 299.096ZM1294.58 302.408C1295.51 302.408 1296.28 302.112 1296.91 301.52C1297.53 300.928 1297.84 300.096 1297.84 299.024V298.784C1297.84 297.696 1297.53 296.864 1296.91 296.288C1296.3 295.696 1295.52 295.4 1294.58 295.4C1293.65 295.4 1292.88 295.696 1292.25 296.288C1291.63 296.864 1291.32 297.696 1291.32 298.784V299.024C1291.32 300.096 1291.63 300.928 1292.25 301.52C1292.88 302.112 1293.65 302.408 1294.58 302.408Z" fill="#2375EF"/>
<rect x="1072.5" y="257.5" width="264" height="110" rx="15.5" stroke="#D3E3FC"/>
</g>
</g>
<defs>
<filter id="filter0_b_7_2166" x="147" y="240" width="297" height="144" filterUnits="userSpaceOnUse" color-interpolation-filters="sRGB">
<feFlood flood-opacity="0" result="BackgroundImageFix"/>
<feGaussianBlur in="BackgroundImageFix" stdDeviation="8"/>
<feComposite in2="SourceAlpha" operator="in" result="effect1_backgroundBlur_7_2166"/>
<feBlend mode="normal" in="SourceGraphic" in2="effect1_backgroundBlur_7_2166" result="shape"/>
</filter>
<filter id="filter1_b_7_2166" x="436" y="240" width="297" height="144" filterUnits="userSpaceOnUse" color-interpolation-filters="sRGB">
<feFlood flood-opacity="0" result="BackgroundImageFix"/>
<feGaussianBlur in="BackgroundImageFix" stdDeviation="8"/>
<feComposite in2="SourceAlpha" operator="in" result="effect1_backgroundBlur_7_2166"/>
<feBlend mode="normal" in="SourceGraphic" in2="effect1_backgroundBlur_7_2166" result="shape"/>
</filter>
<filter id="filter2_b_7_2166" x="752" y="240" width="297" height="144" filterUnits="userSpaceOnUse" color-interpolation-filters="sRGB">
<feFlood flood-opacity="0" result="BackgroundImageFix"/>
<feGaussianBlur in="BackgroundImageFix" stdDeviation="8"/>
<feComposite in2="SourceAlpha" operator="in" result="effect1_backgroundBlur_7_2166"/>
<feBlend mode="normal" in="SourceGraphic" in2="effect1_backgroundBlur_7_2166" result="shape"/>
</filter>
<filter id="filter3_b_7_2166" x="1056" y="241" width="297" height="143" filterUnits="userSpaceOnUse" color-interpolation-filters="sRGB">
<feFlood flood-opacity="0" result="BackgroundImageFix"/>
<feGaussianBlur in="BackgroundImageFix" stdDeviation="8"/>
<feComposite in2="SourceAlpha" operator="in" result="effect1_backgroundBlur_7_2166"/>
<feBlend mode="normal" in="SourceGraphic" in2="effect1_backgroundBlur_7_2166" result="shape"/>
</filter>
<clipPath id="clip0_7_2166">
<rect width="1500" height="500" fill="white"/>
</clipPath>
</defs>
</svg>
