<svg width="400" height="349" viewBox="0 0 400 349" fill="none" xmlns="http://www.w3.org/2000/svg">
<g clip-path="url(#clip0_3_161)">
<path d="M315.919 158.566L231.239 285.561C230.86 286.135 230.657 286.808 230.657 287.496C230.657 288.185 230.86 288.858 231.239 289.432L270.095 347.837C270.41 348.316 270.839 348.709 271.344 348.982C271.849 349.254 272.413 349.396 272.986 349.396C273.56 349.396 274.124 349.254 274.629 348.982C275.134 348.709 275.563 348.316 275.878 347.837L399.413 162.558C399.764 162.033 399.965 161.422 399.996 160.792C400.027 160.161 399.885 159.534 399.587 158.977C399.289 158.42 398.845 157.955 398.303 157.632C397.761 157.308 397.141 157.137 396.51 157.138H318.895C318.32 157.114 317.747 157.231 317.228 157.48C316.709 157.729 316.26 158.102 315.919 158.566ZM363.485 50.2485H36.065C35.4914 50.2496 34.9268 50.3913 34.4206 50.6613C33.9144 50.9312 33.4822 51.3212 33.1617 51.797L0.112514 101.347C-0.238292 101.872 -0.439809 102.482 -0.470493 103.113C-0.501177 103.744 -0.359873 104.371 -0.0616897 104.927C0.236494 105.484 0.680345 105.949 1.22241 106.273C1.76447 106.597 2.38437 106.767 3.01581 106.766H203.997L84.7921 285.561C84.4123 286.135 84.2098 286.808 84.2098 287.496C84.2098 288.185 84.4123 288.858 84.7921 289.432L123.503 347.716C123.821 348.195 124.252 348.588 124.759 348.86C125.265 349.132 125.831 349.274 126.406 349.274C126.981 349.274 127.547 349.132 128.054 348.86C128.56 348.588 128.992 348.195 129.309 347.716L289.934 106.766H396.389C397.02 106.767 397.64 106.597 398.182 106.273C398.724 105.949 399.168 105.484 399.466 104.927C399.764 104.371 399.906 103.744 399.875 103.113C399.844 102.482 399.643 101.872 399.292 101.347L366.364 51.797C366.05 51.32 365.623 50.9287 365.12 50.6584C364.617 50.388 364.055 50.2472 363.485 50.2485ZM0.112514 162.437L50.3396 237.874C50.6545 238.353 51.0836 238.747 51.5883 239.019C52.093 239.291 52.6574 239.434 53.2308 239.434C53.8042 239.434 54.3686 239.291 54.8733 239.019C55.378 238.747 55.8071 238.353 56.122 237.874L106.494 162.437C106.846 161.91 107.048 161.297 107.078 160.665C107.107 160.032 106.964 159.403 106.663 158.845C106.362 158.288 105.914 157.823 105.369 157.501C104.823 157.179 104.2 157.012 103.567 157.017H3.01581C2.38437 157.016 1.76447 157.187 1.22241 157.511C0.680345 157.834 0.236494 158.3 -0.0616897 158.856C-0.359873 159.413 -0.501177 160.04 -0.470493 160.671C-0.439809 161.301 -0.238292 161.912 0.112514 162.437Z" fill="#2375EF"/>
</g>
<defs>
<clipPath id="clip0_3_161">
<rect width="400" height="349" fill="white"/>
</clipPath>
</defs>
</svg>
