<svg width="800" height="418" viewBox="0 0 800 418" fill="none" xmlns="http://www.w3.org/2000/svg">
<g clip-path="url(#clip0_7_3041)">
<rect width="800" height="418" fill="#EEEEEE"/>
<circle cx="577.304" cy="419.725" r="8" transform="rotate(-45 577.304 419.725)" fill="#D3E3FC"/>
<circle cx="605.588" cy="391.441" r="8" transform="rotate(-45 605.588 391.441)" fill="#D3E3FC"/>
<circle cx="633.872" cy="363.156" r="8" transform="rotate(-45 633.872 363.156)" fill="#D3E3FC"/>
<circle cx="633.872" cy="419.725" r="8" transform="rotate(-45 633.872 419.725)" fill="#D3E3FC"/>
<circle cx="662.156" cy="391.441" r="8" transform="rotate(-45 662.156 391.441)" fill="#D3E3FC"/>
<circle cx="690.441" cy="419.725" r="8" transform="rotate(-45 690.441 419.725)" fill="#D3E3FC"/>
<circle cx="662.156" cy="334.872" r="8" transform="rotate(-45 662.156 334.872)" fill="#D3E3FC"/>
<circle cx="690.441" cy="306.588" r="8" transform="rotate(-45 690.441 306.588)" fill="#D3E3FC"/>
<circle cx="718.725" cy="278.304" r="8" transform="rotate(-45 718.725 278.304)" fill="#D3E3FC"/>
<circle cx="747.009" cy="250.019" r="8" transform="rotate(-45 747.009 250.019)" fill="#D3E3FC"/>
<circle cx="775.293" cy="221.735" r="8" transform="rotate(-45 775.293 221.735)" fill="#D3E3FC"/>
<circle cx="803.578" cy="193.451" r="8" transform="rotate(-45 803.578 193.451)" fill="#D3E3FC"/>
<circle cx="690.441" cy="363.156" r="8" transform="rotate(-45 690.441 363.156)" fill="#D3E3FC"/>
<circle cx="718.725" cy="334.872" r="8" transform="rotate(-45 718.725 334.872)" fill="#D3E3FC"/>
<circle cx="747.009" cy="306.588" r="8" transform="rotate(-45 747.009 306.588)" fill="#D3E3FC"/>
<circle cx="775.293" cy="278.304" r="8" transform="rotate(-45 775.293 278.304)" fill="#D3E3FC"/>
<circle cx="803.578" cy="250.019" r="8" transform="rotate(-45 803.578 250.019)" fill="#D3E3FC"/>
<circle cx="718.725" cy="391.441" r="8" transform="rotate(-45 718.725 391.441)" fill="#D3E3FC"/>
<circle cx="747.009" cy="363.156" r="8" transform="rotate(-45 747.009 363.156)" fill="#D3E3FC"/>
<circle cx="775.294" cy="334.872" r="8" transform="rotate(-45 775.294 334.872)" fill="#D3E3FC"/>
<circle cx="803.578" cy="306.588" r="8" transform="rotate(-45 803.578 306.588)" fill="#D3E3FC"/>
<circle cx="747.009" cy="419.725" r="8" transform="rotate(-45 747.009 419.725)" fill="#D3E3FC"/>
<circle cx="775.293" cy="391.441" r="8" transform="rotate(-45 775.293 391.441)" fill="#D3E3FC"/>
<circle cx="803.578" cy="363.156" r="8" transform="rotate(-45 803.578 363.156)" fill="#D3E3FC"/>
<circle cx="803.578" cy="419.725" r="8" transform="rotate(-45 803.578 419.725)" fill="#D3E3FC"/>
<circle cx="16.862" cy="92.1463" r="8" transform="rotate(-45 16.862 92.1463)" fill="#D3E3FC"/>
<circle cx="16.862" cy="148.715" r="8" transform="rotate(-45 16.862 148.715)" fill="#D3E3FC"/>
<circle cx="45.1464" cy="120.431" r="8" transform="rotate(-45 45.1464 120.431)" fill="#D3E3FC"/>
<circle cx="16.862" cy="205.283" r="8" transform="rotate(-45 16.862 205.283)" fill="#D3E3FC"/>
<circle cx="45.1464" cy="176.999" r="8" transform="rotate(-45 45.1464 176.999)" fill="#D3E3FC"/>
<circle cx="73.4306" cy="148.715" r="8" transform="rotate(-45 73.4306 148.715)" fill="#D3E3FC"/>
<circle cx="16.8619" cy="35.5778" r="8" transform="rotate(-45 16.8619 35.5778)" fill="#D3E3FC"/>
<circle cx="45.1462" cy="7.29349" r="8" transform="rotate(-45 45.1462 7.29349)" fill="#D3E3FC"/>
<circle cx="45.1462" cy="63.862" r="8" transform="rotate(-45 45.1462 63.862)" fill="#D3E3FC"/>
<circle cx="73.4304" cy="35.5778" r="8" transform="rotate(-45 73.4304 35.5778)" fill="#D3E3FC"/>
<circle cx="101.715" cy="7.29349" r="8" transform="rotate(-45 101.715 7.29349)" fill="#D3E3FC"/>
<circle cx="73.4304" cy="92.1463" r="8" transform="rotate(-45 73.4304 92.1463)" fill="#D3E3FC"/>
<circle cx="101.715" cy="63.862" r="8" transform="rotate(-45 101.715 63.862)" fill="#D3E3FC"/>
<circle cx="129.999" cy="35.5778" r="8" transform="rotate(-45 129.999 35.5778)" fill="#D3E3FC"/>
<circle cx="158.283" cy="7.29349" r="8" transform="rotate(-45 158.283 7.29349)" fill="#D3E3FC"/>
<circle cx="101.715" cy="120.431" r="8" transform="rotate(-45 101.715 120.431)" fill="#D3E3FC"/>
<circle cx="129.999" cy="92.1463" r="8" transform="rotate(-45 129.999 92.1463)" fill="#D3E3FC"/>
<circle cx="158.283" cy="63.862" r="8" transform="rotate(-45 158.283 63.862)" fill="#D3E3FC"/>
<circle cx="186.568" cy="35.5777" r="8" transform="rotate(-45 186.568 35.5777)" fill="#D3E3FC"/>
<circle cx="214.852" cy="7.29346" r="8" transform="rotate(-45 214.852 7.29346)" fill="#D3E3FC"/>
<path d="M193.935 211V186.5H203C204.96 186.5 206.582 186.827 207.865 187.48C209.149 188.133 210.105 189.032 210.735 190.175C211.365 191.318 211.68 192.602 211.68 194.025C211.68 195.378 211.377 196.627 210.77 197.77C210.164 198.89 209.219 199.8 207.935 200.5C206.652 201.177 205.007 201.515 203 201.515H198.415V211H193.935ZM198.415 197.875H202.72C204.284 197.875 205.404 197.537 206.08 196.86C206.78 196.16 207.13 195.215 207.13 194.025C207.13 192.812 206.78 191.867 206.08 191.19C205.404 190.49 204.284 190.14 202.72 190.14H198.415V197.875ZM222.636 211.42C220.886 211.42 219.335 211.047 217.981 210.3C216.628 209.553 215.566 208.503 214.796 207.15C214.026 205.797 213.641 204.233 213.641 202.46C213.641 200.663 214.015 199.065 214.761 197.665C215.531 196.265 216.581 195.18 217.911 194.41C219.265 193.617 220.851 193.22 222.671 193.22C224.375 193.22 225.88 193.593 227.186 194.34C228.493 195.087 229.508 196.113 230.231 197.42C230.978 198.703 231.351 200.138 231.351 201.725C231.351 201.982 231.34 202.25 231.316 202.53C231.316 202.81 231.305 203.102 231.281 203.405H218.086C218.18 204.758 218.646 205.82 219.486 206.59C220.35 207.36 221.388 207.745 222.601 207.745C223.511 207.745 224.27 207.547 224.876 207.15C225.506 206.73 225.973 206.193 226.276 205.54H230.826C230.5 206.637 229.951 207.64 229.181 208.55C228.435 209.437 227.501 210.137 226.381 210.65C225.285 211.163 224.036 211.42 222.636 211.42ZM222.671 196.86C221.575 196.86 220.606 197.175 219.766 197.805C218.926 198.412 218.39 199.345 218.156 200.605H226.801C226.731 199.462 226.311 198.552 225.541 197.875C224.771 197.198 223.815 196.86 222.671 196.86ZM243.554 211.42C241.804 211.42 240.253 211.047 238.899 210.3C237.546 209.553 236.484 208.503 235.714 207.15C234.944 205.797 234.559 204.233 234.559 202.46C234.559 200.663 234.933 199.065 235.679 197.665C236.449 196.265 237.499 195.18 238.829 194.41C240.183 193.617 241.769 193.22 243.589 193.22C245.293 193.22 246.798 193.593 248.104 194.34C249.411 195.087 250.426 196.113 251.149 197.42C251.896 198.703 252.269 200.138 252.269 201.725C252.269 201.982 252.258 202.25 252.234 202.53C252.234 202.81 252.223 203.102 252.199 203.405H239.004C239.098 204.758 239.564 205.82 240.404 206.59C241.268 207.36 242.306 207.745 243.519 207.745C244.429 207.745 245.188 207.547 245.794 207.15C246.424 206.73 246.891 206.193 247.194 205.54H251.744C251.418 206.637 250.869 207.64 250.099 208.55C249.353 209.437 248.419 210.137 247.299 210.65C246.203 211.163 244.954 211.42 243.554 211.42ZM243.589 196.86C242.493 196.86 241.524 197.175 240.684 197.805C239.844 198.412 239.308 199.345 239.074 200.605H247.719C247.649 199.462 247.229 198.552 246.459 197.875C245.689 197.198 244.733 196.86 243.589 196.86ZM256.037 211V193.64H260.027L260.447 196.895C261.077 195.775 261.929 194.888 263.002 194.235C264.099 193.558 265.382 193.22 266.852 193.22V197.945H265.592C264.612 197.945 263.737 198.097 262.967 198.4C262.197 198.703 261.591 199.228 261.147 199.975C260.727 200.722 260.517 201.76 260.517 203.09V211H256.037ZM285.989 211C284.169 211 282.711 210.557 281.614 209.67C280.517 208.783 279.969 207.208 279.969 204.945V197.385H276.994V193.64H279.969L280.494 188.985H284.449V193.64H289.139V197.385H284.449V204.98C284.449 205.82 284.624 206.403 284.974 206.73C285.347 207.033 285.977 207.185 286.864 207.185H289.034V211H285.989ZM300.871 211.42C299.191 211.42 297.674 211.035 296.321 210.265C294.991 209.495 293.929 208.433 293.136 207.08C292.366 205.703 291.981 204.117 291.981 202.32C291.981 200.523 292.378 198.948 293.171 197.595C293.964 196.218 295.026 195.145 296.356 194.375C297.709 193.605 299.226 193.22 300.906 193.22C302.563 193.22 304.056 193.605 305.386 194.375C306.739 195.145 307.801 196.218 308.571 197.595C309.364 198.948 309.761 200.523 309.761 202.32C309.761 204.117 309.364 205.703 308.571 207.08C307.801 208.433 306.739 209.495 305.386 210.265C304.033 211.035 302.528 211.42 300.871 211.42ZM300.871 207.535C302.038 207.535 303.053 207.103 303.916 206.24C304.779 205.353 305.211 204.047 305.211 202.32C305.211 200.593 304.779 199.298 303.916 198.435C303.053 197.548 302.049 197.105 300.906 197.105C299.716 197.105 298.689 197.548 297.826 198.435C296.986 199.298 296.566 200.593 296.566 202.32C296.566 204.047 296.986 205.353 297.826 206.24C298.689 207.103 299.704 207.535 300.871 207.535ZM322.107 218.7V193.64H326.097L326.587 196.125C327.147 195.355 327.882 194.678 328.792 194.095C329.725 193.512 330.927 193.22 332.397 193.22C334.03 193.22 335.488 193.617 336.772 194.41C338.055 195.203 339.07 196.288 339.817 197.665C340.563 199.042 340.937 200.605 340.937 202.355C340.937 204.105 340.563 205.668 339.817 207.045C339.07 208.398 338.055 209.472 336.772 210.265C335.488 211.035 334.03 211.42 332.397 211.42C331.09 211.42 329.947 211.175 328.967 210.685C327.987 210.195 327.193 209.507 326.587 208.62V218.7H322.107ZM331.452 207.5C332.875 207.5 334.053 207.022 334.987 206.065C335.92 205.108 336.387 203.872 336.387 202.355C336.387 200.838 335.92 199.59 334.987 198.61C334.053 197.63 332.875 197.14 331.452 197.14C330.005 197.14 328.815 197.63 327.882 198.61C326.972 199.567 326.517 200.803 326.517 202.32C326.517 203.837 326.972 205.085 327.882 206.065C328.815 207.022 330.005 207.5 331.452 207.5ZM353.374 211.42C351.624 211.42 350.072 211.047 348.719 210.3C347.365 209.553 346.304 208.503 345.534 207.15C344.764 205.797 344.379 204.233 344.379 202.46C344.379 200.663 344.752 199.065 345.499 197.665C346.269 196.265 347.319 195.18 348.649 194.41C350.002 193.617 351.589 193.22 353.409 193.22C355.112 193.22 356.617 193.593 357.924 194.34C359.23 195.087 360.245 196.113 360.969 197.42C361.715 198.703 362.089 200.138 362.089 201.725C362.089 201.982 362.077 202.25 362.054 202.53C362.054 202.81 362.042 203.102 362.019 203.405H348.824C348.917 204.758 349.384 205.82 350.224 206.59C351.087 207.36 352.125 207.745 353.339 207.745C354.249 207.745 355.007 207.547 355.614 207.15C356.244 206.73 356.71 206.193 357.014 205.54H361.564C361.237 206.637 360.689 207.64 359.919 208.55C359.172 209.437 358.239 210.137 357.119 210.65C356.022 211.163 354.774 211.42 353.374 211.42ZM353.409 196.86C352.312 196.86 351.344 197.175 350.504 197.805C349.664 198.412 349.127 199.345 348.894 200.605H357.539C357.469 199.462 357.049 198.552 356.279 197.875C355.509 197.198 354.552 196.86 353.409 196.86ZM374.292 211.42C372.542 211.42 370.99 211.047 369.637 210.3C368.283 209.553 367.222 208.503 366.452 207.15C365.682 205.797 365.297 204.233 365.297 202.46C365.297 200.663 365.67 199.065 366.417 197.665C367.187 196.265 368.237 195.18 369.567 194.41C370.92 193.617 372.507 193.22 374.327 193.22C376.03 193.22 377.535 193.593 378.842 194.34C380.148 195.087 381.163 196.113 381.887 197.42C382.633 198.703 383.007 200.138 383.007 201.725C383.007 201.982 382.995 202.25 382.972 202.53C382.972 202.81 382.96 203.102 382.937 203.405H369.742C369.835 204.758 370.302 205.82 371.142 206.59C372.005 207.36 373.043 207.745 374.257 207.745C375.167 207.745 375.925 207.547 376.532 207.15C377.162 206.73 377.628 206.193 377.932 205.54H382.482C382.155 206.637 381.607 207.64 380.837 208.55C380.09 209.437 379.157 210.137 378.037 210.65C376.94 211.163 375.692 211.42 374.292 211.42ZM374.327 196.86C373.23 196.86 372.262 197.175 371.422 197.805C370.582 198.412 370.045 199.345 369.812 200.605H378.457C378.387 199.462 377.967 198.552 377.197 197.875C376.427 197.198 375.47 196.86 374.327 196.86ZM386.775 211V193.64H390.765L391.185 196.895C391.815 195.775 392.666 194.888 393.74 194.235C394.836 193.558 396.12 193.22 397.59 193.22V197.945H396.33C395.35 197.945 394.475 198.097 393.705 198.4C392.935 198.703 392.328 199.228 391.885 199.975C391.465 200.722 391.255 201.76 391.255 203.09V211H386.775ZM409.796 211V197.385H407.416V193.64H409.796V191.61C409.796 189.51 410.321 188.017 411.371 187.13C412.445 186.243 413.891 185.8 415.711 185.8H417.636V189.615H416.411C415.641 189.615 415.093 189.767 414.766 190.07C414.44 190.373 414.276 190.887 414.276 191.61V193.64H425.476V211H420.996V197.385H414.276V211H409.796ZM423.271 191.155C422.455 191.155 421.778 190.91 421.241 190.42C420.728 189.93 420.471 189.312 420.471 188.565C420.471 187.818 420.728 187.212 421.241 186.745C421.778 186.255 422.455 186.01 423.271 186.01C424.088 186.01 424.753 186.255 425.266 186.745C425.803 187.212 426.071 187.818 426.071 188.565C426.071 189.312 425.803 189.93 425.266 190.42C424.753 190.91 424.088 191.155 423.271 191.155ZM430.217 211V185.8H434.697V211H430.217ZM447.71 211.42C445.96 211.42 444.408 211.047 443.055 210.3C441.701 209.553 440.64 208.503 439.87 207.15C439.1 205.797 438.715 204.233 438.715 202.46C438.715 200.663 439.088 199.065 439.835 197.665C440.605 196.265 441.655 195.18 442.985 194.41C444.338 193.617 445.925 193.22 447.745 193.22C449.448 193.22 450.953 193.593 452.26 194.34C453.566 195.087 454.581 196.113 455.305 197.42C456.051 198.703 456.425 200.138 456.425 201.725C456.425 201.982 456.413 202.25 456.39 202.53C456.39 202.81 456.378 203.102 456.355 203.405H443.16C443.253 204.758 443.72 205.82 444.56 206.59C445.423 207.36 446.461 207.745 447.675 207.745C448.585 207.745 449.343 207.547 449.95 207.15C450.58 206.73 451.046 206.193 451.35 205.54H455.9C455.573 206.637 455.025 207.64 454.255 208.55C453.508 209.437 452.575 210.137 451.455 210.65C450.358 211.163 449.11 211.42 447.71 211.42ZM447.745 196.86C446.648 196.86 445.68 197.175 444.84 197.805C444 198.412 443.463 199.345 443.23 200.605H451.875C451.805 199.462 451.385 198.552 450.615 197.875C449.845 197.198 448.888 196.86 447.745 196.86ZM476.267 211C474.447 211 472.989 210.557 471.892 209.67C470.796 208.783 470.247 207.208 470.247 204.945V197.385H467.272V193.64H470.247L470.772 188.985H474.727V193.64H479.417V197.385H474.727V204.98C474.727 205.82 474.902 206.403 475.252 206.73C475.626 207.033 476.256 207.185 477.142 207.185H479.312V211H476.267ZM483.264 211V193.64H487.254L487.674 196.895C488.304 195.775 489.155 194.888 490.229 194.235C491.325 193.558 492.609 193.22 494.079 193.22V197.945H492.819C491.839 197.945 490.964 198.097 490.194 198.4C489.424 198.703 488.817 199.228 488.374 199.975C487.954 200.722 487.744 201.76 487.744 203.09V211H483.264ZM503.126 211.42C501.632 211.42 500.407 211.187 499.451 210.72C498.494 210.23 497.782 209.588 497.316 208.795C496.849 208.002 496.616 207.127 496.616 206.17C496.616 204.56 497.246 203.253 498.506 202.25C499.766 201.247 501.656 200.745 504.176 200.745H508.586V200.325C508.586 199.135 508.247 198.26 507.571 197.7C506.894 197.14 506.054 196.86 505.051 196.86C504.141 196.86 503.347 197.082 502.671 197.525C501.994 197.945 501.574 198.575 501.411 199.415H497.036C497.152 198.155 497.572 197.058 498.296 196.125C499.042 195.192 499.999 194.48 501.166 193.99C502.332 193.477 503.639 193.22 505.086 193.22C507.559 193.22 509.507 193.838 510.931 195.075C512.354 196.312 513.066 198.062 513.066 200.325V211H509.251L508.831 208.2C508.317 209.133 507.594 209.903 506.661 210.51C505.751 211.117 504.572 211.42 503.126 211.42ZM504.141 207.92C505.424 207.92 506.416 207.5 507.116 206.66C507.839 205.82 508.294 204.782 508.481 203.545H504.666C503.476 203.545 502.624 203.767 502.111 204.21C501.597 204.63 501.341 205.155 501.341 205.785C501.341 206.462 501.597 206.987 502.111 207.36C502.624 207.733 503.301 207.92 504.141 207.92ZM517.341 211V193.64H521.296L521.646 196.58C522.183 195.553 522.953 194.737 523.956 194.13C524.983 193.523 526.184 193.22 527.561 193.22C529.708 193.22 531.376 193.897 532.566 195.25C533.756 196.603 534.351 198.587 534.351 201.2V211H529.871V201.62C529.871 200.127 529.568 198.983 528.961 198.19C528.354 197.397 527.409 197 526.126 197C524.866 197 523.828 197.443 523.011 198.33C522.218 199.217 521.821 200.453 521.821 202.04V211H517.341ZM545.81 211.42C544.27 211.42 542.917 211.175 541.75 210.685C540.583 210.172 539.65 209.472 538.95 208.585C538.25 207.698 537.83 206.672 537.69 205.505H542.205C542.345 206.182 542.718 206.765 543.325 207.255C543.955 207.722 544.76 207.955 545.74 207.955C546.72 207.955 547.432 207.757 547.875 207.36C548.342 206.963 548.575 206.508 548.575 205.995C548.575 205.248 548.248 204.747 547.595 204.49C546.942 204.21 546.032 203.942 544.865 203.685C544.118 203.522 543.36 203.323 542.59 203.09C541.82 202.857 541.108 202.565 540.455 202.215C539.825 201.842 539.312 201.375 538.915 200.815C538.518 200.232 538.32 199.52 538.32 198.68C538.32 197.14 538.927 195.845 540.14 194.795C541.377 193.745 543.103 193.22 545.32 193.22C547.373 193.22 549.007 193.698 550.22 194.655C551.457 195.612 552.192 196.93 552.425 198.61H548.19C547.933 197.327 546.965 196.685 545.285 196.685C544.445 196.685 543.792 196.848 543.325 197.175C542.882 197.502 542.66 197.91 542.66 198.4C542.66 198.913 542.998 199.322 543.675 199.625C544.352 199.928 545.25 200.208 546.37 200.465C547.583 200.745 548.692 201.06 549.695 201.41C550.722 201.737 551.538 202.238 552.145 202.915C552.752 203.568 553.055 204.513 553.055 205.75C553.078 206.823 552.798 207.792 552.215 208.655C551.632 209.518 550.792 210.195 549.695 210.685C548.598 211.175 547.303 211.42 545.81 211.42ZM557.829 211V197.385H555.449V193.64H557.829V191.61C557.829 189.51 558.354 188.017 559.404 187.13C560.477 186.243 561.924 185.8 563.744 185.8H565.669V189.615H564.444C563.674 189.615 563.125 189.767 562.799 190.07C562.472 190.373 562.309 190.887 562.309 191.61V193.64H566.054V197.385H562.309V211H557.829ZM577.353 211.42C575.603 211.42 574.051 211.047 572.698 210.3C571.345 209.553 570.283 208.503 569.513 207.15C568.743 205.797 568.358 204.233 568.358 202.46C568.358 200.663 568.731 199.065 569.478 197.665C570.248 196.265 571.298 195.18 572.628 194.41C573.981 193.617 575.568 193.22 577.388 193.22C579.091 193.22 580.596 193.593 581.903 194.34C583.21 195.087 584.225 196.113 584.948 197.42C585.695 198.703 586.068 200.138 586.068 201.725C586.068 201.982 586.056 202.25 586.033 202.53C586.033 202.81 586.021 203.102 585.998 203.405H572.803C572.896 204.758 573.363 205.82 574.203 206.59C575.066 207.36 576.105 207.745 577.318 207.745C578.228 207.745 578.986 207.547 579.593 207.15C580.223 206.73 580.69 206.193 580.993 205.54H585.543C585.216 206.637 584.668 207.64 583.898 208.55C583.151 209.437 582.218 210.137 581.098 210.65C580.001 211.163 578.753 211.42 577.353 211.42ZM577.388 196.86C576.291 196.86 575.323 197.175 574.483 197.805C573.643 198.412 573.106 199.345 572.873 200.605H581.518C581.448 199.462 581.028 198.552 580.258 197.875C579.488 197.198 578.531 196.86 577.388 196.86ZM589.836 211V193.64H593.826L594.246 196.895C594.876 195.775 595.728 194.888 596.801 194.235C597.898 193.558 599.181 193.22 600.651 193.22V197.945H599.391C598.411 197.945 597.536 198.097 596.766 198.4C595.996 198.703 595.389 199.228 594.946 199.975C594.526 200.722 594.316 201.76 594.316 203.09V211H589.836ZM604.237 211.245C603.42 211.245 602.743 210.988 602.207 210.475C601.693 209.962 601.437 209.343 601.437 208.62C601.437 207.873 601.693 207.243 602.207 206.73C602.743 206.217 603.42 205.96 604.237 205.96C605.053 205.96 605.718 206.217 606.232 206.73C606.768 207.243 607.037 207.873 607.037 208.62C607.037 209.343 606.768 209.962 606.232 210.475C605.718 210.988 605.053 211.245 604.237 211.245ZM220.852 256V231.5H236.847V235.105H225.332V241.825H235.797V245.325H225.332V252.395H236.847V256H220.852ZM246.966 256.42C245.473 256.42 244.248 256.187 243.291 255.72C242.334 255.23 241.623 254.588 241.156 253.795C240.689 253.002 240.456 252.127 240.456 251.17C240.456 249.56 241.086 248.253 242.346 247.25C243.606 246.247 245.496 245.745 248.016 245.745H252.426V245.325C252.426 244.135 252.088 243.26 251.411 242.7C250.734 242.14 249.894 241.86 248.891 241.86C247.981 241.86 247.188 242.082 246.511 242.525C245.834 242.945 245.414 243.575 245.251 244.415H240.876C240.993 243.155 241.413 242.058 242.136 241.125C242.883 240.192 243.839 239.48 245.006 238.99C246.173 238.477 247.479 238.22 248.926 238.22C251.399 238.22 253.348 238.838 254.771 240.075C256.194 241.312 256.906 243.062 256.906 245.325V256H253.091L252.671 253.2C252.158 254.133 251.434 254.903 250.501 255.51C249.591 256.117 248.413 256.42 246.966 256.42ZM247.981 252.92C249.264 252.92 250.256 252.5 250.956 251.66C251.679 250.82 252.134 249.782 252.321 248.545H248.506C247.316 248.545 246.464 248.767 245.951 249.21C245.438 249.63 245.181 250.155 245.181 250.785C245.181 251.462 245.438 251.987 245.951 252.36C246.464 252.733 247.141 252.92 247.981 252.92ZM268.356 256.42C266.816 256.42 265.463 256.175 264.296 255.685C263.13 255.172 262.196 254.472 261.496 253.585C260.796 252.698 260.376 251.672 260.236 250.505H264.751C264.891 251.182 265.265 251.765 265.871 252.255C266.501 252.722 267.306 252.955 268.286 252.955C269.266 252.955 269.978 252.757 270.421 252.36C270.888 251.963 271.121 251.508 271.121 250.995C271.121 250.248 270.795 249.747 270.141 249.49C269.488 249.21 268.578 248.942 267.411 248.685C266.665 248.522 265.906 248.323 265.136 248.09C264.366 247.857 263.655 247.565 263.001 247.215C262.371 246.842 261.858 246.375 261.461 245.815C261.065 245.232 260.866 244.52 260.866 243.68C260.866 242.14 261.473 240.845 262.686 239.795C263.923 238.745 265.65 238.22 267.866 238.22C269.92 238.22 271.553 238.698 272.766 239.655C274.003 240.612 274.738 241.93 274.971 243.61H270.736C270.48 242.327 269.511 241.685 267.831 241.685C266.991 241.685 266.338 241.848 265.871 242.175C265.428 242.502 265.206 242.91 265.206 243.4C265.206 243.913 265.545 244.322 266.221 244.625C266.898 244.928 267.796 245.208 268.916 245.465C270.13 245.745 271.238 246.06 272.241 246.41C273.268 246.737 274.085 247.238 274.691 247.915C275.298 248.568 275.601 249.513 275.601 250.75C275.625 251.823 275.345 252.792 274.761 253.655C274.178 254.518 273.338 255.195 272.241 255.685C271.145 256.175 269.85 256.42 268.356 256.42ZM280.817 263.7L284.842 254.845H283.792L277.037 238.64H281.902L286.767 250.855L291.842 238.64H296.602L285.577 263.7H280.817ZM295.422 260.06L297.417 251.345H301.757L298.362 260.06H295.422ZM314.452 256V242.385H312.072V238.64H314.452V236.61C314.452 234.51 314.977 233.017 316.027 232.13C317.1 231.243 318.547 230.8 320.367 230.8H322.292V234.615H321.067C320.297 234.615 319.749 234.767 319.422 235.07C319.095 235.373 318.932 235.887 318.932 236.61V238.64H322.677V242.385H318.932V256H314.452ZM331.527 256.42C330.033 256.42 328.808 256.187 327.852 255.72C326.895 255.23 326.183 254.588 325.717 253.795C325.25 253.002 325.017 252.127 325.017 251.17C325.017 249.56 325.647 248.253 326.907 247.25C328.167 246.247 330.057 245.745 332.577 245.745H336.987V245.325C336.987 244.135 336.648 243.26 335.972 242.7C335.295 242.14 334.455 241.86 333.452 241.86C332.542 241.86 331.748 242.082 331.072 242.525C330.395 242.945 329.975 243.575 329.812 244.415H325.437C325.553 243.155 325.973 242.058 326.697 241.125C327.443 240.192 328.4 239.48 329.567 238.99C330.733 238.477 332.04 238.22 333.487 238.22C335.96 238.22 337.908 238.838 339.332 240.075C340.755 241.312 341.467 243.062 341.467 245.325V256H337.652L337.232 253.2C336.718 254.133 335.995 254.903 335.062 255.51C334.152 256.117 332.973 256.42 331.527 256.42ZM332.542 252.92C333.825 252.92 334.817 252.5 335.517 251.66C336.24 250.82 336.695 249.782 336.882 248.545H333.067C331.877 248.545 331.025 248.767 330.512 249.21C329.998 249.63 329.742 250.155 329.742 250.785C329.742 251.462 329.998 251.987 330.512 252.36C331.025 252.733 331.702 252.92 332.542 252.92ZM352.917 256.42C351.377 256.42 350.023 256.175 348.857 255.685C347.69 255.172 346.757 254.472 346.057 253.585C345.357 252.698 344.937 251.672 344.797 250.505H349.312C349.452 251.182 349.825 251.765 350.432 252.255C351.062 252.722 351.867 252.955 352.847 252.955C353.827 252.955 354.538 252.757 354.982 252.36C355.448 251.963 355.682 251.508 355.682 250.995C355.682 250.248 355.355 249.747 354.702 249.49C354.048 249.21 353.138 248.942 351.972 248.685C351.225 248.522 350.467 248.323 349.697 248.09C348.927 247.857 348.215 247.565 347.562 247.215C346.932 246.842 346.418 246.375 346.022 245.815C345.625 245.232 345.427 244.52 345.427 243.68C345.427 242.14 346.033 240.845 347.247 239.795C348.483 238.745 350.21 238.22 352.427 238.22C354.48 238.22 356.113 238.698 357.327 239.655C358.563 240.612 359.298 241.93 359.532 243.61H355.297C355.04 242.327 354.072 241.685 352.392 241.685C351.552 241.685 350.898 241.848 350.432 242.175C349.988 242.502 349.767 242.91 349.767 243.4C349.767 243.913 350.105 244.322 350.782 244.625C351.458 244.928 352.357 245.208 353.477 245.465C354.69 245.745 355.798 246.06 356.802 246.41C357.828 246.737 358.645 247.238 359.252 247.915C359.858 248.568 360.162 249.513 360.162 250.75C360.185 251.823 359.905 252.792 359.322 253.655C358.738 254.518 357.898 255.195 356.802 255.685C355.705 256.175 354.41 256.42 352.917 256.42ZM371.319 256C369.499 256 368.04 255.557 366.944 254.67C365.847 253.783 365.299 252.208 365.299 249.945V242.385H362.324V238.64H365.299L365.824 233.985H369.779V238.64H374.469V242.385H369.779V249.98C369.779 250.82 369.954 251.403 370.304 251.73C370.677 252.033 371.307 252.185 372.194 252.185H374.364V256H371.319ZM392.64 256.42C391.147 256.42 389.922 256.187 388.965 255.72C388.008 255.23 387.297 254.588 386.83 253.795C386.363 253.002 386.13 252.127 386.13 251.17C386.13 249.56 386.76 248.253 388.02 247.25C389.28 246.247 391.17 245.745 393.69 245.745H398.1V245.325C398.1 244.135 397.762 243.26 397.085 242.7C396.408 242.14 395.568 241.86 394.565 241.86C393.655 241.86 392.862 242.082 392.185 242.525C391.508 242.945 391.088 243.575 390.925 244.415H386.55C386.667 243.155 387.087 242.058 387.81 241.125C388.557 240.192 389.513 239.48 390.68 238.99C391.847 238.477 393.153 238.22 394.6 238.22C397.073 238.22 399.022 238.838 400.445 240.075C401.868 241.312 402.58 243.062 402.58 245.325V256H398.765L398.345 253.2C397.832 254.133 397.108 254.903 396.175 255.51C395.265 256.117 394.087 256.42 392.64 256.42ZM393.655 252.92C394.938 252.92 395.93 252.5 396.63 251.66C397.353 250.82 397.808 249.782 397.995 248.545H394.18C392.99 248.545 392.138 248.767 391.625 249.21C391.112 249.63 390.855 250.155 390.855 250.785C390.855 251.462 391.112 251.987 391.625 252.36C392.138 252.733 392.815 252.92 393.655 252.92ZM406.855 256V238.64H410.81L411.16 241.58C411.697 240.553 412.467 239.737 413.47 239.13C414.497 238.523 415.698 238.22 417.075 238.22C419.222 238.22 420.89 238.897 422.08 240.25C423.27 241.603 423.865 243.587 423.865 246.2V256H419.385V246.62C419.385 245.127 419.082 243.983 418.475 243.19C417.868 242.397 416.923 242 415.64 242C414.38 242 413.342 242.443 412.525 243.33C411.732 244.217 411.335 245.453 411.335 247.04V256H406.855ZM436.129 256.42C434.496 256.42 433.037 256.023 431.754 255.23C430.471 254.437 429.456 253.352 428.709 251.975C427.962 250.598 427.589 249.035 427.589 247.285C427.589 245.535 427.962 243.983 428.709 242.63C429.456 241.253 430.471 240.18 431.754 239.41C433.037 238.617 434.496 238.22 436.129 238.22C437.436 238.22 438.579 238.465 439.559 238.955C440.539 239.445 441.332 240.133 441.939 241.02V230.8H446.419V256H442.429L441.939 253.515C441.379 254.285 440.632 254.962 439.699 255.545C438.789 256.128 437.599 256.42 436.129 256.42ZM437.074 252.5C438.521 252.5 439.699 252.022 440.609 251.065C441.542 250.085 442.009 248.837 442.009 247.32C442.009 245.803 441.542 244.567 440.609 243.61C439.699 242.63 438.521 242.14 437.074 242.14C435.651 242.14 434.472 242.618 433.539 243.575C432.606 244.532 432.139 245.768 432.139 247.285C432.139 248.802 432.606 250.05 433.539 251.03C434.472 252.01 435.651 252.5 437.074 252.5ZM466.496 256.42C464.956 256.42 463.603 256.175 462.436 255.685C461.269 255.172 460.336 254.472 459.636 253.585C458.936 252.698 458.516 251.672 458.376 250.505H462.891C463.031 251.182 463.404 251.765 464.011 252.255C464.641 252.722 465.446 252.955 466.426 252.955C467.406 252.955 468.118 252.757 468.561 252.36C469.028 251.963 469.261 251.508 469.261 250.995C469.261 250.248 468.934 249.747 468.281 249.49C467.628 249.21 466.718 248.942 465.551 248.685C464.804 248.522 464.046 248.323 463.276 248.09C462.506 247.857 461.794 247.565 461.141 247.215C460.511 246.842 459.998 246.375 459.601 245.815C459.204 245.232 459.006 244.52 459.006 243.68C459.006 242.14 459.613 240.845 460.826 239.795C462.063 238.745 463.789 238.22 466.006 238.22C468.059 238.22 469.693 238.698 470.906 239.655C472.143 240.612 472.878 241.93 473.111 243.61H468.876C468.619 242.327 467.651 241.685 465.971 241.685C465.131 241.685 464.478 241.848 464.011 242.175C463.568 242.502 463.346 242.91 463.346 243.4C463.346 243.913 463.684 244.322 464.361 244.625C465.038 244.928 465.936 245.208 467.056 245.465C468.269 245.745 469.378 246.06 470.381 246.41C471.408 246.737 472.224 247.238 472.831 247.915C473.438 248.568 473.741 249.513 473.741 250.75C473.764 251.823 473.484 252.792 472.901 253.655C472.318 254.518 471.478 255.195 470.381 255.685C469.284 256.175 467.989 256.42 466.496 256.42ZM486.145 256.42C484.395 256.42 482.843 256.047 481.49 255.3C480.136 254.553 479.075 253.503 478.305 252.15C477.535 250.797 477.15 249.233 477.15 247.46C477.15 245.663 477.523 244.065 478.27 242.665C479.04 241.265 480.09 240.18 481.42 239.41C482.773 238.617 484.36 238.22 486.18 238.22C487.883 238.22 489.388 238.593 490.695 239.34C492.001 240.087 493.016 241.113 493.74 242.42C494.486 243.703 494.86 245.138 494.86 246.725C494.86 246.982 494.848 247.25 494.825 247.53C494.825 247.81 494.813 248.102 494.79 248.405H481.595C481.688 249.758 482.155 250.82 482.995 251.59C483.858 252.36 484.896 252.745 486.11 252.745C487.02 252.745 487.778 252.547 488.385 252.15C489.015 251.73 489.481 251.193 489.785 250.54H494.335C494.008 251.637 493.46 252.64 492.69 253.55C491.943 254.437 491.01 255.137 489.89 255.65C488.793 256.163 487.545 256.42 486.145 256.42ZM486.18 241.86C485.083 241.86 484.115 242.175 483.275 242.805C482.435 243.412 481.898 244.345 481.665 245.605H490.31C490.24 244.462 489.82 243.552 489.05 242.875C488.28 242.198 487.323 241.86 486.18 241.86ZM507.133 256.42C505.359 256.42 503.796 256.035 502.443 255.265C501.089 254.495 500.016 253.422 499.223 252.045C498.453 250.668 498.068 249.093 498.068 247.32C498.068 245.547 498.453 243.972 499.223 242.595C500.016 241.218 501.089 240.145 502.443 239.375C503.796 238.605 505.359 238.22 507.133 238.22C509.349 238.22 511.216 238.803 512.733 239.97C514.249 241.113 515.218 242.7 515.638 244.73H510.913C510.679 243.89 510.213 243.237 509.513 242.77C508.836 242.28 508.031 242.035 507.098 242.035C505.861 242.035 504.811 242.502 503.948 243.435C503.084 244.368 502.653 245.663 502.653 247.32C502.653 248.977 503.084 250.272 503.948 251.205C504.811 252.138 505.861 252.605 507.098 252.605C508.031 252.605 508.836 252.372 509.513 251.905C510.213 251.438 510.679 250.773 510.913 249.91H515.638C515.218 251.87 514.249 253.445 512.733 254.635C511.216 255.825 509.349 256.42 507.133 256.42ZM526.124 256.42C523.954 256.42 522.274 255.743 521.084 254.39C519.917 253.037 519.334 251.053 519.334 248.44V238.64H523.779V248.02C523.779 249.513 524.082 250.657 524.689 251.45C525.296 252.243 526.252 252.64 527.559 252.64C528.796 252.64 529.811 252.197 530.604 251.31C531.421 250.423 531.829 249.187 531.829 247.6V238.64H536.309V256H532.354L532.004 253.06C531.467 254.087 530.686 254.903 529.659 255.51C528.656 256.117 527.477 256.42 526.124 256.42ZM540.908 256V238.64H544.898L545.318 241.895C545.948 240.775 546.799 239.888 547.873 239.235C548.969 238.558 550.253 238.22 551.723 238.22V242.945H550.463C549.483 242.945 548.608 243.097 547.838 243.4C547.068 243.703 546.461 244.228 546.018 244.975C545.598 245.722 545.388 246.76 545.388 248.09V256H540.908ZM562.912 256.42C561.162 256.42 559.61 256.047 558.257 255.3C556.904 254.553 555.842 253.503 555.072 252.15C554.302 250.797 553.917 249.233 553.917 247.46C553.917 245.663 554.29 244.065 555.037 242.665C555.807 241.265 556.857 240.18 558.187 239.41C559.54 238.617 561.127 238.22 562.947 238.22C564.65 238.22 566.155 238.593 567.462 239.34C568.769 240.087 569.784 241.113 570.507 242.42C571.254 243.703 571.627 245.138 571.627 246.725C571.627 246.982 571.615 247.25 571.592 247.53C571.592 247.81 571.58 248.102 571.557 248.405H558.362C558.455 249.758 558.922 250.82 559.762 251.59C560.625 252.36 561.664 252.745 562.877 252.745C563.787 252.745 564.545 252.547 565.152 252.15C565.782 251.73 566.249 251.193 566.552 250.54H571.102C570.775 251.637 570.227 252.64 569.457 253.55C568.71 254.437 567.777 255.137 566.657 255.65C565.56 256.163 564.312 256.42 562.912 256.42ZM562.947 241.86C561.85 241.86 560.882 242.175 560.042 242.805C559.202 243.412 558.665 244.345 558.432 245.605H567.077C567.007 244.462 566.587 243.552 565.817 242.875C565.047 242.198 564.09 241.86 562.947 241.86ZM577.32 256.245C576.503 256.245 575.827 255.988 575.29 255.475C574.777 254.962 574.52 254.343 574.52 253.62C574.52 252.873 574.777 252.243 575.29 251.73C575.827 251.217 576.503 250.96 577.32 250.96C578.137 250.96 578.802 251.217 579.315 251.73C579.852 252.243 580.12 252.873 580.12 253.62C580.12 254.343 579.852 254.962 579.315 255.475C578.802 255.988 578.137 256.245 577.32 256.245ZM249.904 301V276.5H259.739C262.283 276.5 264.219 277.095 265.549 278.285C266.903 279.452 267.579 280.957 267.579 282.8C267.579 284.34 267.159 285.577 266.319 286.51C265.503 287.42 264.499 288.038 263.309 288.365C264.709 288.645 265.864 289.345 266.774 290.465C267.684 291.562 268.139 292.845 268.139 294.315C268.139 296.252 267.439 297.85 266.039 299.11C264.639 300.37 262.656 301 260.089 301H249.904ZM254.384 286.79H259.074C260.334 286.79 261.303 286.498 261.979 285.915C262.656 285.332 262.994 284.503 262.994 283.43C262.994 282.403 262.656 281.598 261.979 281.015C261.326 280.408 260.334 280.105 259.004 280.105H254.384V286.79ZM254.384 297.36H259.389C260.719 297.36 261.746 297.057 262.469 296.45C263.216 295.82 263.589 294.945 263.589 293.825C263.589 292.682 263.204 291.783 262.434 291.13C261.664 290.477 260.626 290.15 259.319 290.15H254.384V297.36ZM277.864 301.42C276.371 301.42 275.146 301.187 274.189 300.72C273.233 300.23 272.521 299.588 272.054 298.795C271.588 298.002 271.354 297.127 271.354 296.17C271.354 294.56 271.984 293.253 273.244 292.25C274.504 291.247 276.394 290.745 278.914 290.745H283.324V290.325C283.324 289.135 282.986 288.26 282.309 287.7C281.633 287.14 280.793 286.86 279.789 286.86C278.879 286.86 278.086 287.082 277.409 287.525C276.733 287.945 276.313 288.575 276.149 289.415H271.774C271.891 288.155 272.311 287.058 273.034 286.125C273.781 285.192 274.738 284.48 275.904 283.99C277.071 283.477 278.378 283.22 279.824 283.22C282.298 283.22 284.246 283.838 285.669 285.075C287.093 286.312 287.804 288.062 287.804 290.325V301H283.989L283.569 298.2C283.056 299.133 282.333 299.903 281.399 300.51C280.489 301.117 279.311 301.42 277.864 301.42ZM278.879 297.92C280.163 297.92 281.154 297.5 281.854 296.66C282.578 295.82 283.033 294.782 283.219 293.545H279.404C278.214 293.545 277.363 293.767 276.849 294.21C276.336 294.63 276.079 295.155 276.079 295.785C276.079 296.462 276.336 296.987 276.849 297.36C277.363 297.733 278.039 297.92 278.879 297.92ZM300.585 301.42C298.811 301.42 297.248 301.035 295.895 300.265C294.541 299.495 293.468 298.422 292.675 297.045C291.905 295.668 291.52 294.093 291.52 292.32C291.52 290.547 291.905 288.972 292.675 287.595C293.468 286.218 294.541 285.145 295.895 284.375C297.248 283.605 298.811 283.22 300.585 283.22C302.801 283.22 304.668 283.803 306.185 284.97C307.701 286.113 308.67 287.7 309.09 289.73H304.365C304.131 288.89 303.665 288.237 302.965 287.77C302.288 287.28 301.483 287.035 300.55 287.035C299.313 287.035 298.263 287.502 297.4 288.435C296.536 289.368 296.105 290.663 296.105 292.32C296.105 293.977 296.536 295.272 297.4 296.205C298.263 297.138 299.313 297.605 300.55 297.605C301.483 297.605 302.288 297.372 302.965 296.905C303.665 296.438 304.131 295.773 304.365 294.91H309.09C308.67 296.87 307.701 298.445 306.185 299.635C304.668 300.825 302.801 301.42 300.585 301.42ZM313.066 301V275.8H317.546V290.675L323.706 283.64H329.026L321.921 291.55L330.181 301H324.581L317.546 292.285V301H313.066ZM339.958 301.42C338.208 301.42 336.656 301.047 335.303 300.3C333.95 299.553 332.888 298.503 332.118 297.15C331.348 295.797 330.963 294.233 330.963 292.46C330.963 290.663 331.336 289.065 332.083 287.665C332.853 286.265 333.903 285.18 335.233 284.41C336.586 283.617 338.173 283.22 339.993 283.22C341.696 283.22 343.201 283.593 344.508 284.34C345.815 285.087 346.83 286.113 347.553 287.42C348.3 288.703 348.673 290.138 348.673 291.725C348.673 291.982 348.661 292.25 348.638 292.53C348.638 292.81 348.626 293.102 348.603 293.405H335.408C335.501 294.758 335.968 295.82 336.808 296.59C337.671 297.36 338.71 297.745 339.923 297.745C340.833 297.745 341.591 297.547 342.198 297.15C342.828 296.73 343.295 296.193 343.598 295.54H348.148C347.821 296.637 347.273 297.64 346.503 298.55C345.756 299.437 344.823 300.137 343.703 300.65C342.606 301.163 341.358 301.42 339.958 301.42ZM339.993 286.86C338.896 286.86 337.928 287.175 337.088 287.805C336.248 288.412 335.711 289.345 335.478 290.605H344.123C344.053 289.462 343.633 288.552 342.863 287.875C342.093 287.198 341.136 286.86 339.993 286.86ZM360.421 301.42C358.788 301.42 357.329 301.023 356.046 300.23C354.763 299.437 353.748 298.352 353.001 296.975C352.254 295.598 351.881 294.035 351.881 292.285C351.881 290.535 352.254 288.983 353.001 287.63C353.748 286.253 354.763 285.18 356.046 284.41C357.329 283.617 358.788 283.22 360.421 283.22C361.728 283.22 362.871 283.465 363.851 283.955C364.831 284.445 365.624 285.133 366.231 286.02V275.8H370.711V301H366.721L366.231 298.515C365.671 299.285 364.924 299.962 363.991 300.545C363.081 301.128 361.891 301.42 360.421 301.42ZM361.366 297.5C362.813 297.5 363.991 297.022 364.901 296.065C365.834 295.085 366.301 293.837 366.301 292.32C366.301 290.803 365.834 289.567 364.901 288.61C363.991 287.63 362.813 287.14 361.366 287.14C359.943 287.14 358.764 287.618 357.831 288.575C356.898 289.532 356.431 290.768 356.431 292.285C356.431 293.802 356.898 295.05 357.831 296.03C358.764 297.01 359.943 297.5 361.366 297.5ZM393.903 301.42C392.596 301.42 391.453 301.175 390.473 300.685C389.493 300.195 388.7 299.507 388.093 298.62L387.603 301H383.613V275.8H388.093V286.125C388.653 285.355 389.388 284.678 390.298 284.095C391.231 283.512 392.433 283.22 393.903 283.22C395.536 283.22 396.995 283.617 398.278 284.41C399.561 285.203 400.576 286.288 401.323 287.665C402.07 289.042 402.443 290.605 402.443 292.355C402.443 294.105 402.07 295.668 401.323 297.045C400.576 298.398 399.561 299.472 398.278 300.265C396.995 301.035 395.536 301.42 393.903 301.42ZM392.958 297.5C394.381 297.5 395.56 297.022 396.493 296.065C397.426 295.108 397.893 293.872 397.893 292.355C397.893 290.838 397.426 289.59 396.493 288.61C395.56 287.63 394.381 287.14 392.958 287.14C391.511 287.14 390.321 287.63 389.388 288.61C388.478 289.567 388.023 290.803 388.023 292.32C388.023 293.837 388.478 295.085 389.388 296.065C390.321 297.022 391.511 297.5 392.958 297.5ZM407.043 308.7L411.068 299.845H410.018L403.263 283.64H408.128L412.993 295.855L418.068 283.64H422.828L411.803 308.7H407.043Z" fill="black"/>
<path d="M445.681 301.42C443.231 301.42 441.085 300.883 439.241 299.81C437.421 298.737 435.986 297.255 434.936 295.365C433.91 293.452 433.396 291.247 433.396 288.75C433.396 286.253 433.91 284.06 434.936 282.17C435.986 280.257 437.421 278.763 439.241 277.69C441.085 276.617 443.231 276.08 445.681 276.08C448.108 276.08 450.243 276.617 452.086 277.69C453.93 278.763 455.365 280.257 456.391 282.17C457.418 284.06 457.931 286.253 457.931 288.75C457.931 291.247 457.418 293.452 456.391 295.365C455.365 297.255 453.93 298.737 452.086 299.81C450.243 300.883 448.108 301.42 445.681 301.42ZM445.681 297.395C448.015 297.395 449.87 296.625 451.246 295.085C452.646 293.545 453.346 291.433 453.346 288.75C453.346 286.067 452.646 283.955 451.246 282.415C449.87 280.875 448.015 280.105 445.681 280.105C443.348 280.105 441.481 280.875 440.081 282.415C438.681 283.955 437.981 286.067 437.981 288.75C437.981 291.433 438.681 293.545 440.081 295.085C441.481 296.625 443.348 297.395 445.681 297.395ZM469.517 301C467.697 301 466.239 300.557 465.142 299.67C464.045 298.783 463.497 297.208 463.497 294.945V287.385H460.522V283.64H463.497L464.022 278.985H467.977V283.64H472.667V287.385H467.977V294.98C467.977 295.82 468.152 296.403 468.502 296.73C468.875 297.033 469.505 297.185 470.392 297.185H472.562V301H469.517ZM476.513 301V275.8H480.993V286.3C481.577 285.343 482.358 284.597 483.338 284.06C484.342 283.5 485.485 283.22 486.768 283.22C488.915 283.22 490.572 283.897 491.738 285.25C492.928 286.603 493.523 288.587 493.523 291.2V301H489.078V291.62C489.078 290.127 488.775 288.983 488.168 288.19C487.585 287.397 486.652 287 485.368 287C484.108 287 483.058 287.443 482.218 288.33C481.402 289.217 480.993 290.453 480.993 292.04V301H476.513ZM506.242 301.42C504.492 301.42 502.941 301.047 501.587 300.3C500.234 299.553 499.172 298.503 498.402 297.15C497.632 295.797 497.247 294.233 497.247 292.46C497.247 290.663 497.621 289.065 498.367 287.665C499.137 286.265 500.187 285.18 501.517 284.41C502.871 283.617 504.457 283.22 506.277 283.22C507.981 283.22 509.486 283.593 510.792 284.34C512.099 285.087 513.114 286.113 513.837 287.42C514.584 288.703 514.957 290.138 514.957 291.725C514.957 291.982 514.946 292.25 514.922 292.53C514.922 292.81 514.911 293.102 514.887 293.405H501.692C501.786 294.758 502.252 295.82 503.092 296.59C503.956 297.36 504.994 297.745 506.207 297.745C507.117 297.745 507.876 297.547 508.482 297.15C509.112 296.73 509.579 296.193 509.882 295.54H514.432C514.106 296.637 513.557 297.64 512.787 298.55C512.041 299.437 511.107 300.137 509.987 300.65C508.891 301.163 507.642 301.42 506.242 301.42ZM506.277 286.86C505.181 286.86 504.212 287.175 503.372 287.805C502.532 288.412 501.996 289.345 501.762 290.605H510.407C510.337 289.462 509.917 288.552 509.147 287.875C508.377 287.198 507.421 286.86 506.277 286.86ZM518.725 301V283.64H522.68L523.03 286.58C523.567 285.553 524.337 284.737 525.34 284.13C526.367 283.523 527.569 283.22 528.945 283.22C531.092 283.22 532.76 283.897 533.95 285.25C535.14 286.603 535.735 288.587 535.735 291.2V301H531.255V291.62C531.255 290.127 530.952 288.983 530.345 288.19C529.739 287.397 528.794 287 527.51 287C526.25 287 525.212 287.443 524.395 288.33C523.602 289.217 523.205 290.453 523.205 292.04V301H518.725ZM547.754 301C545.934 301 544.476 300.557 543.379 299.67C542.282 298.783 541.734 297.208 541.734 294.945V287.385H538.759V283.64H541.734L542.259 278.985H546.214V283.64H550.904V287.385H546.214V294.98C546.214 295.82 546.389 296.403 546.739 296.73C547.112 297.033 547.742 297.185 548.629 297.185H550.799V301H547.754Z" fill="#2375EF"/>
<path d="M217.136 119.46L205.591 135.757C205.539 135.831 205.511 135.917 205.511 136.006C205.511 136.094 205.539 136.18 205.591 136.254L210.888 143.749C210.931 143.811 210.99 143.861 211.058 143.896C211.127 143.931 211.204 143.949 211.282 143.949C211.361 143.949 211.438 143.931 211.506 143.896C211.575 143.861 211.634 143.811 211.677 143.749L228.519 119.972C228.567 119.905 228.594 119.826 228.598 119.745C228.602 119.664 228.583 119.584 228.543 119.513C228.502 119.441 228.441 119.381 228.368 119.34C228.294 119.298 228.209 119.276 228.123 119.277H217.541C217.463 119.273 217.385 119.288 217.314 119.32C217.243 119.352 217.182 119.4 217.136 119.46ZM223.621 105.559H178.982C178.903 105.559 178.826 105.578 178.757 105.612C178.688 105.647 178.63 105.697 178.586 105.758L174.08 112.117C174.032 112.184 174.005 112.263 174.001 112.343C173.996 112.424 174.016 112.505 174.056 112.576C174.097 112.648 174.157 112.707 174.231 112.749C174.305 112.791 174.39 112.812 174.476 112.812H201.877L185.625 135.757C185.573 135.831 185.545 135.917 185.545 136.006C185.545 136.094 185.573 136.18 185.625 136.254L190.902 143.733C190.946 143.795 191.005 143.845 191.074 143.88C191.143 143.915 191.22 143.933 191.298 143.933C191.377 143.933 191.454 143.915 191.523 143.88C191.592 143.845 191.651 143.795 191.694 143.733L213.593 112.812H228.107C228.193 112.812 228.277 112.791 228.351 112.749C228.425 112.707 228.485 112.648 228.526 112.576C228.567 112.505 228.586 112.424 228.582 112.343C228.578 112.263 228.55 112.184 228.502 112.117L224.013 105.758C223.97 105.697 223.912 105.647 223.844 105.612C223.775 105.577 223.698 105.559 223.621 105.559ZM174.08 119.957L180.928 129.637C180.971 129.699 181.029 129.749 181.098 129.784C181.167 129.819 181.244 129.838 181.322 129.838C181.4 129.838 181.477 129.819 181.546 129.784C181.615 129.749 181.673 129.699 181.716 129.637L188.584 119.957C188.632 119.889 188.659 119.81 188.663 119.729C188.667 119.648 188.648 119.567 188.607 119.496C188.566 119.424 188.505 119.364 188.43 119.323C188.356 119.282 188.271 119.26 188.185 119.261H174.476C174.39 119.261 174.305 119.283 174.231 119.324C174.157 119.366 174.097 119.426 174.056 119.497C174.016 119.568 173.996 119.649 174.001 119.73C174.005 119.811 174.032 119.889 174.08 119.957Z" fill="#2375EF"/>
<path d="M268.131 141L263.422 105.169H270.127L273.608 136.291H274.529L279.033 105.169H290.704L295.208 136.291H296.13L299.61 105.169H306.316L301.607 141H289.936L285.329 109.162H284.408L279.801 141H268.131ZM321.701 141.717C319.176 141.717 316.941 141.188 314.996 140.13C313.085 139.038 311.584 137.519 310.492 135.574C309.434 133.595 308.905 131.275 308.905 128.613V127.999C308.905 125.337 309.434 123.034 310.492 121.088C311.549 119.109 313.034 117.591 314.945 116.533C316.856 115.441 319.074 114.895 321.599 114.895C324.09 114.895 326.257 115.458 328.1 116.584C329.942 117.676 331.376 119.212 332.399 121.191C333.423 123.136 333.935 125.405 333.935 127.999V130.2H315.457C315.525 131.94 316.173 133.356 317.402 134.448C318.63 135.54 320.132 136.086 321.906 136.086C323.715 136.086 325.046 135.694 325.899 134.909C326.752 134.124 327.4 133.254 327.844 132.298L333.116 135.062C332.638 135.95 331.939 136.922 331.017 137.98C330.13 139.004 328.936 139.891 327.434 140.642C325.933 141.358 324.022 141.717 321.701 141.717ZM315.508 125.388H327.383C327.247 123.921 326.649 122.744 325.592 121.856C324.568 120.969 323.22 120.525 321.548 120.525C319.807 120.525 318.425 120.969 317.402 121.856C316.378 122.744 315.747 123.921 315.508 125.388ZM346.534 141.717C344.726 141.717 343.105 141.409 341.672 140.795C340.238 140.147 339.095 139.226 338.242 138.031C337.423 136.803 337.014 135.318 337.014 133.578C337.014 131.838 337.423 130.387 338.242 129.227C339.095 128.033 340.256 127.146 341.723 126.565C343.224 125.951 344.931 125.644 346.842 125.644H353.803V124.211C353.803 123.016 353.428 122.044 352.677 121.293C351.926 120.508 350.732 120.116 349.094 120.116C347.49 120.116 346.296 120.491 345.511 121.242C344.726 121.959 344.214 122.897 343.975 124.057L338.037 122.061C338.447 120.764 339.095 119.587 339.983 118.529C340.904 117.437 342.115 116.567 343.617 115.919C345.152 115.236 347.012 114.895 349.196 114.895C352.54 114.895 355.185 115.731 357.13 117.403C359.075 119.075 360.048 121.498 360.048 124.672V134.141C360.048 135.165 360.525 135.677 361.481 135.677H363.528V141H359.229C357.966 141 356.925 140.693 356.106 140.079C355.287 139.464 354.878 138.645 354.878 137.622V137.571H353.905C353.769 137.98 353.462 138.526 352.984 139.208C352.506 139.857 351.755 140.437 350.732 140.949C349.708 141.461 348.309 141.717 346.534 141.717ZM347.661 136.496C349.469 136.496 350.936 136.001 352.063 135.011C353.223 133.987 353.803 132.64 353.803 130.967V130.456H347.302C346.108 130.456 345.169 130.712 344.487 131.223C343.804 131.735 343.463 132.452 343.463 133.373C343.463 134.295 343.822 135.045 344.538 135.625C345.255 136.206 346.296 136.496 347.661 136.496ZM371.094 141L363.006 115.612H369.865L375.752 136.291H376.673L382.56 115.612H389.419L381.331 141H371.094ZM403.608 141.717C401.082 141.717 398.847 141.188 396.902 140.13C394.991 139.038 393.49 137.519 392.398 135.574C391.34 133.595 390.811 131.275 390.811 128.613V127.999C390.811 125.337 391.34 123.034 392.398 121.088C393.456 119.109 394.94 117.591 396.851 116.533C398.762 115.441 400.98 114.895 403.505 114.895C405.996 114.895 408.163 115.458 410.006 116.584C411.849 117.676 413.282 119.212 414.306 121.191C415.329 123.136 415.841 125.405 415.841 127.999V130.2H397.363C397.431 131.94 398.08 133.356 399.308 134.448C400.536 135.54 402.038 136.086 403.812 136.086C405.621 136.086 406.952 135.694 407.805 134.909C408.658 134.124 409.306 133.254 409.75 132.298L415.022 135.062C414.545 135.95 413.845 136.922 412.924 137.98C412.036 139.004 410.842 139.891 409.341 140.642C407.839 141.358 405.928 141.717 403.608 141.717ZM397.414 125.388H409.289C409.153 123.921 408.556 122.744 407.498 121.856C406.474 120.969 405.126 120.525 403.454 120.525C401.714 120.525 400.332 120.969 399.308 121.856C398.284 122.744 397.653 123.921 397.414 125.388ZM439.069 141V111.312H428.627V105.169H456.267V111.312H445.825V141H439.069ZM456.55 141V115.612H462.898V118.478H463.819C464.194 117.454 464.809 116.704 465.662 116.226C466.549 115.748 467.573 115.509 468.733 115.509H471.804V121.242H468.63C466.992 121.242 465.645 121.686 464.587 122.573C463.529 123.426 463 124.757 463 126.565V141H456.55ZM483.104 141.717C481.296 141.717 479.675 141.409 478.242 140.795C476.808 140.147 475.665 139.226 474.812 138.031C473.993 136.803 473.584 135.318 473.584 133.578C473.584 131.838 473.993 130.387 474.812 129.227C475.665 128.033 476.825 127.146 478.293 126.565C479.794 125.951 481.5 125.644 483.411 125.644H490.373V124.211C490.373 123.016 489.997 122.044 489.247 121.293C488.496 120.508 487.302 120.116 485.664 120.116C484.06 120.116 482.865 120.491 482.08 121.242C481.296 121.959 480.784 122.897 480.545 124.057L474.607 122.061C475.017 120.764 475.665 119.587 476.552 118.529C477.474 117.437 478.685 116.567 480.187 115.919C481.722 115.236 483.582 114.895 485.766 114.895C489.11 114.895 491.755 115.731 493.7 117.403C495.645 119.075 496.617 121.498 496.617 124.672V134.141C496.617 135.165 497.095 135.677 498.051 135.677H500.098V141H495.798C494.536 141 493.495 140.693 492.676 140.079C491.857 139.464 491.448 138.645 491.448 137.622V137.571H490.475C490.339 137.98 490.031 138.526 489.554 139.208C489.076 139.857 488.325 140.437 487.302 140.949C486.278 141.461 484.879 141.717 483.104 141.717ZM484.23 136.496C486.039 136.496 487.506 136.001 488.632 135.011C489.793 133.987 490.373 132.64 490.373 130.967V130.456H483.872C482.678 130.456 481.739 130.712 481.057 131.223C480.374 131.735 480.033 132.452 480.033 133.373C480.033 134.295 480.391 135.045 481.108 135.625C481.825 136.206 482.865 136.496 484.23 136.496ZM503.79 141V115.612H510.137V118.939H511.058C511.468 118.051 512.236 117.215 513.362 116.431C514.488 115.612 516.194 115.202 518.48 115.202C520.46 115.202 522.183 115.663 523.65 116.584C525.152 117.471 526.312 118.717 527.131 120.321C527.95 121.89 528.359 123.733 528.359 125.849V141H521.91V126.361C521.91 124.45 521.432 123.016 520.477 122.061C519.555 121.106 518.225 120.628 516.484 120.628C514.505 120.628 512.969 121.293 511.877 122.624C510.785 123.921 510.239 125.746 510.239 128.101V141H503.79ZM544.852 141.717C541.542 141.717 538.829 141 536.714 139.567C534.598 138.134 533.318 136.086 532.875 133.424L538.812 131.889C539.051 133.083 539.444 134.022 539.99 134.704C540.57 135.387 541.269 135.881 542.088 136.188C542.941 136.461 543.863 136.598 544.852 136.598C546.354 136.598 547.463 136.342 548.179 135.83C548.896 135.284 549.254 134.619 549.254 133.834C549.254 133.049 548.913 132.452 548.231 132.042C547.548 131.599 546.456 131.24 544.955 130.967L543.521 130.712C541.747 130.37 540.126 129.91 538.659 129.329C537.191 128.715 536.014 127.879 535.127 126.821C534.24 125.764 533.796 124.399 533.796 122.726C533.796 120.201 534.717 118.273 536.56 116.942C538.403 115.577 540.826 114.895 543.829 114.895C546.661 114.895 549.015 115.526 550.892 116.789C552.769 118.051 553.998 119.706 554.578 121.754L548.589 123.597C548.316 122.3 547.753 121.379 546.9 120.833C546.081 120.287 545.057 120.014 543.829 120.014C542.6 120.014 541.662 120.235 541.013 120.679C540.365 121.088 540.041 121.669 540.041 122.419C540.041 123.238 540.382 123.853 541.064 124.262C541.747 124.637 542.668 124.927 543.829 125.132L545.262 125.388C547.173 125.729 548.896 126.19 550.432 126.77C552.001 127.316 553.23 128.118 554.117 129.176C555.038 130.2 555.499 131.599 555.499 133.373C555.499 136.035 554.526 138.099 552.581 139.567C550.67 141 548.094 141.717 544.852 141.717ZM563.824 141V120.935H557.375V115.612H563.824V110.902C563.824 109.162 564.336 107.78 565.36 106.756C566.418 105.698 567.783 105.169 569.455 105.169H576.109V110.493H571.707C570.752 110.493 570.274 111.005 570.274 112.028V115.612H576.928V120.935H570.274V141H563.824ZM591.616 141.717C589.091 141.717 586.856 141.188 584.91 140.13C583 139.038 581.498 137.519 580.406 135.574C579.348 133.595 578.819 131.275 578.819 128.613V127.999C578.819 125.337 579.348 123.034 580.406 121.088C581.464 119.109 582.948 117.591 584.859 116.533C586.77 115.441 588.988 114.895 591.514 114.895C594.005 114.895 596.172 115.458 598.014 116.584C599.857 117.676 601.29 119.212 602.314 121.191C603.338 123.136 603.849 125.405 603.849 127.999V130.2H585.371C585.439 131.94 586.088 133.356 587.316 134.448C588.545 135.54 590.046 136.086 591.821 136.086C593.629 136.086 594.96 135.694 595.813 134.909C596.666 134.124 597.315 133.254 597.758 132.298L603.03 135.062C602.553 135.95 601.853 136.922 600.932 137.98C600.045 139.004 598.85 139.891 597.349 140.642C595.847 141.358 593.936 141.717 591.616 141.717ZM585.422 125.388H597.298C597.161 123.921 596.564 122.744 595.506 121.856C594.482 120.969 593.134 120.525 591.462 120.525C589.722 120.525 588.34 120.969 587.316 121.856C586.293 122.744 585.661 123.921 585.422 125.388ZM608.566 141V115.612H614.913V118.478H615.835C616.21 117.454 616.824 116.704 617.677 116.226C618.565 115.748 619.588 115.509 620.749 115.509H623.82V121.242H620.646C619.008 121.242 617.66 121.686 616.602 122.573C615.545 123.426 615.016 124.757 615.016 126.565V141H608.566Z" fill="#2375EF"/>
</g>
<defs>
<clipPath id="clip0_7_3041">
<rect width="800" height="418" fill="white"/>
</clipPath>
</defs>
</svg>
