<svg width="1361" height="123" viewBox="0 0 1361 123" fill="none" xmlns="http://www.w3.org/2000/svg">
<path d="M129.568 49.4406L94.8901 98.3934C94.7346 98.6147 94.6517 98.8742 94.6517 99.1395C94.6517 99.4048 94.7346 99.6643 94.8901 99.8856L110.802 122.399C110.931 122.584 111.107 122.735 111.313 122.84C111.52 122.945 111.751 123 111.986 123C112.221 123 112.452 122.945 112.659 122.84C112.865 122.735 113.041 122.584 113.17 122.399L163.76 50.9794C163.903 50.777 163.986 50.5417 163.998 50.2985C164.011 50.0554 163.953 49.8137 163.831 49.5991C163.709 49.3846 163.527 49.2053 163.305 49.0804C163.083 48.9556 162.829 48.8899 162.571 48.8903H130.786C130.551 48.8809 130.316 48.9262 130.104 49.0221C129.891 49.1181 129.707 49.2618 129.568 49.4406ZM149.046 7.6875H14.9635C14.7286 7.68791 14.4974 7.74254 14.2901 7.84659C14.0828 7.95065 13.9058 8.10097 13.7746 8.28438L0.240435 27.3843C0.0967754 27.5867 0.0142512 27.822 0.00168575 28.0651C-0.0108797 28.3082 0.0469861 28.55 0.169096 28.7645C0.291207 28.9791 0.47297 29.1584 0.694953 29.2832C0.916935 29.4081 1.17079 29.4738 1.42938 29.4733H83.7339L34.9179 98.3934C34.7624 98.6147 34.6795 98.8742 34.6795 99.1395C34.6795 99.4048 34.7624 99.6643 34.9179 99.8856L50.7705 122.352C50.9006 122.537 51.0773 122.688 51.2847 122.793C51.4922 122.898 51.724 122.953 51.9594 122.953C52.1948 122.953 52.4266 122.898 52.6341 122.793C52.8415 122.688 53.0182 122.537 53.1483 122.352L118.927 29.4733H162.521C162.78 29.4738 163.034 29.4081 163.256 29.2832C163.477 29.1584 163.659 28.9791 163.781 28.7645C163.903 28.55 163.961 28.3082 163.949 28.0651C163.936 27.822 163.854 27.5867 163.71 27.3843L150.225 8.28438C150.097 8.10053 149.922 7.94969 149.716 7.84548C149.51 7.74127 149.28 7.68698 149.046 7.6875ZM0.240435 50.9327L20.8091 80.0116C20.9381 80.1963 21.1138 80.348 21.3205 80.4529C21.5272 80.5578 21.7583 80.6128 21.9931 80.6128C22.2279 80.6128 22.4591 80.5578 22.6657 80.4529C22.8724 80.348 23.0481 80.1963 23.1771 80.0116L43.8052 50.9327C43.9494 50.7297 44.032 50.4935 44.0441 50.2496C44.0563 50.0056 43.9976 49.7632 43.8743 49.5483C43.751 49.3335 43.5678 49.1543 43.3444 49.0302C43.121 48.906 42.8658 48.8415 42.6064 48.8437H1.42938C1.17079 48.8432 0.916935 48.909 0.694953 49.0338C0.47297 49.1586 0.291207 49.3379 0.169096 49.5525C0.0469861 49.767 -0.0108797 50.0088 0.00168575 50.2519C0.0142512 50.495 0.0967754 50.7304 0.240435 50.9327Z" fill="black"/>
<path d="M282.743 115L268.598 7.37499H288.739L299.194 100.855H301.962L315.492 7.37499H350.547L364.077 100.855H366.844L377.299 7.37499H397.441L383.296 115H348.241L334.403 19.3675H331.636L317.798 115H282.743ZM443.654 117.153C436.069 117.153 429.356 115.564 423.513 112.386C417.773 109.106 413.263 104.545 409.983 98.7025C406.806 92.7575 405.217 85.7875 405.217 77.7925V75.9475C405.217 67.9525 406.806 61.0337 409.983 55.1912C413.161 49.2462 417.619 44.685 423.359 41.5075C429.099 38.2275 435.762 36.5875 443.347 36.5875C450.829 36.5875 457.338 38.2787 462.873 41.6612C468.408 44.9412 472.713 49.5537 475.788 55.4987C478.863 61.3412 480.401 68.1575 480.401 75.9475V82.5587H424.897C425.102 87.7862 427.049 92.04 430.739 95.32C434.429 98.6 438.939 100.24 444.269 100.24C449.702 100.24 453.699 99.0612 456.262 96.7037C458.824 94.3462 460.772 91.7325 462.104 88.8625L477.941 97.165C476.506 99.83 474.404 102.751 471.637 105.929C468.972 109.004 465.384 111.669 460.874 113.924C456.364 116.076 450.624 117.153 443.654 117.153ZM425.051 68.1062H460.721C460.311 63.6987 458.517 60.1625 455.339 57.4975C452.264 54.8325 448.216 53.5 443.193 53.5C437.966 53.5 433.814 54.8325 430.739 57.4975C427.664 60.1625 425.768 63.6987 425.051 68.1062ZM518.246 117.153C512.814 117.153 507.945 116.23 503.64 114.385C499.335 112.437 495.901 109.67 493.339 106.082C490.879 102.392 489.649 97.9337 489.649 92.7062C489.649 87.4787 490.879 83.1225 493.339 79.6375C495.901 76.05 499.386 73.385 503.794 71.6425C508.304 69.7975 513.429 68.875 519.169 68.875H540.079V64.57C540.079 60.9825 538.951 58.0612 536.696 55.8062C534.441 53.4487 530.854 52.27 525.934 52.27C521.116 52.27 517.529 53.3975 515.171 55.6525C512.814 57.805 511.276 60.6237 510.559 64.1087L492.724 58.1125C493.953 54.2175 495.901 50.6812 498.566 47.5037C501.334 44.2237 504.972 41.61 509.482 39.6625C514.095 37.6125 519.681 36.5875 526.241 36.5875C536.286 36.5875 544.23 39.0987 550.072 44.1212C555.915 49.1437 558.836 56.4212 558.836 65.9537V94.3975C558.836 97.4725 560.271 99.01 563.141 99.01H569.291V115H556.376C552.584 115 549.457 114.077 546.997 112.232C544.537 110.387 543.307 107.927 543.307 104.853V104.699H540.386C539.976 105.929 539.054 107.569 537.619 109.619C536.184 111.566 533.929 113.309 530.854 114.846C527.779 116.384 523.576 117.153 518.246 117.153ZM521.629 101.47C527.061 101.47 531.469 99.9837 534.851 97.0112C538.336 93.9362 540.079 89.8875 540.079 84.865V83.3275H520.552C516.965 83.3275 514.146 84.0962 512.096 85.6337C510.046 87.1712 509.021 89.3237 509.021 92.0912C509.021 94.8587 510.097 97.1137 512.25 98.8562C514.402 100.599 517.529 101.47 521.629 101.47ZM592.016 115L567.723 38.74H588.326L606.007 100.855H608.775L626.456 38.74H647.058L622.766 115H592.016ZM689.678 117.153C682.093 117.153 675.38 115.564 669.537 112.386C663.797 109.106 659.287 104.545 656.007 98.7025C652.83 92.7575 651.241 85.7875 651.241 77.7925V75.9475C651.241 67.9525 652.83 61.0337 656.007 55.1912C659.185 49.2462 663.643 44.685 669.383 41.5075C675.123 38.2275 681.786 36.5875 689.371 36.5875C696.853 36.5875 703.362 38.2787 708.897 41.6612C714.432 44.9412 718.737 49.5537 721.812 55.4987C724.887 61.3412 726.425 68.1575 726.425 75.9475V82.5587H670.921C671.126 87.7862 673.073 92.04 676.763 95.32C680.453 98.6 684.963 100.24 690.293 100.24C695.726 100.24 699.723 99.0612 702.286 96.7037C704.848 94.3462 706.796 91.7325 708.128 88.8625L723.965 97.165C722.53 99.83 720.428 102.751 717.661 105.929C714.996 109.004 711.408 111.669 706.898 113.924C702.388 116.076 696.648 117.153 689.678 117.153ZM671.075 68.1062H706.745C706.335 63.6987 704.541 60.1625 701.363 57.4975C698.288 54.8325 694.24 53.5 689.217 53.5C683.99 53.5 679.838 54.8325 676.763 57.4975C673.688 60.1625 671.792 63.6987 671.075 68.1062ZM796.194 115V25.825H764.829V7.37499H847.854V25.825H816.489V115H796.194ZM848.704 115V38.74H867.769V47.35H870.536C871.664 44.275 873.509 42.02 876.071 40.585C878.736 39.15 881.811 38.4325 885.296 38.4325H894.521V55.6525H884.989C880.069 55.6525 876.02 56.985 872.843 59.65C869.665 62.2125 868.076 66.21 868.076 71.6425V115H848.704ZM928.464 117.153C923.032 117.153 918.163 116.23 913.858 114.385C909.553 112.437 906.119 109.67 903.557 106.082C901.097 102.392 899.867 97.9337 899.867 92.7062C899.867 87.4787 901.097 83.1225 903.557 79.6375C906.119 76.05 909.604 73.385 914.012 71.6425C918.522 69.7975 923.647 68.875 929.387 68.875H950.297V64.57C950.297 60.9825 949.169 58.0612 946.914 55.8062C944.659 53.4487 941.072 52.27 936.152 52.27C931.334 52.27 927.747 53.3975 925.389 55.6525C923.032 57.805 921.494 60.6237 920.777 64.1087L902.942 58.1125C904.172 54.2175 906.119 50.6812 908.784 47.5037C911.552 44.2237 915.19 41.61 919.7 39.6625C924.313 37.6125 929.899 36.5875 936.459 36.5875C946.504 36.5875 954.448 39.0987 960.29 44.1212C966.133 49.1437 969.054 56.4212 969.054 65.9537V94.3975C969.054 97.4725 970.489 99.01 973.359 99.01H979.509V115H966.594C962.802 115 959.675 114.077 957.215 112.232C954.755 110.387 953.525 107.927 953.525 104.853V104.699H950.604C950.194 105.929 949.272 107.569 947.837 109.619C946.402 111.566 944.147 113.309 941.072 114.846C937.997 116.384 933.794 117.153 928.464 117.153ZM931.847 101.47C937.279 101.47 941.687 99.9837 945.069 97.0112C948.554 93.9362 950.297 89.8875 950.297 84.865V83.3275H930.77C927.183 83.3275 924.364 84.0962 922.314 85.6337C920.264 87.1712 919.239 89.3237 919.239 92.0912C919.239 94.8587 920.315 97.1137 922.468 98.8562C924.62 100.599 927.747 101.47 931.847 101.47ZM990.598 115V38.74H1009.66V48.7337H1012.43C1013.66 46.0687 1015.97 43.5575 1019.35 41.2C1022.73 38.74 1027.86 37.51 1034.72 37.51C1040.67 37.51 1045.85 38.8937 1050.25 41.6612C1054.76 44.3262 1058.25 48.0675 1060.71 52.885C1063.17 57.6 1064.4 63.135 1064.4 69.49V115H1045.03V71.0275C1045.03 65.2875 1043.59 60.9825 1040.72 58.1125C1037.95 55.2425 1033.96 53.8075 1028.73 53.8075C1022.78 53.8075 1018.17 55.8062 1014.89 59.8037C1011.61 63.6987 1009.97 69.1825 1009.97 76.255V115H990.598ZM1113.94 117.153C1104 117.153 1095.85 115 1089.49 110.695C1083.14 106.39 1079.29 100.24 1077.96 92.245L1095.8 87.6325C1096.51 91.22 1097.69 94.0387 1099.33 96.0887C1101.07 98.1387 1103.18 99.625 1105.64 100.547C1108.2 101.367 1110.97 101.777 1113.94 101.777C1118.45 101.777 1121.78 101.009 1123.93 99.4712C1126.08 97.8312 1127.16 95.8325 1127.16 93.475C1127.16 91.1175 1126.14 89.3237 1124.09 88.0937C1122.04 86.7612 1118.76 85.685 1114.25 84.865L1109.94 84.0962C1104.61 83.0712 1099.74 81.6875 1095.33 79.945C1090.93 78.1 1087.39 75.5887 1084.73 72.4112C1082.06 69.2337 1080.73 65.1337 1080.73 60.1112C1080.73 52.5262 1083.5 46.735 1089.03 42.7375C1094.57 38.6375 1101.84 36.5875 1110.86 36.5875C1119.37 36.5875 1126.44 38.4837 1132.08 42.2762C1137.72 46.0687 1141.41 51.04 1143.15 57.19L1125.16 62.725C1124.34 58.83 1122.65 56.0625 1120.09 54.4225C1117.63 52.7825 1114.55 51.9625 1110.86 51.9625C1107.17 51.9625 1104.35 52.6287 1102.41 53.9612C1100.46 55.1912 1099.49 56.9337 1099.49 59.1887C1099.49 61.6487 1100.51 63.4937 1102.56 64.7237C1104.61 65.8512 1107.38 66.7225 1110.86 67.3375L1115.17 68.1062C1120.91 69.1312 1126.08 70.515 1130.7 72.2575C1135.41 73.8975 1139.1 76.3062 1141.77 79.4837C1144.53 82.5587 1145.92 86.7612 1145.92 92.0912C1145.92 100.086 1143 106.287 1137.15 110.695C1131.41 115 1123.68 117.153 1113.94 117.153ZM1170.93 115V54.73H1151.55V38.74H1170.93V24.595C1170.93 19.3675 1172.46 15.2162 1175.54 12.1412C1178.72 8.96374 1182.82 7.37499 1187.84 7.37499H1207.83V23.365H1194.6C1191.73 23.365 1190.3 24.9025 1190.3 27.9775V38.74H1210.29V54.73H1190.3V115H1170.93ZM1254.4 117.153C1246.82 117.153 1240.1 115.564 1234.26 112.386C1228.52 109.106 1224.01 104.545 1220.73 98.7025C1217.55 92.7575 1215.97 85.7875 1215.97 77.7925V75.9475C1215.97 67.9525 1217.55 61.0337 1220.73 55.1912C1223.91 49.2462 1228.37 44.685 1234.11 41.5075C1239.85 38.2275 1246.51 36.5875 1254.1 36.5875C1261.58 36.5875 1268.09 38.2787 1273.62 41.6612C1279.16 44.9412 1283.46 49.5537 1286.54 55.4987C1289.61 61.3412 1291.15 68.1575 1291.15 75.9475V82.5587H1235.65C1235.85 87.7862 1237.8 92.04 1241.49 95.32C1245.18 98.6 1249.69 100.24 1255.02 100.24C1260.45 100.24 1264.45 99.0612 1267.01 96.7037C1269.57 94.3462 1271.52 91.7325 1272.85 88.8625L1288.69 97.165C1287.25 99.83 1285.15 102.751 1282.39 105.929C1279.72 109.004 1276.13 111.669 1271.62 113.924C1267.11 116.076 1261.37 117.153 1254.4 117.153ZM1235.8 68.1062H1271.47C1271.06 63.6987 1269.27 60.1625 1266.09 57.4975C1263.01 54.8325 1258.96 53.5 1253.94 53.5C1248.71 53.5 1244.56 54.8325 1241.49 57.4975C1238.41 60.1625 1236.52 63.6987 1235.8 68.1062ZM1305.32 115V38.74H1324.38V47.35H1327.15C1328.28 44.275 1330.12 42.02 1332.68 40.585C1335.35 39.15 1338.42 38.4325 1341.91 38.4325H1351.13V55.6525H1341.6C1336.68 55.6525 1332.63 56.985 1329.46 59.65C1326.28 62.2125 1324.69 66.21 1324.69 71.6425V115H1305.32Z" fill="black"/>
</svg>
